Grotesca Reforma-Preta estreita.ufo
<glyph name="exclam" format="1">
  <advance width="244"/>
  <unicode hex="0021"/>
  <outline>
    <contour>
      <point x="22" y="800" type="line"/>
      <point x="62" y="233" type="line"/>
      <point x="182" y="233" type="line"/>
      <point x="222" y="800" type="line"/>
    </contour>
    <component base="period" xOffset="-7"/>
  </outline>
</glyph>
<glyph name="numbersign" format="1">
  <advance width="630"/>
  <unicode hex="0023"/>
  <outline>
    <contour>
      <point x="40" y="210" type="line"/>
      <point x="136" y="210" type="line"/>
      <point x="113" y="0" type="line"/>
      <point x="231" y="0" type="line"/>
      <point x="254" y="210" type="line"/>
      <point x="333" y="210" type="line"/>
      <point x="310" y="0" type="line"/>
      <point x="428" y="0" type="line"/>
      <point x="451" y="210" type="line"/>
      <point x="560" y="210" type="line"/>
      <point x="560" y="320" type="line"/>
      <point x="464" y="320" type="line"/>
      <point x="481" y="480" type="line"/>
      <point x="590" y="480" type="line"/>
      <point x="590" y="590" type="line"/>
      <point x="494" y="590" type="line"/>
      <point x="517" y="800" type="line"/>
      <point x="399" y="800" type="line"/>
      <point x="376" y="590" type="line"/>
      <point x="297" y="590" type="line"/>
      <point x="320" y="800" type="line"/>
      <point x="202" y="800" type="line"/>
      <point x="179" y="590" type="line"/>
      <point x="70" y="590" type="line"/>
      <point x="70" y="480" type="line"/>
      <point x="166" y="480" type="line"/>
      <point x="149" y="320" type="line"/>
      <point x="40" y="320" type="line"/>
    </contour>
    <contour>
      <point x="255" y="306" type="line"/>
      <point x="275" y="494" type="line"/>
      <point x="375" y="494" type="line"/>
      <point x="355" y="306" type="line"/>
    </contour>
  </outline>
</glyph>
<glyph name="dollar" format="1">
  <advance width="456"/>
  <unicode hex="0024"/>
  <outline>
    <contour>
      <point x="176" y="-80" type="line"/>
      <point x="276" y="-80" type="line"/>
      <point x="276" y="46" type="line"/>
      <point x="176" y="46" type="line"/>
    </contour>
    <contour>
      <point x="176" y="754" type="line"/>
      <point x="276" y="754" type="line"/>
      <point x="276" y="880" type="line"/>
      <point x="176" y="880" type="line"/>
    </contour>
    <component base="S"/>
  </outline>
</glyph>
<glyph name="ampersand" format="2">
	<advance width="639"/>
	<unicode hex="0026"/>
	<outline>
		<contour>
			<point x="596" y="10" type="curve"/>
			<point x="596" y="133" type="line"/>
			<point x="588" y="131"/>
			<point x="576" y="130"/>
			<point x="561" y="130" type="curve" smooth="yes"/>
			<point x="513" y="130"/>
			<point x="476" y="153"/>
			<point x="448" y="201" type="curve" smooth="yes"/>
			<point x="252" y="539" type="line" smooth="yes"/>
			<point x="236" y="567"/>
			<point x="221" y="605"/>
			<point x="221" y="639" type="curve" smooth="yes"/>
			<point x="221" y="674"/>
			<point x="234" y="691"/>
			<point x="260" y="691" type="curve" smooth="yes"/>
			<point x="286" y="691"/>
			<point x="298" y="674"/>
			<point x="298" y="639" type="curve" smooth="yes"/>
			<point x="298" y="618"/>
			<point x="293" y="598"/>
			<point x="284" y="579" type="curve" smooth="yes"/>
			<point x="274" y="559"/>
			<point x="259" y="539"/>
			<point x="239" y="521" type="curve" smooth="yes"/>
			<point x="167" y="453" type="line" smooth="yes"/>
			<point x="116" y="404"/>
			<point x="79" y="358"/>
			<point x="55" y="314" type="curve" smooth="yes"/>
			<point x="33" y="274"/>
			<point x="22" y="236"/>
			<point x="22" y="199" type="curve" smooth="yes"/>
			<point x="22" y="59"/>
			<point x="102" y="-10"/>
			<point x="266" y="-10" type="curve" smooth="yes"/>
			<point x="461" y="-10"/>
			<point x="556" y="125"/>
			<point x="556" y="402" type="curve"/>
			<point x="556" y="408" type="line"/>
			<point x="406" y="408" type="line"/>
			<point x="406" y="402" type="line"/>
			<point x="401" y="213"/>
			<point x="355" y="120"/>
			<point x="266" y="120" type="curve" smooth="yes"/>
			<point x="213" y="120"/>
			<point x="187" y="146"/>
			<point x="187" y="199" type="curve" smooth="yes"/>
			<point x="187" y="226"/>
			<point x="191" y="250"/>
			<point x="199" y="271" type="curve" smooth="yes"/>
			<point x="207" y="292"/>
			<point x="220" y="310"/>
			<point x="237" y="326" type="curve" smooth="yes"/>
			<point x="309" y="394" type="line" smooth="yes"/>
			<point x="361" y="444"/>
			<point x="399" y="491"/>
			<point x="421" y="535" type="curve" smooth="yes"/>
			<point x="439" y="570"/>
			<point x="448" y="602"/>
			<point x="448" y="634" type="curve" smooth="yes"/>
			<point x="448" y="753"/>
			<point x="388" y="811"/>
			<point x="266" y="811" type="curve" smooth="yes"/>
			<point x="128" y="811"/>
			<point x="61" y="753"/>
			<point x="61" y="634" type="curve" smooth="yes"/>
			<point x="61" y="587"/>
			<point x="84" y="531"/>
			<point x="112" y="481" type="curve" smooth="yes"/>
			<point x="328" y="105" type="line" smooth="yes"/>
			<point x="369" y="34"/>
			<point x="433" y="0"/>
			<point x="523" y="0" type="curve" smooth="yes"/>
			<point x="545" y="0"/>
			<point x="569" y="3"/>
		</contour>
	</outline>
</glyph>
<glyph name="quotesingle" format="1">
  <advance width="256"/>
  <unicode hex="0027"/>
  <outline>
    <contour>
      <point x="48" y="750" type="line"/>
      <point x="78" y="570" type="line"/>
      <point x="178" y="570" type="line"/>
      <point x="208" y="750" type="line"/>
      <point x="208" y="820" type="line"/>
      <point x="48" y="820" type="line"/>
    </contour>
  </outline>
</glyph>
<glyph name="parenleft" format="1">
  <advance width="278"/>
  <unicode hex="0028"/>
  <outline>
    <contour>
      <point x="33" y="25" type="line" smooth="yes"/>
      <point x="33" y="-121"/>
      <point x="108" y="-190"/>
      <point x="268" y="-190" type="curve"/>
      <point x="278" y="-110" type="line"/>
      <point x="224" y="-100"/>
      <point x="198" y="-72"/>
      <point x="198" y="-20" type="curve" smooth="yes"/>
      <point x="198" y="660" type="line" smooth="yes"/>
      <point x="198" y="712"/>
      <point x="224" y="740"/>
      <point x="278" y="750" type="curve"/>
      <point x="268" y="830" type="line"/>
      <point x="108" y="830"/>
      <point x="33" y="761"/>
      <point x="33" y="615" type="curve" smooth="yes"/>
    </contour>
  </outline>
</glyph>
<glyph name="parenright" format="1">
  <advance width="278"/>
  <unicode hex="0029"/>
  <outline>
    <contour>
      <point x="245" y="25" type="curve" smooth="yes"/>
      <point x="245" y="615" type="line" smooth="yes"/>
      <point x="245" y="761"/>
      <point x="170" y="830"/>
      <point x="10" y="830" type="curve"/>
      <point x="0" y="750" type="line"/>
      <point x="54" y="740"/>
      <point x="80" y="712"/>
      <point x="80" y="660" type="curve" smooth="yes"/>
      <point x="80" y="-20" type="line" smooth="yes"/>
      <point x="80" y="-72"/>
      <point x="54" y="-100"/>
      <point x="0" y="-110" type="curve"/>
      <point x="10" y="-190" type="line"/>
      <point x="170" y="-190"/>
      <point x="245" y="-121"/>
    </contour>
  </outline>
</glyph>
<glyph name="asterisk" format="1">
  <advance width="358"/>
  <unicode hex="002A"/>
  <outline>
    <contour>
      <point x="16" y="582" type="line"/>
      <point x="64" y="498" type="line"/>
      <point x="67" y="498" type="line"/>
      <point x="149" y="569" type="line"/>
      <point x="129" y="462" type="line"/>
      <point x="131" y="460" type="line"/>
      <point x="227" y="460" type="line"/>
      <point x="229" y="462" type="line"/>
      <point x="209" y="569" type="line"/>
      <point x="291" y="498" type="line"/>
      <point x="294" y="498" type="line"/>
      <point x="342" y="582" type="line"/>
      <point x="341" y="584" type="line"/>
      <point x="238" y="620" type="line"/>
      <point x="341" y="656" type="line"/>
      <point x="342" y="658" type="line"/>
      <point x="294" y="742" type="line"/>
      <point x="291" y="742" type="line"/>
      <point x="209" y="671" type="line"/>
      <point x="229" y="778" type="line"/>
      <point x="227" y="780" type="line"/>
      <point x="131" y="780" type="line"/>
      <point x="129" y="778" type="line"/>
      <point x="149" y="671" type="line"/>
      <point x="67" y="742" type="line"/>
      <point x="64" y="742" type="line"/>
      <point x="16" y="658" type="line"/>
      <point x="17" y="656" type="line"/>
      <point x="120" y="620" type="line"/>
      <point x="17" y="584" type="line"/>
    </contour>
  </outline>
</glyph>
<glyph name="comma" format="2">
	<advance width="256"/>
	<unicode hex="002C"/>
	<outline>
		<contour>
			<point x="48" y="-130" type="line"/>
			<point x="126" y="-130" type="line"/>
			<point x="208" y="0" type="line"/>
			<point x="208" y="166" type="line"/>
			<point x="48" y="166" type="line"/>
			<point x="48" y="0" type="line"/>
			<point x="108" y="0" type="line"/>
		</contour>
	</outline>
</glyph>
<glyph name="hyphen" format="1">
  <advance width="288"/>
  <unicode hex="002D"/>
  <outline>
    <contour>
      <point x="34" y="245" type="line"/>
      <point x="254" y="245" type="line"/>
      <point x="254" y="361" type="line"/>
      <point x="34" y="361" type="line"/>
    </contour>
  </outline>
</glyph>
<glyph name="period" format="2">
	<advance width="256"/>
	<unicode hex="002E"/>
	<outline>
		<contour>
			<point x="48" y="0" type="line"/>
			<point x="208" y="0" type="line"/>
			<point x="208" y="166" type="line"/>
			<point x="48" y="166" type="line"/>
		</contour>
	</outline>
</glyph>
<glyph name="slash" format="2">
	<advance width="320"/>
	<unicode hex="002F"/>
	<outline>
		<contour>
			<point x="190" y="820" type="line"/>
			<point x="10" y="-26" type="line"/>
			<point x="130" y="-26" type="line"/>
			<point x="310" y="820" type="line"/>
		</contour>
	</outline>
</glyph>
<glyph name="zero" format="1">
  <advance width="462"/>
  <unicode hex="0030"/>
  <outline>
    <contour>
      <point x="33" y="186" type="line" smooth="yes"/>
      <point x="33" y="53"/>
      <point x="96" y="-10"/>
      <point x="230" y="-10" type="curve" smooth="yes"/>
      <point x="365" y="-10"/>
      <point x="429" y="52"/>
      <point x="429" y="185" type="curve" smooth="yes"/>
      <point x="429" y="594" type="line" smooth="yes"/>
      <point x="429" y="727"/>
      <point x="366" y="790"/>
      <point x="232" y="790" type="curve" smooth="yes"/>
      <point x="97" y="790"/>
      <point x="33" y="728"/>
      <point x="33" y="595" type="curve" smooth="yes"/>
    </contour>
    <contour>
      <point x="198" y="175" type="curve" smooth="yes"/>
      <point x="198" y="600" type="line" smooth="yes"/>
      <point x="198" y="634"/>
      <point x="209" y="650"/>
      <point x="231" y="650" type="curve" smooth="yes"/>
      <point x="253" y="650"/>
      <point x="264" y="636"/>
      <point x="264" y="605" type="curve" smooth="yes"/>
      <point x="264" y="180" type="line" smooth="yes"/>
      <point x="264" y="146"/>
      <point x="253" y="130"/>
      <point x="231" y="130" type="curve" smooth="yes"/>
      <point x="209" y="130"/>
      <point x="198" y="144"/>
    </contour>
  </outline>
</glyph>
<glyph name="one" format="2">
	<advance width="346"/>
	<unicode hex="0031"/>
	<outline>
		<contour>
			<point x="17" y="545" type="curve"/>
			<point x="87" y="474" type="line"/>
			<point x="114" y="496"/>
			<point x="133" y="523"/>
			<point x="139" y="548" type="curve"/>
			<point x="143" y="548" type="line"/>
			<point x="143" y="0" type="line"/>
			<point x="303" y="0" type="line"/>
			<point x="303" y="780" type="line"/>
			<point x="168" y="780" type="line"/>
			<point x="136" y="692"/>
			<point x="88" y="617"/>
		</contour>
	</outline>
</glyph>
<glyph name="two" format="2">
	<advance width="461"/>
	<unicode hex="0032"/>
	<outline>
		<contour>
			<point x="43" y="550" type="line"/>
			<point x="193" y="550" type="line"/>
			<point x="193" y="600" type="line" smooth="yes"/>
			<point x="193" y="638"/>
			<point x="207" y="660"/>
			<point x="231" y="660" type="curve" smooth="yes"/>
			<point x="255" y="660"/>
			<point x="269" y="632"/>
			<point x="269" y="584" type="curve" smooth="yes"/>
			<point x="269" y="431"/>
			<point x="181" y="255"/>
			<point x="33" y="110" type="curve"/>
			<point x="33" y="0" type="line"/>
			<point x="439" y="0" type="line"/>
			<point x="439" y="130" type="line"/>
			<point x="218" y="130" type="line"/>
			<point x="218" y="134" type="line"/>
			<point x="351" y="247"/>
			<point x="429" y="410"/>
			<point x="429" y="574" type="curve" smooth="yes"/>
			<point x="429" y="710"/>
			<point x="356" y="790"/>
			<point x="232" y="790" type="curve" smooth="yes"/>
			<point x="113" y="790"/>
			<point x="43" y="714"/>
			<point x="43" y="585" type="curve" smooth="yes"/>
		</contour>
	</outline>
</glyph>
<glyph name="three" format="1">
  <advance width="479"/>
  <unicode hex="0033"/>
  <outline>
    <contour>
      <point x="33" y="186" type="line" smooth="yes"/>
      <point x="33" y="53"/>
      <point x="98" y="-10"/>
      <point x="235" y="-10" type="curve" smooth="yes"/>
      <point x="374" y="-10"/>
      <point x="439" y="52"/>
      <point x="439" y="185" type="curve" smooth="yes"/>
      <point x="439" y="295" type="line" smooth="yes"/>
      <point x="439" y="364"/>
      <point x="404" y="412"/>
      <point x="346" y="424" type="curve"/>
      <point x="346" y="428" type="line"/>
      <point x="398" y="439"/>
      <point x="429" y="483"/>
      <point x="429" y="545" type="curve" smooth="yes"/>
      <point x="429" y="594" type="line" smooth="yes"/>
      <point x="429" y="727"/>
      <point x="366" y="790"/>
      <point x="232" y="790" type="curve" smooth="yes"/>
      <point x="97" y="790"/>
      <point x="33" y="728"/>
      <point x="33" y="595" type="curve" smooth="yes"/>
      <point x="33" y="541" type="line"/>
      <point x="193" y="541" type="line"/>
      <point x="193" y="590" type="line" smooth="yes"/>
      <point x="193" y="631"/>
      <point x="205" y="650"/>
      <point x="231" y="650" type="curve" smooth="yes"/>
      <point x="257" y="650"/>
      <point x="269" y="632"/>
      <point x="269" y="595" type="curve" smooth="yes"/>
      <point x="269" y="530" type="line" smooth="yes"/>
      <point x="269" y="496"/>
      <point x="257" y="480"/>
      <point x="231" y="480" type="curve" smooth="yes"/>
      <point x="180" y="480" type="line"/>
      <point x="180" y="360" type="line"/>
      <point x="236" y="360" type="line" smooth="yes"/>
      <point x="262" y="360"/>
      <point x="274" y="344"/>
      <point x="274" y="310" type="curve" smooth="yes"/>
      <point x="274" y="190" type="line" smooth="yes"/>
      <point x="274" y="149"/>
      <point x="261" y="130"/>
      <point x="233" y="130" type="curve" smooth="yes"/>
      <point x="206" y="130"/>
      <point x="193" y="148"/>
      <point x="193" y="185" type="curve" smooth="yes"/>
      <point x="193" y="261" type="line"/>
      <point x="33" y="261" type="line"/>
    </contour>
  </outline>
</glyph>
<glyph name="four" format="1">
  <advance width="434"/>
  <unicode hex="0034"/>
  <outline>
    <contour>
      <point x="412" y="140" type="line"/>
      <point x="412" y="270" type="line"/>
      <point x="112" y="270" type="line"/>
      <point x="112" y="274" type="line"/>
      <point x="144" y="335"/>
      <point x="172" y="413"/>
      <point x="188" y="485" type="curve"/>
      <point x="192" y="485" type="line"/>
      <point x="192" y="0" type="line"/>
      <point x="352" y="0" type="line"/>
      <point x="352" y="780" type="line"/>
      <point x="204" y="780" type="line"/>
      <point x="156" y="614"/>
      <point x="87" y="425"/>
      <point x="17" y="270" type="curve"/>
      <point x="17" y="140" type="line"/>
    </contour>
  </outline>
</glyph>
<glyph name="five" format="2">
	<advance width="462"/>
	<unicode hex="0035"/>
	<outline>
		<contour>
			<point x="33" y="196" type="line" smooth="yes"/>
			<point x="33" y="56"/>
			<point x="96" y="-10"/>
			<point x="230" y="-10" type="curve" smooth="yes"/>
			<point x="365" y="-10"/>
			<point x="429" y="56"/>
			<point x="429" y="195" type="curve" smooth="yes"/>
			<point x="429" y="374" type="line" smooth="yes"/>
			<point x="429" y="485"/>
			<point x="382" y="550"/>
			<point x="302" y="550" type="curve" smooth="yes"/>
			<point x="257" y="550"/>
			<point x="218" y="532"/>
			<point x="200" y="501" type="curve"/>
			<point x="196" y="501" type="line"/>
			<point x="200" y="650" type="line"/>
			<point x="398" y="650" type="line"/>
			<point x="398" y="780" type="line"/>
			<point x="56" y="780" type="line"/>
			<point x="43" y="403" type="line"/>
			<point x="185" y="386" type="line"/>
			<point x="185" y="421"/>
			<point x="198" y="438"/>
			<point x="227" y="438" type="curve" smooth="yes"/>
			<point x="256" y="438"/>
			<point x="269" y="421"/>
			<point x="269" y="385" type="curve" smooth="yes"/>
			<point x="269" y="190" type="line" smooth="yes"/>
			<point x="269" y="149"/>
			<point x="255" y="130"/>
			<point x="226" y="130" type="curve" smooth="yes"/>
			<point x="197" y="130"/>
			<point x="183" y="148"/>
			<point x="183" y="185" type="curve" smooth="yes"/>
			<point x="183" y="246" type="line"/>
			<point x="33" y="246" type="line"/>
		</contour>
	</outline>
</glyph>
<glyph name="six" format="2">
	<advance width="462"/>
	<unicode hex="0036"/>
	<outline>
		<contour>
			<point x="33" y="186" type="line" smooth="yes"/>
			<point x="33" y="53"/>
			<point x="96" y="-10"/>
			<point x="230" y="-10" type="curve" smooth="yes"/>
			<point x="365" y="-10"/>
			<point x="429" y="52"/>
			<point x="429" y="185" type="curve" smooth="yes"/>
			<point x="429" y="331" type="line" smooth="yes"/>
			<point x="429" y="426"/>
			<point x="390" y="471"/>
			<point x="308" y="471" type="curve" smooth="yes"/>
			<point x="253" y="471"/>
			<point x="214" y="445"/>
			<point x="202" y="400" type="curve"/>
			<point x="198" y="400" type="line"/>
			<point x="198" y="600" type="line" smooth="yes"/>
			<point x="198" y="634"/>
			<point x="209" y="650"/>
			<point x="231" y="650" type="curve" smooth="yes"/>
			<point x="253" y="650"/>
			<point x="264" y="636"/>
			<point x="264" y="605" type="curve" smooth="yes"/>
			<point x="264" y="542" type="line"/>
			<point x="419" y="542" type="line"/>
			<point x="419" y="594" type="line" smooth="yes"/>
			<point x="419" y="727"/>
			<point x="358" y="790"/>
			<point x="229" y="790" type="curve" smooth="yes"/>
			<point x="96" y="790"/>
			<point x="33" y="728"/>
			<point x="33" y="595" type="curve" smooth="yes"/>
		</contour>
		<contour>
			<point x="198" y="175" type="curve" smooth="yes"/>
			<point x="198" y="291" type="line" smooth="yes"/>
			<point x="198" y="325"/>
			<point x="209" y="341"/>
			<point x="233" y="341" type="curve" smooth="yes"/>
			<point x="254" y="341"/>
			<point x="264" y="328"/>
			<point x="264" y="301" type="curve" smooth="yes"/>
			<point x="264" y="180" type="line" smooth="yes"/>
			<point x="264" y="146"/>
			<point x="253" y="130"/>
			<point x="231" y="130" type="curve" smooth="yes"/>
			<point x="209" y="130"/>
			<point x="198" y="144"/>
		</contour>
	</outline>
</glyph>
<glyph name="seven" format="1">
  <advance width="402"/>
  <unicode hex="0037"/>
  <outline>
    <contour>
      <point x="17" y="650" type="line"/>
      <point x="255" y="650" type="line"/>
      <point x="255" y="646" type="line"/>
      <point x="151" y="478"/>
      <point x="90" y="239"/>
      <point x="90" y="0" type="curve"/>
      <point x="264" y="0" type="line"/>
      <point x="264" y="225"/>
      <point x="310" y="467"/>
      <point x="387" y="650" type="curve"/>
      <point x="387" y="780" type="line"/>
      <point x="17" y="780" type="line"/>
    </contour>
  </outline>
</glyph>
<glyph name="eight" format="1">
  <advance width="482"/>
  <unicode hex="0038"/>
  <outline>
    <contour>
      <point x="33" y="185" type="line" smooth="yes"/>
      <point x="33" y="62"/>
      <point x="111" y="-10"/>
      <point x="242" y="-10" type="curve" smooth="yes"/>
      <point x="372" y="-10"/>
      <point x="449" y="62"/>
      <point x="449" y="185" type="curve" smooth="yes"/>
      <point x="449" y="285" type="line" smooth="yes"/>
      <point x="449" y="345"/>
      <point x="418" y="393"/>
      <point x="366" y="414" type="curve"/>
      <point x="366" y="418" type="line"/>
      <point x="412" y="438"/>
      <point x="439" y="481"/>
      <point x="439" y="535" type="curve" smooth="yes"/>
      <point x="439" y="594" type="line" smooth="yes"/>
      <point x="439" y="717"/>
      <point x="366" y="790"/>
      <point x="242" y="790" type="curve" smooth="yes"/>
      <point x="117" y="790"/>
      <point x="43" y="717"/>
      <point x="43" y="594" type="curve" smooth="yes"/>
      <point x="43" y="535" type="line" smooth="yes"/>
      <point x="43" y="481"/>
      <point x="70" y="438"/>
      <point x="116" y="418" type="curve"/>
      <point x="116" y="414" type="line"/>
      <point x="64" y="393"/>
      <point x="33" y="345"/>
      <point x="33" y="285" type="curve" smooth="yes"/>
    </contour>
    <contour>
      <point x="198" y="190" type="curve" smooth="yes"/>
      <point x="198" y="300" type="line" smooth="yes"/>
      <point x="198" y="331"/>
      <point x="214" y="350"/>
      <point x="241" y="350" type="curve" smooth="yes"/>
      <point x="268" y="350"/>
      <point x="284" y="331"/>
      <point x="284" y="300" type="curve" smooth="yes"/>
      <point x="284" y="190" type="line" smooth="yes"/>
      <point x="284" y="152"/>
      <point x="268" y="130"/>
      <point x="240" y="130" type="curve" smooth="yes"/>
      <point x="214" y="130"/>
      <point x="198" y="152"/>
    </contour>
    <contour>
      <point x="203" y="520" type="curve" smooth="yes"/>
      <point x="203" y="595" type="line" smooth="yes"/>
      <point x="203" y="630"/>
      <point x="217" y="650"/>
      <point x="241" y="650" type="curve" smooth="yes"/>
      <point x="265" y="650"/>
      <point x="279" y="630"/>
      <point x="279" y="595" type="curve" smooth="yes"/>
      <point x="279" y="520" type="line" smooth="yes"/>
      <point x="279" y="489"/>
      <point x="265" y="470"/>
      <point x="241" y="470" type="curve" smooth="yes"/>
      <point x="217" y="470"/>
      <point x="203" y="489"/>
    </contour>
  </outline>
</glyph>
<glyph name="question" format="1">
  <advance width="430"/>
  <unicode hex="003F"/>
  <outline>
    <contour>
      <point x="22" y="575" type="line"/>
      <point x="172" y="575" type="line"/>
      <point x="172" y="635" type="line" smooth="yes"/>
      <point x="172" y="679"/>
      <point x="186" y="700"/>
      <point x="215" y="700" type="curve" smooth="yes"/>
      <point x="244" y="700"/>
      <point x="258" y="675"/>
      <point x="258" y="624" type="curve" smooth="yes"/>
      <point x="258" y="607"/>
      <point x="256" y="590"/>
      <point x="251" y="574" type="curve" smooth="yes"/>
      <point x="246" y="557"/>
      <point x="238" y="541"/>
      <point x="228" y="524" type="curve" smooth="yes"/>
      <point x="202" y="482" type="line" smooth="yes"/>
      <point x="184" y="452"/>
      <point x="167" y="420"/>
      <point x="158" y="391" type="curve" smooth="yes"/>
      <point x="149" y="366"/>
      <point x="145" y="342"/>
      <point x="145" y="320" type="curve" smooth="yes"/>
      <point x="145" y="230" type="line"/>
      <point x="285" y="230" type="line"/>
      <point x="285" y="290" type="line" smooth="yes"/>
      <point x="285" y="308"/>
      <point x="289" y="328"/>
      <point x="296" y="349" type="curve" smooth="yes"/>
      <point x="305" y="374"/>
      <point x="318" y="400"/>
      <point x="336" y="429" type="curve" smooth="yes"/>
      <point x="362" y="471" type="line" smooth="yes"/>
      <point x="378" y="497"/>
      <point x="390" y="522"/>
      <point x="397" y="549" type="curve" smooth="yes"/>
      <point x="404" y="573"/>
      <point x="408" y="598"/>
      <point x="408" y="624" type="curve" smooth="yes"/>
      <point x="408" y="749"/>
      <point x="345" y="810"/>
      <point x="216" y="810" type="curve" smooth="yes"/>
      <point x="86" y="810"/>
      <point x="22" y="748"/>
      <point x="22" y="620" type="curve" smooth="yes"/>
    </contour>
    <component base="period" xOffset="90"/>
  </outline>
</glyph>
<glyph name="at" format="1">
  <advance width="864"/>
  <unicode hex="0040"/>
  <outline>
    <contour>
      <point x="490" y="494" type="line"/>
      <point x="470" y="566"/>
      <point x="433" y="600"/>
      <point x="375" y="600" type="curve" smooth="yes"/>
      <point x="289" y="600"/>
      <point x="249" y="552"/>
      <point x="249" y="450" type="curve" smooth="yes"/>
      <point x="249" y="270" type="line" smooth="yes"/>
      <point x="249" y="168"/>
      <point x="289" y="120"/>
      <point x="375" y="120" type="curve" smooth="yes"/>
      <point x="447" y="120"/>
      <point x="490" y="154"/>
      <point x="510" y="226" type="curve"/>
      <point x="510" y="328" type="line"/>
      <point x="465" y="328" type="line"/>
      <point x="465" y="285" type="line" smooth="yes"/>
      <point x="465" y="254"/>
      <point x="454" y="240"/>
      <point x="430" y="240" type="curve" smooth="yes"/>
      <point x="409" y="240"/>
      <point x="399" y="251"/>
      <point x="399" y="275" type="curve" smooth="yes"/>
      <point x="399" y="435" type="line" smooth="yes"/>
      <point x="399" y="466"/>
      <point x="410" y="480"/>
      <point x="434" y="480" type="curve" smooth="yes"/>
      <point x="455" y="480"/>
      <point x="465" y="469"/>
      <point x="465" y="445" type="curve"/>
      <point x="490" y="445" type="line"/>
    </contour>
    <contour>
      <point x="33" y="316" type="line" smooth="yes"/>
      <point x="33" y="54"/>
      <point x="171" y="-70"/>
      <point x="463" y="-70" type="curve" smooth="yes"/>
      <point x="538" y="-70"/>
      <point x="602" y="-61"/>
      <point x="664" y="-41" type="curve"/>
      <point x="664" y="63" type="line"/>
      <point x="659" y="66" type="line"/>
      <point x="602" y="48"/>
      <point x="540" y="40"/>
      <point x="464" y="40" type="curve" smooth="yes"/>
      <point x="273" y="40"/>
      <point x="183" y="122"/>
      <point x="183" y="295" type="curve" smooth="yes"/>
      <point x="183" y="450" type="line" smooth="yes"/>
      <point x="183" y="606"/>
      <point x="263" y="680"/>
      <point x="432" y="680" type="curve" smooth="yes"/>
      <point x="601" y="680"/>
      <point x="681" y="608"/>
      <point x="681" y="455" type="curve" smooth="yes"/>
      <point x="681" y="280" type="line" smooth="yes"/>
      <point x="681" y="239"/>
      <point x="670" y="220"/>
      <point x="648" y="220" type="curve" smooth="yes"/>
      <point x="626" y="220"/>
      <point x="615" y="234"/>
      <point x="615" y="265" type="curve" smooth="yes"/>
      <point x="615" y="590" type="line"/>
      <point x="485" y="590" type="line"/>
      <point x="465" y="510" type="line"/>
      <point x="465" y="296" type="line" smooth="yes"/>
      <point x="465" y="176"/>
      <point x="523" y="120"/>
      <point x="647" y="120" type="curve" smooth="yes"/>
      <point x="772" y="120"/>
      <point x="831" y="182"/>
      <point x="831" y="315" type="curve" smooth="yes"/>
      <point x="831" y="434" type="line" smooth="yes"/>
      <point x="831" y="676"/>
      <point x="704" y="790"/>
      <point x="433" y="790" type="curve" smooth="yes"/>
      <point x="161" y="790"/>
      <point x="33" y="676"/>
      <point x="33" y="435" type="curve" smooth="yes"/>
    </contour>
  </outline>
</glyph>
<glyph name="A" format="1">
  <advance width="460"/>
  <unicode hex="0041"/>
  <outline>
    <contour>
      <point x="445" y="0" type="line"/>
      <point x="344" y="800" type="line"/>
      <point x="104" y="800" type="line"/>
      <point x="17" y="0" type="line"/>
      <point x="182" y="0" type="line"/>
      <point x="219" y="600" type="line"/>
      <point x="221" y="690" type="line"/>
      <point x="227" y="690" type="line"/>
      <point x="229" y="600" type="line"/>
      <point x="270" y="0" type="line"/>
    </contour>
    <contour>
      <point x="67" y="240" type="line"/>
      <point x="67" y="100" type="line"/>
      <point x="392" y="100" type="line"/>
      <point x="392" y="240" type="line"/>
    </contour>
    <contour>
      <point x="231" y="0" type="move" name="bottom"/>
    </contour>
    <contour>
      <point x="445" y="10" type="move" name="ogonek"/>
    </contour>
    <contour>
      <point x="231" y="800" type="move" name="top"/>
    </contour>
  </outline>
</glyph>
<glyph name="B" format="2">
	<advance width="490"/>
	<unicode hex="0042"/>
	<outline>
		<contour>
			<point x="43" y="0" type="line"/>
			<point x="238" y="0" type="line" smooth="yes"/>
			<point x="382" y="0"/>
			<point x="450" y="56"/>
			<point x="450" y="176" type="curve" smooth="yes"/>
			<point x="450" y="295" type="line" smooth="yes"/>
			<point x="450" y="362"/>
			<point x="420" y="409"/>
			<point x="369" y="422" type="curve"/>
			<point x="369" y="428" type="line"/>
			<point x="410" y="437"/>
			<point x="435" y="469"/>
			<point x="435" y="515" type="curve" smooth="yes"/>
			<point x="435" y="624" type="line" smooth="yes"/>
			<point x="435" y="744"/>
			<point x="372" y="800"/>
			<point x="238" y="800" type="curve" smooth="yes"/>
			<point x="43" y="800" type="line"/>
		</contour>
		<contour>
			<point x="208" y="140" type="line"/>
			<point x="208" y="340" type="line"/>
			<point x="247" y="340" type="line" smooth="yes"/>
			<point x="273" y="340"/>
			<point x="285" y="327"/>
			<point x="285" y="300" type="curve" smooth="yes"/>
			<point x="285" y="175" type="line" smooth="yes"/>
			<point x="285" y="151"/>
			<point x="273" y="140"/>
			<point x="247" y="140" type="curve" smooth="yes"/>
		</contour>
		<contour>
			<point x="208" y="470" type="line"/>
			<point x="208" y="660" type="line"/>
			<point x="247" y="660" type="line" smooth="yes"/>
			<point x="269" y="660"/>
			<point x="280" y="649"/>
			<point x="280" y="625" type="curve" smooth="yes"/>
			<point x="280" y="510" type="line" smooth="yes"/>
			<point x="280" y="483"/>
			<point x="269" y="470"/>
			<point x="247" y="470" type="curve" smooth="yes"/>
		</contour>
	</outline>
</glyph>
<glyph name="C" format="1">
  <advance width="451"/>
  <unicode hex="0043"/>
  <outline>
    <contour>
      <point x="429" y="280" type="line"/>
      <point x="264" y="280" type="line"/>
      <point x="264" y="170" type="line" smooth="yes"/>
      <point x="264" y="143"/>
      <point x="253" y="130"/>
      <point x="231" y="130" type="curve" smooth="yes"/>
      <point x="209" y="130"/>
      <point x="198" y="141"/>
      <point x="198" y="165" type="curve" smooth="yes"/>
      <point x="198" y="630" type="line" smooth="yes"/>
      <point x="198" y="657"/>
      <point x="209" y="670"/>
      <point x="231" y="670" type="curve" smooth="yes"/>
      <point x="253" y="670"/>
      <point x="264" y="659"/>
      <point x="264" y="635" type="curve" smooth="yes"/>
      <point x="264" y="524" type="line"/>
      <point x="429" y="524" type="line"/>
      <point x="429" y="634" type="line" smooth="yes"/>
      <point x="429" y="754"/>
      <point x="366" y="810"/>
      <point x="232" y="810" type="curve" smooth="yes"/>
      <point x="97" y="810"/>
      <point x="33" y="754"/>
      <point x="33" y="635" type="curve" smooth="yes"/>
      <point x="33" y="166" type="line" smooth="yes"/>
      <point x="33" y="46"/>
      <point x="96" y="-10"/>
      <point x="230" y="-10" type="curve" smooth="yes"/>
      <point x="365" y="-10"/>
      <point x="429" y="46"/>
      <point x="429" y="165" type="curve" smooth="yes"/>
    </contour>
    <contour>
      <point x="231" y="0" type="move" name="bottom"/>
    </contour>
    <contour>
      <point x="231" y="800" type="move" name="top"/>
    </contour>
  </outline>
</glyph>
<glyph name="D" format="1">
  <advance width="478"/>
  <unicode hex="0044"/>
  <outline>
    <contour>
      <point x="43" y="0" type="line"/>
      <point x="246" y="0" type="line" smooth="yes"/>
      <point x="381" y="0"/>
      <point x="445" y="56"/>
      <point x="445" y="175" type="curve" smooth="yes"/>
      <point x="445" y="624" type="line" smooth="yes"/>
      <point x="445" y="744"/>
      <point x="382" y="800"/>
      <point x="248" y="800" type="curve" smooth="yes"/>
      <point x="43" y="800" type="line"/>
    </contour>
    <contour>
      <point x="208" y="140" type="line"/>
      <point x="208" y="660" type="line"/>
      <point x="247" y="660" type="line" smooth="yes"/>
      <point x="269" y="660"/>
      <point x="280" y="649"/>
      <point x="280" y="625" type="curve" smooth="yes"/>
      <point x="280" y="180" type="line" smooth="yes"/>
      <point x="280" y="153"/>
      <point x="269" y="140"/>
      <point x="247" y="140" type="curve" smooth="yes"/>
    </contour>
    <contour>
      <point x="244" y="0" type="move" name="bottom"/>
    </contour>
    <contour>
      <point x="244" y="400" type="move" name="center"/>
    </contour>
    <contour>
      <point x="244" y="800" type="move" name="top"/>
    </contour>
  </outline>
</glyph>
<glyph name="E" format="1">
  <advance width="410"/>
  <unicode hex="0045"/>
  <outline>
    <contour>
      <point x="43" y="0" type="line"/>
      <point x="388" y="0" type="line"/>
      <point x="388" y="140" type="line"/>
      <point x="208" y="140" type="line"/>
      <point x="208" y="370" type="line"/>
      <point x="338" y="370" type="line"/>
      <point x="338" y="510" type="line"/>
      <point x="208" y="510" type="line"/>
      <point x="208" y="660" type="line"/>
      <point x="368" y="660" type="line"/>
      <point x="368" y="800" type="line"/>
      <point x="43" y="800" type="line"/>
    </contour>
    <contour>
      <point x="216" y="0" type="move" name="bottom"/>
    </contour>
    <contour>
      <point x="388" y="10" type="move" name="ogonek"/>
    </contour>
    <contour>
      <point x="216" y="800" type="move" name="top"/>
    </contour>
    <contour>
      <point x="28" y="800" type="move" name="topleft"/>
    </contour>
  </outline>
</glyph>
<glyph name="F" format="1">
  <advance width="390"/>
  <unicode hex="0046"/>
  <outline>
    <contour>
      <point x="43" y="0" type="line"/>
      <point x="208" y="0" type="line"/>
      <point x="208" y="370" type="line"/>
      <point x="338" y="370" type="line"/>
      <point x="338" y="510" type="line"/>
      <point x="208" y="510" type="line"/>
      <point x="208" y="660" type="line"/>
      <point x="368" y="660" type="line"/>
      <point x="368" y="800" type="line"/>
      <point x="43" y="800" type="line"/>
    </contour>
  </outline>
</glyph>
<glyph name="G" format="2">
	<advance width="462"/>
	<unicode hex="0047"/>
	<anchor x="231" y="800" name="top"/>
	<anchor x="231" y="0" name="bottom"/>
	<outline>
		<contour>
			<point x="429" y="420" type="line"/>
			<point x="224" y="420" type="line"/>
			<point x="224" y="300" type="line"/>
			<point x="264" y="300" type="line"/>
			<point x="264" y="170" type="line" smooth="yes"/>
			<point x="264" y="143"/>
			<point x="253" y="130"/>
			<point x="231" y="130" type="curve" smooth="yes"/>
			<point x="209" y="130"/>
			<point x="198" y="141"/>
			<point x="198" y="165" type="curve" smooth="yes"/>
			<point x="198" y="630" type="line" smooth="yes"/>
			<point x="198" y="657"/>
			<point x="209" y="670"/>
			<point x="231" y="670" type="curve" smooth="yes"/>
			<point x="253" y="670"/>
			<point x="264" y="659"/>
			<point x="264" y="635" type="curve" smooth="yes"/>
			<point x="264" y="524" type="line"/>
			<point x="429" y="524" type="line"/>
			<point x="429" y="634" type="line" smooth="yes"/>
			<point x="429" y="754"/>
			<point x="366" y="810"/>
			<point x="232" y="810" type="curve" smooth="yes"/>
			<point x="97" y="810"/>
			<point x="33" y="754"/>
			<point x="33" y="635" type="curve" smooth="yes"/>
			<point x="33" y="166" type="line" smooth="yes"/>
			<point x="33" y="46"/>
			<point x="96" y="-10"/>
			<point x="230" y="-10" type="curve" smooth="yes"/>
			<point x="365" y="-10"/>
			<point x="429" y="46"/>
			<point x="429" y="165" type="curve" smooth="yes"/>
		</contour>
	</outline>
</glyph>
<glyph name="H" format="2">
	<advance width="486"/>
	<unicode hex="0048"/>
	<outline>
		<contour>
			<point x="43" y="0" type="line"/>
			<point x="208" y="0" type="line"/>
			<point x="208" y="350" type="line"/>
			<point x="278" y="350" type="line"/>
			<point x="278" y="0" type="line"/>
			<point x="443" y="0" type="line"/>
			<point x="443" y="800" type="line"/>
			<point x="278" y="800" type="line"/>
			<point x="278" y="490" type="line"/>
			<point x="208" y="490" type="line"/>
			<point x="208" y="800" type="line"/>
			<point x="43" y="800" type="line"/>
		</contour>
	</outline>
</glyph>
<glyph name="I" format="2">
	<advance width="251"/>
	<unicode hex="0049"/>
	<anchor x="208" y="10" name="ogonek"/>
	<anchor x="126" y="800" name="top"/>
	<anchor x="28" y="800" name="topleft"/>
	<anchor x="126" y="0" name="bottom"/>
	<outline>
		<contour>
			<point x="208" y="800" type="line"/>
			<point x="43" y="800" type="line"/>
			<point x="43" y="0" type="line"/>
			<point x="208" y="0" type="line"/>
		</contour>
	</outline>
</glyph>
<glyph name="J" format="1">
  <advance width="456"/>
  <unicode hex="004A"/>
  <outline>
    <contour>
      <point x="413" y="800" type="line"/>
      <point x="248" y="800" type="line"/>
      <point x="248" y="170" type="line" smooth="yes"/>
      <point x="248" y="143"/>
      <point x="237" y="130"/>
      <point x="215" y="130" type="curve" smooth="yes"/>
      <point x="193" y="130"/>
      <point x="182" y="141"/>
      <point x="182" y="165" type="curve" smooth="yes"/>
      <point x="182" y="326" type="line"/>
      <point x="17" y="326" type="line"/>
      <point x="17" y="166" type="line" smooth="yes"/>
      <point x="17" y="46"/>
      <point x="80" y="-10"/>
      <point x="214" y="-10" type="curve" smooth="yes"/>
      <point x="349" y="-10"/>
      <point x="413" y="46"/>
      <point x="413" y="165" type="curve" smooth="yes"/>
    </contour>
  </outline>
</glyph>
<glyph name="K" format="2">
	<advance width="510"/>
	<unicode hex="004B"/>
	<anchor x="287" y="800" name="top"/>
	<anchor x="287" y="0" name="bottom"/>
	<outline>
		<contour>
			<point x="43" y="0" type="line"/>
			<point x="208" y="0" type="line"/>
			<point x="208" y="305" type="line"/>
			<point x="231" y="384" type="line"/>
			<point x="237" y="384" type="line"/>
			<point x="324" y="0" type="line"/>
			<point x="495" y="0" type="line"/>
			<point x="364" y="502" type="line"/>
			<point x="490" y="800" type="line"/>
			<point x="323" y="800" type="line"/>
			<point x="227" y="549" type="line"/>
			<point x="206" y="459" type="line"/>
			<point x="200" y="459" type="line"/>
			<point x="208" y="547.993" type="line"/>
			<point x="208" y="800" type="line"/>
			<point x="43" y="800" type="line"/>
		</contour>
	</outline>
</glyph>
<glyph name="L" format="1">
  <advance width="393"/>
  <unicode hex="004C"/>
  <outline>
    <contour>
      <point x="378" y="0" type="line"/>
      <point x="378" y="140" type="line"/>
      <point x="208" y="140" type="line"/>
      <point x="208" y="800" type="line"/>
      <point x="43" y="800" type="line"/>
      <point x="43" y="0" type="line"/>
    </contour>
    <contour>
      <point x="198" y="0" type="move" name="bottom"/>
    </contour>
    <contour>
      <point x="198" y="400" type="move" name="center"/>
    </contour>
    <contour>
      <point x="148" y="800" type="move" name="top"/>
    </contour>
    <contour>
      <point x="258" y="820" type="move" name="topright"/>
    </contour>
  </outline>
</glyph>
<glyph name="M" format="2">
	<advance width="712"/>
	<unicode hex="004D"/>
	<guideline x="338" y="454" angle="0"/>
	<guideline x="356" y="673" angle="0"/>
	<outline>
		<contour>
			<point x="669" y="0" type="line"/>
			<point x="669" y="800" type="line"/>
			<point x="409" y="800" type="line"/>
			<point x="357" y="274" type="line"/>
			<point x="352" y="120" type="line"/>
			<point x="346" y="120" type="line"/>
			<point x="341" y="274" type="line"/>
			<point x="289" y="800" type="line"/>
			<point x="43" y="800" type="line"/>
			<point x="43" y="0" type="line"/>
			<point x="178" y="0" type="line"/>
			<point x="178" y="526" type="line"/>
			<point x="176" y="680" type="line"/>
			<point x="182" y="680" type="line"/>
			<point x="191" y="526" type="line"/>
			<point x="248" y="0" type="line"/>
			<point x="445" y="0" type="line"/>
			<point x="501" y="526" type="line"/>
			<point x="510" y="680" type="line"/>
			<point x="516" y="680" type="line"/>
			<point x="514" y="526" type="line"/>
			<point x="514" y="0" type="line"/>
		</contour>
	</outline>
</glyph>
<glyph name="N" format="1">
  <advance width="506"/>
  <unicode hex="004E"/>
  <outline>
    <contour>
      <point x="43" y="800" type="line"/>
      <point x="43" y="0" type="line"/>
      <point x="183" y="0" type="line"/>
      <point x="183" y="400" type="line"/>
      <point x="169" y="546" type="line"/>
      <point x="175" y="546" type="line"/>
      <point x="197" y="400" type="line"/>
      <point x="292" y="0" type="line"/>
      <point x="463" y="0" type="line"/>
      <point x="463" y="800" type="line"/>
      <point x="323" y="800" type="line"/>
      <point x="323" y="400" type="line"/>
      <point x="337" y="254" type="line"/>
      <point x="333" y="254" type="line"/>
      <point x="308" y="400" type="line"/>
      <point x="214" y="800" type="line"/>
    </contour>
    <contour>
      <point x="248" y="0" type="move" name="bottom"/>
    </contour>
    <contour>
      <point x="248" y="800" type="move" name="top"/>
    </contour>
  </outline>
</glyph>
<glyph name="O" format="2">
	<advance width="462"/>
	<unicode hex="004F"/>
	<anchor x="231" y="400" name="center"/>
	<anchor x="421" y="10" name="ogonek"/>
	<anchor x="231" y="800" name="top"/>
	<anchor x="449" y="800" name="topright"/>
	<anchor x="13" y="800" name="topleft"/>
	<anchor x="231" y="0" name="bottom"/>
	<outline>
		<contour>
			<point x="33" y="166" type="line" smooth="yes"/>
			<point x="33" y="46"/>
			<point x="96" y="-10"/>
			<point x="230" y="-10" type="curve" smooth="yes"/>
			<point x="365" y="-10"/>
			<point x="429" y="46"/>
			<point x="429" y="165" type="curve" smooth="yes"/>
			<point x="429" y="634" type="line" smooth="yes"/>
			<point x="429" y="754"/>
			<point x="366" y="810"/>
			<point x="232" y="810" type="curve" smooth="yes"/>
			<point x="97" y="810"/>
			<point x="33" y="754"/>
			<point x="33" y="635" type="curve" smooth="yes"/>
		</contour>
		<contour>
			<point x="198" y="165" type="curve" smooth="yes"/>
			<point x="198" y="630" type="line" smooth="yes"/>
			<point x="198" y="657"/>
			<point x="209" y="670"/>
			<point x="231" y="670" type="curve" smooth="yes"/>
			<point x="253" y="670"/>
			<point x="264" y="659"/>
			<point x="264" y="635" type="curve" smooth="yes"/>
			<point x="264" y="170" type="line" smooth="yes"/>
			<point x="264" y="143"/>
			<point x="253" y="130"/>
			<point x="231" y="130" type="curve" smooth="yes"/>
			<point x="209" y="130"/>
			<point x="198" y="141"/>
		</contour>
	</outline>
</glyph>
<glyph name="P" format="2">
	<advance width="457"/>
	<unicode hex="0050"/>
	<outline>
		<contour>
			<point x="43" y="0" type="line"/>
			<point x="208" y="0" type="line"/>
			<point x="208" y="300" type="line"/>
			<point x="236" y="300" type="line" smooth="yes"/>
			<point x="371" y="300"/>
			<point x="435" y="356"/>
			<point x="435" y="475" type="curve" smooth="yes"/>
			<point x="435" y="624" type="line" smooth="yes"/>
			<point x="435" y="744"/>
			<point x="372" y="800"/>
			<point x="238" y="800" type="curve" smooth="yes"/>
			<point x="43" y="800" type="line"/>
		</contour>
		<contour>
			<point x="208" y="440" type="line"/>
			<point x="208" y="660" type="line"/>
			<point x="237" y="660" type="line" smooth="yes"/>
			<point x="259" y="660"/>
			<point x="270" y="649"/>
			<point x="270" y="625" type="curve" smooth="yes"/>
			<point x="270" y="480" type="line" smooth="yes"/>
			<point x="270" y="453"/>
			<point x="259" y="440"/>
			<point x="237" y="440" type="curve" smooth="yes"/>
		</contour>
	</outline>
</glyph>
<glyph name="Q" format="2">
	<advance width="462"/>
	<unicode hex="0051"/>
	<outline>
		<contour>
			<point x="33" y="166" type="line" smooth="yes"/>
			<point x="33" y="48"/>
			<point x="98" y="-10"/>
			<point x="230" y="-10" type="curve" smooth="yes"/>
			<point x="364" y="-10"/>
			<point x="429" y="47"/>
			<point x="429" y="165" type="curve" smooth="yes"/>
			<point x="429" y="634" type="line" smooth="yes"/>
			<point x="429" y="752"/>
			<point x="364" y="810"/>
			<point x="232" y="810" type="curve" smooth="yes"/>
			<point x="98" y="810"/>
			<point x="33" y="753"/>
			<point x="33" y="635" type="curve" smooth="yes"/>
		</contour>
		<contour>
			<point x="198" y="165" type="curve" smooth="yes"/>
			<point x="198" y="630" type="line" smooth="yes"/>
			<point x="198" y="657"/>
			<point x="209" y="670"/>
			<point x="231" y="670" type="curve" smooth="yes"/>
			<point x="253" y="670"/>
			<point x="264" y="659"/>
			<point x="264" y="635" type="curve" smooth="yes"/>
			<point x="264" y="170" type="line" smooth="yes"/>
			<point x="264" y="143"/>
			<point x="253" y="130"/>
			<point x="231" y="130" type="curve" smooth="yes"/>
			<point x="209" y="130"/>
			<point x="198" y="141"/>
		</contour>
		<contour>
			<point x="262" y="24" type="line"/>
			<point x="262" y="4" type="line" smooth="yes"/>
			<point x="262" y="-84"/>
			<point x="309" y="-136"/>
			<point x="388" y="-136" type="curve" smooth="yes"/>
			<point x="403" y="-136"/>
			<point x="417" y="-134"/>
			<point x="424" y="-131" type="curve"/>
			<point x="424" y="-11" type="line"/>
			<point x="414" y="-14"/>
			<point x="400" y="-16"/>
			<point x="387" y="-16" type="curve" smooth="yes"/>
			<point x="356" y="-16"/>
			<point x="337" y="-3"/>
			<point x="337" y="19" type="curve" smooth="yes"/>
			<point x="337" y="24" type="line"/>
		</contour>
	</outline>
</glyph>
<glyph name="R" format="1">
  <advance width="488"/>
  <unicode hex="0052"/>
  <outline>
    <contour>
      <point x="43" y="0" type="line"/>
      <point x="208" y="0" type="line"/>
      <point x="208" y="340" type="line"/>
      <point x="245" y="340" type="line"/>
      <point x="303" y="0" type="line"/>
      <point x="473" y="0" type="line"/>
      <point x="413" y="309" type="line" smooth="yes"/>
      <point x="405" y="352"/>
      <point x="375" y="384"/>
      <point x="335" y="395" type="curve"/>
      <point x="335" y="399" type="line"/>
      <point x="398" y="417"/>
      <point x="435" y="471"/>
      <point x="435" y="545" type="curve" smooth="yes"/>
      <point x="435" y="624" type="line" smooth="yes"/>
      <point x="435" y="744"/>
      <point x="372" y="800"/>
      <point x="238" y="800" type="curve" smooth="yes"/>
      <point x="43" y="800" type="line"/>
    </contour>
    <contour>
      <point x="208" y="470" type="line"/>
      <point x="208" y="660" type="line"/>
      <point x="237" y="660" type="line" smooth="yes"/>
      <point x="259" y="660"/>
      <point x="270" y="649"/>
      <point x="270" y="625" type="curve" smooth="yes"/>
      <point x="270" y="510" type="line" smooth="yes"/>
      <point x="270" y="483"/>
      <point x="259" y="470"/>
      <point x="237" y="470" type="curve" smooth="yes"/>
    </contour>
    <contour>
      <point x="261" y="0" type="move" name="bottom"/>
    </contour>
    <contour>
      <point x="221" y="800" type="move" name="top"/>
    </contour>
  </outline>
</glyph>
<glyph name="S" format="1">
  <advance width="456"/>
  <unicode hex="0053"/>
  <outline>
    <contour>
      <point x="22" y="265" type="line"/>
      <point x="22" y="195" type="line" smooth="yes"/>
      <point x="22" y="57"/>
      <point x="89" y="-10"/>
      <point x="225" y="-10" type="curve" smooth="yes"/>
      <point x="365" y="-10"/>
      <point x="434" y="54"/>
      <point x="434" y="186" type="curve" smooth="yes"/>
      <point x="434" y="226"/>
      <point x="424" y="267"/>
      <point x="405" y="310" type="curve" smooth="yes"/>
      <point x="383" y="358"/>
      <point x="354" y="401"/>
      <point x="317" y="440" type="curve" smooth="yes"/>
      <point x="254" y="506" type="line" smooth="yes"/>
      <point x="235" y="525"/>
      <point x="221" y="545"/>
      <point x="211" y="567" type="curve" smooth="yes"/>
      <point x="202" y="587"/>
      <point x="197" y="605"/>
      <point x="197" y="623" type="curve" smooth="yes"/>
      <point x="197" y="637" type="line" smooth="yes"/>
      <point x="197" y="666"/>
      <point x="209" y="680"/>
      <point x="233" y="680" type="curve" smooth="yes"/>
      <point x="254" y="680"/>
      <point x="264" y="663"/>
      <point x="264" y="627" type="curve" smooth="yes"/>
      <point x="264" y="556" type="line"/>
      <point x="414" y="556" type="line"/>
      <point x="414" y="609" type="line" smooth="yes"/>
      <point x="414" y="744"/>
      <point x="353" y="810"/>
      <point x="229" y="810" type="curve" smooth="yes"/>
      <point x="93" y="810"/>
      <point x="27" y="746"/>
      <point x="27" y="615" type="curve" smooth="yes"/>
      <point x="27" y="578"/>
      <point x="37" y="541"/>
      <point x="56" y="501" type="curve" smooth="yes"/>
      <point x="78" y="456"/>
      <point x="107" y="415"/>
      <point x="144" y="377" type="curve" smooth="yes"/>
      <point x="207" y="311" type="line" smooth="yes"/>
      <point x="226" y="291"/>
      <point x="241" y="270"/>
      <point x="252" y="246" type="curve" smooth="yes"/>
      <point x="260" y="229"/>
      <point x="264" y="212"/>
      <point x="264" y="194" type="curve" smooth="yes"/>
      <point x="264" y="177" type="line" smooth="yes"/>
      <point x="264" y="139"/>
      <point x="251" y="120"/>
      <point x="223" y="120" type="curve" smooth="yes"/>
      <point x="195" y="120"/>
      <point x="182" y="137"/>
      <point x="182" y="172" type="curve" smooth="yes"/>
      <point x="182" y="265" type="line"/>
    </contour>
    <contour>
      <point x="228" y="0" type="move" name="bottom"/>
    </contour>
    <contour>
      <point x="228" y="800" type="move" name="top"/>
    </contour>
  </outline>
</glyph>
<glyph name="T" format="1">
  <advance width="417"/>
  <unicode hex="0054"/>
  <outline>
    <contour>
      <point x="17" y="800" type="line"/>
      <point x="17" y="660" type="line"/>
      <point x="127" y="660" type="line"/>
      <point x="127" y="0" type="line"/>
      <point x="292" y="0" type="line"/>
      <point x="292" y="660" type="line"/>
      <point x="402" y="660" type="line"/>
      <point x="402" y="800" type="line"/>
    </contour>
    <contour>
      <point x="210" y="0" type="move" name="bottom"/>
    </contour>
    <contour>
      <point x="210" y="400" type="move" name="center"/>
    </contour>
    <contour>
      <point x="210" y="800" type="move" name="top"/>
    </contour>
  </outline>
</glyph>
<glyph name="U" format="2">
	<advance width="482"/>
	<unicode hex="0055"/>
	<anchor x="327" y="10" name="ogonek"/>
	<anchor x="241" y="800" name="top"/>
	<anchor x="454" y="800" name="topright"/>
	<anchor x="241" y="0" name="bottom"/>
	<outline>
		<contour>
			<point x="439" y="800" type="line"/>
			<point x="274" y="800" type="line"/>
			<point x="274" y="170" type="line" smooth="yes"/>
			<point x="274" y="143"/>
			<point x="263" y="130"/>
			<point x="241" y="130" type="curve" smooth="yes"/>
			<point x="219" y="130"/>
			<point x="208" y="141"/>
			<point x="208" y="165" type="curve" smooth="yes"/>
			<point x="208" y="800" type="line"/>
			<point x="43" y="800" type="line"/>
			<point x="43" y="166" type="line" smooth="yes"/>
			<point x="43" y="46"/>
			<point x="106" y="-10"/>
			<point x="240" y="-10" type="curve" smooth="yes"/>
			<point x="375" y="-10"/>
			<point x="439" y="46"/>
			<point x="439" y="165" type="curve" smooth="yes"/>
		</contour>
	</outline>
</glyph>
<glyph name="V" format="1">
  <advance width="460"/>
  <unicode hex="0056"/>
  <outline>
    <contour>
      <point x="17" y="800" type="line"/>
      <point x="118" y="0" type="line"/>
      <point x="348" y="0" type="line"/>
      <point x="445" y="800" type="line"/>
      <point x="280" y="800" type="line"/>
      <point x="246" y="290" type="line"/>
      <point x="240" y="110" type="line"/>
      <point x="234" y="110" type="line"/>
      <point x="228" y="290" type="line"/>
      <point x="192" y="800" type="line"/>
    </contour>
  </outline>
</glyph>
<glyph name="W" format="1">
  <advance width="710"/>
  <unicode hex="0057"/>
  <outline>
    <contour>
      <point x="17" y="800" type="line"/>
      <point x="91" y="0" type="line"/>
      <point x="301" y="0" type="line"/>
      <point x="351" y="560" type="line"/>
      <point x="352" y="690" type="line"/>
      <point x="360" y="690" type="line"/>
      <point x="361" y="560" type="line"/>
      <point x="401" y="0" type="line"/>
      <point x="631" y="0" type="line"/>
      <point x="695" y="800" type="line"/>
      <point x="530" y="800" type="line"/>
      <point x="510" y="240" type="line"/>
      <point x="508" y="110" type="line"/>
      <point x="500" y="110" type="line"/>
      <point x="500" y="240" type="line"/>
      <point x="462" y="800" type="line"/>
      <point x="255" y="800" type="line"/>
      <point x="220" y="240" type="line"/>
      <point x="219" y="110" type="line"/>
      <point x="211" y="110" type="line"/>
      <point x="210" y="240" type="line"/>
      <point x="192" y="800" type="line"/>
    </contour>
    <contour>
      <point x="366" y="0" type="move" name="bottom"/>
    </contour>
    <contour>
      <point x="366" y="800" type="move" name="top"/>
    </contour>
  </outline>
</glyph>
<glyph name="X" format="2">
	<advance width="493"/>
	<unicode hex="0058"/>
	<outline>
		<contour>
			<point x="17" y="0" type="line"/>
			<point x="177" y="0" type="line"/>
			<point x="232" y="237" type="line"/>
			<point x="238" y="357" type="line"/>
			<point x="244" y="357" type="line"/>
			<point x="250" y="237" type="line"/>
			<point x="308" y="0" type="line"/>
			<point x="478" y="0" type="line"/>
			<point x="354" y="405" type="line"/>
			<point x="456" y="800" type="line"/>
			<point x="296" y="800" type="line"/>
			<point x="257" y="573" type="line"/>
			<point x="251" y="453" type="line"/>
			<point x="245" y="453" type="line"/>
			<point x="239" y="573" type="line"/>
			<point x="191" y="800" type="line"/>
			<point x="21" y="800" type="line"/>
			<point x="131" y="405" type="line"/>
		</contour>
	</outline>
</glyph>
<glyph name="Y" format="1">
  <advance width="470"/>
  <unicode hex="0059"/>
  <outline>
    <contour>
      <point x="17" y="800" type="line"/>
      <point x="156" y="270" type="line"/>
      <point x="156" y="0" type="line"/>
      <point x="321" y="0" type="line"/>
      <point x="321" y="270" type="line"/>
      <point x="455" y="800" type="line"/>
      <point x="295" y="800" type="line"/>
      <point x="251" y="477" type="line"/>
      <point x="249" y="390" type="line"/>
      <point x="243" y="390" type="line"/>
      <point x="241" y="477" type="line"/>
      <point x="187" y="800" type="line"/>
    </contour>
    <contour>
      <point x="236" y="0" type="move" name="bottom"/>
    </contour>
    <contour>
      <point x="236" y="800" type="move" name="top"/>
    </contour>
    <contour>
      <point x="27" y="800" type="move" name="topleft"/>
    </contour>
  </outline>
</glyph>
<glyph name="Z" format="1">
  <advance width="455"/>
  <unicode hex="005A"/>
  <outline>
    <contour>
      <point x="22" y="0" type="line"/>
      <point x="433" y="0" type="line"/>
      <point x="433" y="130" type="line"/>
      <point x="192" y="130" type="line"/>
      <point x="192" y="134" type="line"/>
      <point x="208" y="154" type="line"/>
      <point x="423" y="704" type="line"/>
      <point x="423" y="800" type="line"/>
      <point x="42" y="800" type="line"/>
      <point x="42" y="670" type="line"/>
      <point x="252" y="670" type="line"/>
      <point x="252" y="666" type="line"/>
      <point x="236" y="646" type="line"/>
      <point x="22" y="96" type="line"/>
    </contour>
    <contour>
      <point x="228" y="0" type="move" name="bottom"/>
    </contour>
    <contour>
      <point x="228" y="800" type="move" name="top"/>
    </contour>
  </outline>
</glyph>
<glyph name="bracketleft" format="1">
  <advance width="289"/>
  <unicode hex="005B"/>
  <outline>
    <contour>
      <point x="22" y="-180" type="line"/>
      <point x="267" y="-180" type="line"/>
      <point x="267" y="-80" type="line"/>
      <point x="157" y="-80" type="line"/>
      <point x="157" y="720" type="line"/>
      <point x="267" y="720" type="line"/>
      <point x="267" y="820" type="line"/>
      <point x="22" y="820" type="line"/>
    </contour>
  </outline>
</glyph>
<glyph name="bracketright" format="2">
	<advance width="289"/>
	<unicode hex="005D"/>
	<outline>
		<contour>
			<point x="267" y="-180" type="line"/>
			<point x="267" y="820" type="line"/>
			<point x="22" y="820" type="line"/>
			<point x="22" y="720" type="line"/>
			<point x="132" y="720" type="line"/>
			<point x="132" y="-80" type="line"/>
			<point x="22" y="-80" type="line"/>
			<point x="22" y="-180" type="line"/>
		</contour>
	</outline>
</glyph>
<glyph name="underscore" format="1">
  <advance width="400"/>
  <unicode hex="005F"/>
  <outline>
    <contour>
      <point x="0" y="-146" type="line"/>
      <point x="400" y="-146" type="line"/>
      <point x="400" y="-36" type="line"/>
      <point x="0" y="-36" type="line"/>
    </contour>
  </outline>
</glyph>
<glyph name="a" format="1">
  <advance width="419"/>
  <unicode hex="0061"/>
  <outline>
    <contour>
      <point x="41" y="400" type="line"/>
      <point x="191" y="400" type="line"/>
      <point x="191" y="460" type="line" smooth="yes"/>
      <point x="191" y="480"/>
      <point x="198" y="490"/>
      <point x="214" y="490" type="curve" smooth="yes"/>
      <point x="230" y="490"/>
      <point x="237" y="482"/>
      <point x="237" y="465" type="curve" smooth="yes"/>
      <point x="237" y="80" type="line" smooth="yes"/>
      <point x="237" y="48"/>
      <point x="243" y="18"/>
      <point x="254" y="0" type="curve"/>
      <point x="403" y="0" type="line"/>
      <point x="405" y="4" type="line"/>
      <point x="394" y="26"/>
      <point x="387" y="59"/>
      <point x="387" y="89" type="curve" smooth="yes"/>
      <point x="387" y="424" type="line" smooth="yes"/>
      <point x="387" y="544"/>
      <point x="325" y="600"/>
      <point x="215" y="600" type="curve" smooth="yes"/>
      <point x="103" y="600"/>
      <point x="41" y="544"/>
      <point x="41" y="425" type="curve" smooth="yes"/>
    </contour>
    <contour>
      <point x="262" y="140" type="line"/>
      <point x="237" y="140" type="line"/>
      <point x="237" y="113"/>
      <point x="227" y="100"/>
      <point x="207" y="100" type="curve" smooth="yes"/>
      <point x="189" y="100"/>
      <point x="181" y="110"/>
      <point x="181" y="130" type="curve" smooth="yes"/>
      <point x="181" y="210" type="line" smooth="yes"/>
      <point x="181" y="240"/>
      <point x="194" y="263"/>
      <point x="223" y="280" type="curve" smooth="yes"/>
      <point x="267" y="306" type="line"/>
      <point x="267" y="399" type="line"/>
      <point x="143" y="339" type="line" smooth="yes"/>
      <point x="64" y="301"/>
      <point x="26" y="253"/>
      <point x="26" y="190" type="curve" smooth="yes"/>
      <point x="26" y="130" type="line" smooth="yes"/>
      <point x="26" y="35"/>
      <point x="61" y="-10"/>
      <point x="134" y="-10" type="curve" smooth="yes"/>
      <point x="194" y="-10"/>
      <point x="242" y="33"/>
      <point x="262" y="106" type="curve"/>
    </contour>
    <contour>
      <point x="205" y="0" type="move" name="bottom"/>
    </contour>
    <contour>
      <point x="403" y="10" type="move" name="ogonek"/>
    </contour>
    <contour>
      <point x="215" y="590" type="move" name="top"/>
    </contour>
  </outline>
</glyph>
<glyph name="b" format="2">
	<advance width="404"/>
	<unicode hex="0062"/>
	<outline>
		<contour>
			<point x="30" y="820" type="line"/>
			<point x="30" y="0" type="line"/>
			<point x="170" y="0" type="line"/>
			<point x="180" y="80" type="line"/>
			<point x="180" y="820" type="line"/>
		</contour>
		<contour>
			<point x="165" y="116" type="line"/>
			<point x="174" y="37"/>
			<point x="213" y="-10"/>
			<point x="270" y="-10" type="curve" smooth="yes"/>
			<point x="337" y="-10"/>
			<point x="376" y="42"/>
			<point x="376" y="130" type="curve" smooth="yes"/>
			<point x="376" y="460" type="line" smooth="yes"/>
			<point x="376" y="555"/>
			<point x="345" y="600"/>
			<point x="280" y="600" type="curve" smooth="yes"/>
			<point x="222" y="600"/>
			<point x="185" y="566"/>
			<point x="165" y="494" type="curve"/>
			<point x="165" y="445" type="line"/>
			<point x="180" y="445" type="line"/>
			<point x="180" y="469"/>
			<point x="188" y="480"/>
			<point x="205" y="480" type="curve" smooth="yes"/>
			<point x="219" y="480"/>
			<point x="226" y="472"/>
			<point x="226" y="455" type="curve" smooth="yes"/>
			<point x="226" y="145" type="line" smooth="yes"/>
			<point x="226" y="121"/>
			<point x="218" y="110"/>
			<point x="201" y="110" type="curve" smooth="yes"/>
			<point x="187" y="110"/>
			<point x="180" y="118"/>
			<point x="180" y="135" type="curve"/>
			<point x="165" y="135" type="line"/>
		</contour>
	</outline>
</glyph>
<glyph name="d" format="1">
  <advance width="404"/>
  <unicode hex="0064"/>
  <outline>
    <contour>
      <point x="372" y="820" type="line"/>
      <point x="222" y="820" type="line"/>
      <point x="222" y="80" type="line"/>
      <point x="232" y="0" type="line"/>
      <point x="372" y="0" type="line"/>
    </contour>
    <contour>
      <point x="237" y="474" type="line"/>
      <point x="228" y="553"/>
      <point x="189" y="600"/>
      <point x="132" y="600" type="curve" smooth="yes"/>
      <point x="65" y="600"/>
      <point x="26" y="548"/>
      <point x="26" y="460" type="curve" smooth="yes"/>
      <point x="26" y="130" type="line" smooth="yes"/>
      <point x="26" y="35"/>
      <point x="57" y="-10"/>
      <point x="122" y="-10" type="curve" smooth="yes"/>
      <point x="180" y="-10"/>
      <point x="217" y="24"/>
      <point x="237" y="96" type="curve"/>
      <point x="237" y="145" type="line"/>
      <point x="222" y="145" type="line"/>
      <point x="222" y="121"/>
      <point x="214" y="110"/>
      <point x="197" y="110" type="curve" smooth="yes"/>
      <point x="183" y="110"/>
      <point x="176" y="118"/>
      <point x="176" y="135" type="curve" smooth="yes"/>
      <point x="176" y="445" type="line" smooth="yes"/>
      <point x="176" y="469"/>
      <point x="184" y="480"/>
      <point x="201" y="480" type="curve" smooth="yes"/>
      <point x="215" y="480"/>
      <point x="222" y="472"/>
      <point x="222" y="455" type="curve"/>
      <point x="237" y="455" type="line"/>
    </contour>
    <contour>
      <point x="201" y="0" type="move" name="bottom"/>
    </contour>
    <contour>
      <point x="201" y="295" type="move" name="center"/>
    </contour>
    <contour>
      <point x="201" y="820" type="move" name="top"/>
    </contour>
    <contour>
      <point x="402" y="820" type="move" name="topright"/>
    </contour>
  </outline>
</glyph>
<glyph name="e" format="1">
  <advance width="400"/>
  <unicode hex="0065"/>
  <outline>
    <contour>
      <point x="372" y="205" type="line"/>
      <point x="232" y="205" type="line"/>
      <point x="232" y="130" type="line" smooth="yes"/>
      <point x="232" y="110"/>
      <point x="220" y="100"/>
      <point x="204" y="100" type="curve" smooth="yes"/>
      <point x="188" y="100"/>
      <point x="176" y="108"/>
      <point x="176" y="125" type="curve" smooth="yes"/>
      <point x="176" y="460" type="line" smooth="yes"/>
      <point x="176" y="480"/>
      <point x="183" y="490"/>
      <point x="199" y="490" type="curve" smooth="yes"/>
      <point x="215" y="490"/>
      <point x="222" y="482"/>
      <point x="222" y="465" type="curve" smooth="yes"/>
      <point x="222" y="300" type="line"/>
      <point x="296" y="374" type="line"/>
      <point x="166" y="374" type="line"/>
      <point x="166" y="274" type="line"/>
      <point x="372" y="274" type="line"/>
      <point x="372" y="424" type="line" smooth="yes"/>
      <point x="372" y="544"/>
      <point x="310" y="600"/>
      <point x="200" y="600" type="curve" smooth="yes"/>
      <point x="88" y="600"/>
      <point x="26" y="544"/>
      <point x="26" y="425" type="curve" smooth="yes"/>
      <point x="26" y="166" type="line" smooth="yes"/>
      <point x="26" y="46"/>
      <point x="88" y="-10"/>
      <point x="198" y="-10" type="curve" smooth="yes"/>
      <point x="310" y="-10"/>
      <point x="372" y="46"/>
      <point x="372" y="165" type="curve" smooth="yes"/>
    </contour>
    <contour>
      <point x="201" y="0" type="move" name="bottom"/>
    </contour>
    <contour>
      <point x="270" y="10" type="move" name="ogonek"/>
    </contour>
    <contour>
      <point x="201" y="590" type="move" name="top"/>
    </contour>
  </outline>
</glyph>
<glyph name="f" format="2">
	<advance width="284"/>
	<unicode hex="0066"/>
	<outline>
		<contour>
			<point x="62" y="0" type="line"/>
			<point x="212" y="0" type="line"/>
			<point x="212" y="682" type="line" smooth="yes"/>
			<point x="212" y="701"/>
			<point x="221" y="710"/>
			<point x="240" y="710" type="curve" smooth="yes"/>
			<point x="248" y="710"/>
			<point x="256" y="709"/>
			<point x="262" y="708" type="curve"/>
			<point x="262" y="820" type="line"/>
			<point x="233" y="823"/>
			<point x="208" y="825"/>
			<point x="184" y="825" type="curve" smooth="yes"/>
			<point x="101" y="825"/>
			<point x="62" y="786"/>
			<point x="62" y="702" type="curve" smooth="yes"/>
		</contour>
		<contour>
			<point x="12" y="590" type="line"/>
			<point x="12" y="480" type="line"/>
			<point x="262" y="480" type="line"/>
			<point x="262" y="590" type="line"/>
		</contour>
	</outline>
</glyph>
<glyph name="g" format="1">
  <advance width="404"/>
  <unicode hex="0067"/>
  <outline>
    <contour>
      <point x="26" y="-25" type="line" smooth="yes"/>
      <point x="26" y="-129"/>
      <point x="91" y="-190"/>
      <point x="200" y="-190" type="curve" smooth="yes"/>
      <point x="308" y="-190"/>
      <point x="372" y="-125"/>
      <point x="372" y="-14" type="curve" smooth="yes"/>
      <point x="372" y="590" type="line"/>
      <point x="232" y="590" type="line"/>
      <point x="222" y="510" type="line"/>
      <point x="222" y="-55" type="line" smooth="yes"/>
      <point x="222" y="-72"/>
      <point x="215" y="-80"/>
      <point x="199" y="-80" type="curve" smooth="yes"/>
      <point x="183" y="-80"/>
      <point x="176" y="-70"/>
      <point x="176" y="-50" type="curve" smooth="yes"/>
      <point x="176" y="-10" type="line"/>
      <point x="26" y="-10" type="line"/>
    </contour>
    <contour>
      <point x="237" y="474" type="line"/>
      <point x="228" y="553"/>
      <point x="189" y="600"/>
      <point x="132" y="600" type="curve" smooth="yes"/>
      <point x="65" y="600"/>
      <point x="26" y="548"/>
      <point x="26" y="460" type="curve" smooth="yes"/>
      <point x="26" y="170" type="line" smooth="yes"/>
      <point x="26" y="75"/>
      <point x="57" y="30"/>
      <point x="122" y="30" type="curve" smooth="yes"/>
      <point x="180" y="30"/>
      <point x="217" y="64"/>
      <point x="237" y="136" type="curve"/>
      <point x="237" y="185" type="line"/>
      <point x="222" y="185" type="line"/>
      <point x="222" y="161"/>
      <point x="214" y="150"/>
      <point x="197" y="150" type="curve" smooth="yes"/>
      <point x="183" y="150"/>
      <point x="176" y="158"/>
      <point x="176" y="175" type="curve" smooth="yes"/>
      <point x="176" y="445" type="line" smooth="yes"/>
      <point x="176" y="469"/>
      <point x="184" y="480"/>
      <point x="201" y="480" type="curve" smooth="yes"/>
      <point x="215" y="480"/>
      <point x="222" y="472"/>
      <point x="222" y="455" type="curve"/>
      <point x="237" y="455" type="line"/>
    </contour>
    <contour>
      <point x="201" y="-180" type="move" name="bottom"/>
    </contour>
    <contour>
      <point x="201" y="590" type="move" name="top"/>
    </contour>
  </outline>
</glyph>
<glyph name="h" format="1">
  <advance width="404"/>
  <unicode hex="0068"/>
  <outline>
    <contour>
      <point x="30" y="820" type="line"/>
      <point x="30" y="0" type="line"/>
      <point x="180" y="0" type="line"/>
      <point x="180" y="820" type="line"/>
    </contour>
    <contour>
      <point x="165" y="445" type="line"/>
      <point x="180" y="445" type="line"/>
      <point x="180" y="469"/>
      <point x="188" y="480"/>
      <point x="205" y="480" type="curve" smooth="yes"/>
      <point x="219" y="480"/>
      <point x="226" y="472"/>
      <point x="226" y="455" type="curve" smooth="yes"/>
      <point x="226" y="0" type="line"/>
      <point x="376" y="0" type="line"/>
      <point x="376" y="460" type="line" smooth="yes"/>
      <point x="376" y="555"/>
      <point x="345" y="600"/>
      <point x="280" y="600" type="curve" smooth="yes"/>
      <point x="222" y="600"/>
      <point x="185" y="566"/>
      <point x="165" y="494" type="curve"/>
    </contour>
  </outline>
</glyph>
<glyph name="k" format="2">
	<advance width="439"/>
	<unicode hex="006B"/>
	<anchor x="215" y="820" name="top"/>
	<anchor x="215" y="0" name="bottom"/>
	<outline>
		<contour>
			<point x="30" y="0" type="line"/>
			<point x="180" y="0" type="line"/>
			<point x="180" y="282" type="line"/>
			<point x="192" y="312" type="line"/>
			<point x="196" y="312" type="line"/>
			<point x="273" y="0" type="line"/>
			<point x="429" y="0" type="line"/>
			<point x="309" y="398" type="line"/>
			<point x="405" y="590" type="line"/>
			<point x="279" y="590" type="line"/>
			<point x="195" y="430" type="line"/>
			<point x="175" y="367" type="line"/>
			<point x="171" y="367" type="line"/>
			<point x="180" y="433" type="line"/>
			<point x="180" y="820" type="line"/>
			<point x="30" y="820" type="line"/>
		</contour>
	</outline>
</glyph>
<glyph name="l" format="1">
  <advance width="212"/>
  <unicode hex="006C"/>
  <outline>
    <contour>
      <point x="30" y="820" type="line"/>
      <point x="30" y="0" type="line"/>
      <point x="180" y="0" type="line"/>
      <point x="180" y="820" type="line"/>
    </contour>
    <contour>
      <point x="103" y="0" type="move" name="bottom"/>
    </contour>
    <contour>
      <point x="103" y="410" type="move" name="center"/>
    </contour>
    <contour>
      <point x="103" y="820" type="move" name="top"/>
    </contour>
    <contour>
      <point x="211" y="820" type="move" name="topright"/>
    </contour>
  </outline>
</glyph>
<glyph name="m" format="1">
  <advance width="600"/>
  <unicode hex="006D"/>
  <outline>
    <contour>
      <point x="30" y="590" type="line"/>
      <point x="30" y="0" type="line"/>
      <point x="180" y="0" type="line"/>
      <point x="180" y="510" type="line"/>
      <point x="170" y="590" type="line"/>
    </contour>
    <contour>
      <point x="226" y="455" type="curve" smooth="yes"/>
      <point x="226" y="0" type="line"/>
      <point x="376" y="0" type="line"/>
      <point x="376" y="460" type="line" smooth="yes"/>
      <point x="376" y="555"/>
      <point x="345" y="600"/>
      <point x="280" y="600" type="curve" smooth="yes"/>
      <point x="222" y="600"/>
      <point x="185" y="566"/>
      <point x="165" y="494" type="curve"/>
      <point x="165" y="445" type="line"/>
      <point x="180" y="445" type="line"/>
      <point x="180" y="469"/>
      <point x="188" y="480"/>
      <point x="205" y="480" type="curve" smooth="yes"/>
      <point x="219" y="480"/>
      <point x="226" y="472"/>
    </contour>
    <contour>
      <point x="422" y="455" type="curve" smooth="yes"/>
      <point x="422" y="0" type="line"/>
      <point x="572" y="0" type="line"/>
      <point x="572" y="460" type="line" smooth="yes"/>
      <point x="572" y="555"/>
      <point x="541" y="600"/>
      <point x="476" y="600" type="curve" smooth="yes"/>
      <point x="418" y="600"/>
      <point x="381" y="566"/>
      <point x="361" y="494" type="curve"/>
      <point x="361" y="445" type="line"/>
      <point x="376" y="445" type="line"/>
      <point x="376" y="469"/>
      <point x="384" y="480"/>
      <point x="401" y="480" type="curve" smooth="yes"/>
      <point x="415" y="480"/>
      <point x="422" y="472"/>
    </contour>
    <contour>
      <point x="300" y="0" type="move" name="bottom"/>
    </contour>
    <contour>
      <point x="300" y="590" type="move" name="top"/>
    </contour>
  </outline>
</glyph>
<glyph name="n" format="1">
  <advance width="404"/>
  <unicode hex="006E"/>
  <outline>
    <contour>
      <point x="30" y="590" type="line"/>
      <point x="30" y="0" type="line"/>
      <point x="180" y="0" type="line"/>
      <point x="180" y="510" type="line"/>
      <point x="170" y="590" type="line"/>
    </contour>
    <contour>
      <point x="226" y="455" type="curve" smooth="yes"/>
      <point x="226" y="0" type="line"/>
      <point x="376" y="0" type="line"/>
      <point x="376" y="460" type="line" smooth="yes"/>
      <point x="376" y="555"/>
      <point x="345" y="600"/>
      <point x="280" y="600" type="curve" smooth="yes"/>
      <point x="222" y="600"/>
      <point x="185" y="566"/>
      <point x="165" y="494" type="curve"/>
      <point x="165" y="445" type="line"/>
      <point x="180" y="445" type="line"/>
      <point x="180" y="469"/>
      <point x="188" y="480"/>
      <point x="205" y="480" type="curve" smooth="yes"/>
      <point x="219" y="480"/>
      <point x="226" y="472"/>
    </contour>
    <contour>
      <point x="202" y="0" type="move" name="bottom"/>
    </contour>
    <contour>
      <point x="202" y="590" type="move" name="top"/>
    </contour>
  </outline>
</glyph>
<glyph name="o" format="1">
  <advance width="400"/>
  <unicode hex="006F"/>
  <outline>
    <contour>
      <point x="26" y="166" type="line" smooth="yes"/>
      <point x="26" y="46"/>
      <point x="88" y="-10"/>
      <point x="198" y="-10" type="curve" smooth="yes"/>
      <point x="310" y="-10"/>
      <point x="372" y="46"/>
      <point x="372" y="165" type="curve" smooth="yes"/>
      <point x="372" y="424" type="line" smooth="yes"/>
      <point x="372" y="544"/>
      <point x="310" y="600"/>
      <point x="200" y="600" type="curve" smooth="yes"/>
      <point x="88" y="600"/>
      <point x="26" y="544"/>
      <point x="26" y="425" type="curve" smooth="yes"/>
    </contour>
    <contour>
      <point x="176" y="125" type="curve" smooth="yes"/>
      <point x="176" y="460" type="line" smooth="yes"/>
      <point x="176" y="480"/>
      <point x="183" y="490"/>
      <point x="199" y="490" type="curve" smooth="yes"/>
      <point x="215" y="490"/>
      <point x="222" y="482"/>
      <point x="222" y="465" type="curve" smooth="yes"/>
      <point x="222" y="130" type="line" smooth="yes"/>
      <point x="222" y="110"/>
      <point x="215" y="100"/>
      <point x="199" y="100" type="curve" smooth="yes"/>
      <point x="183" y="100"/>
      <point x="176" y="108"/>
    </contour>
    <contour>
      <point x="199" y="0" type="move" name="bottom"/>
    </contour>
    <contour>
      <point x="199" y="295" type="move" name="center"/>
    </contour>
    <contour>
      <point x="353" y="10" type="move" name="ogonek"/>
    </contour>
    <contour>
      <point x="199" y="590" type="move" name="top"/>
    </contour>
    <contour>
      <point x="371" y="590" type="move" name="topright"/>
    </contour>
  </outline>
</glyph>
<glyph name="r" format="2">
	<advance width="317"/>
	<unicode hex="0072"/>
	<anchor x="155" y="590" name="top"/>
	<anchor x="105" y="0" name="bottom"/>
	<outline>
		<contour>
			<point x="30" y="590" type="line"/>
			<point x="30" y="0" type="line"/>
			<point x="180" y="0" type="line"/>
			<point x="180" y="510" type="line"/>
			<point x="170" y="590" type="line"/>
		</contour>
		<contour>
			<point x="295" y="420" type="line"/>
			<point x="295" y="598" type="line"/>
			<point x="286" y="600"/>
			<point x="282" y="600"/>
			<point x="275" y="600" type="curve" smooth="yes"/>
			<point x="222" y="600"/>
			<point x="187" y="563"/>
			<point x="165" y="484" type="curve"/>
			<point x="165" y="291" type="line"/>
			<point x="180" y="291" type="line"/>
			<point x="180" y="379"/>
			<point x="209" y="420"/>
			<point x="271" y="420" type="curve" smooth="yes"/>
		</contour>
	</outline>
</glyph>
<glyph name="s" format="1">
  <advance width="380"/>
  <unicode hex="0073"/>
  <outline>
    <contour>
      <point x="13" y="195" type="line"/>
      <point x="13" y="155" type="line" smooth="yes"/>
      <point x="13" y="51"/>
      <point x="77" y="-10"/>
      <point x="186" y="-10" type="curve" smooth="yes"/>
      <point x="302" y="-10"/>
      <point x="370" y="55"/>
      <point x="370" y="166" type="curve" smooth="yes"/>
      <point x="370" y="203"/>
      <point x="356" y="243"/>
      <point x="333" y="276" type="curve" smooth="yes"/>
      <point x="318" y="298"/>
      <point x="285" y="327"/>
      <point x="246" y="356" type="curve" smooth="yes"/>
      <point x="230" y="368" type="line" smooth="yes"/>
      <point x="207" y="385"/>
      <point x="187" y="403"/>
      <point x="178" y="417" type="curve" smooth="yes"/>
      <point x="169" y="431"/>
      <point x="164" y="446"/>
      <point x="164" y="458" type="curve" smooth="yes"/>
      <point x="164" y="462" type="line" smooth="yes"/>
      <point x="164" y="483"/>
      <point x="174" y="495"/>
      <point x="190" y="495" type="curve" smooth="yes"/>
      <point x="206" y="495"/>
      <point x="216" y="483"/>
      <point x="216" y="462" type="curve" smooth="yes"/>
      <point x="216" y="421" type="line"/>
      <point x="356" y="421" type="line"/>
      <point x="356" y="454" type="line" smooth="yes"/>
      <point x="356" y="546"/>
      <point x="293" y="600"/>
      <point x="186" y="600" type="curve" smooth="yes"/>
      <point x="78" y="600"/>
      <point x="14" y="541"/>
      <point x="14" y="440" type="curve" smooth="yes"/>
      <point x="14" y="407"/>
      <point x="24" y="370"/>
      <point x="41" y="341" type="curve" smooth="yes"/>
      <point x="55" y="317"/>
      <point x="82" y="288"/>
      <point x="114" y="264" type="curve" smooth="yes"/>
      <point x="130" y="252" type="line" smooth="yes"/>
      <point x="153" y="235"/>
      <point x="177" y="214"/>
      <point x="196" y="195" type="curve" smooth="yes"/>
      <point x="211" y="180"/>
      <point x="220" y="160"/>
      <point x="220" y="141" type="curve" smooth="yes"/>
      <point x="220" y="137" type="line" smooth="yes"/>
      <point x="220" y="111"/>
      <point x="208" y="95"/>
      <point x="187" y="95" type="curve" smooth="yes"/>
      <point x="166" y="95"/>
      <point x="153" y="111"/>
      <point x="153" y="137" type="curve" smooth="yes"/>
      <point x="153" y="195" type="line"/>
    </contour>
    <contour>
      <point x="192" y="0" type="move" name="bottom"/>
    </contour>
    <contour>
      <point x="192" y="590" type="move" name="top"/>
    </contour>
  </outline>
</glyph>
<glyph name="t" format="2">
	<advance width="284"/>
	<unicode hex="0074"/>
	<anchor x="136" y="295" name="center"/>
	<anchor x="136" y="590" name="top"/>
	<anchor x="265" y="820" name="topright"/>
	<anchor x="184" y="0" name="bottom"/>
	<outline>
		<contour>
			<point x="62" y="123" type="line" smooth="yes"/>
			<point x="62" y="39"/>
			<point x="101" y="-5"/>
			<point x="184" y="-5" type="curve" smooth="yes"/>
			<point x="208" y="-5"/>
			<point x="233" y="-3"/>
			<point x="262" y="0" type="curve"/>
			<point x="262" y="112" type="line"/>
			<point x="256" y="111"/>
			<point x="248" y="110"/>
			<point x="240" y="110" type="curve" smooth="yes"/>
			<point x="221" y="110"/>
			<point x="212" y="119"/>
			<point x="212" y="138" type="curve" smooth="yes"/>
			<point x="212" y="740" type="line"/>
			<point x="142" y="740" type="line"/>
			<point x="62" y="670" type="line"/>
		</contour>
		<contour>
			<point x="12" y="480" type="line"/>
			<point x="262" y="480" type="line"/>
			<point x="262" y="590" type="line"/>
			<point x="12" y="590" type="line"/>
		</contour>
	</outline>
</glyph>
<glyph name="u" format="1">
  <advance width="408"/>
  <unicode hex="0075"/>
  <outline>
    <contour>
      <point x="376" y="0" type="line"/>
      <point x="376" y="590" type="line"/>
      <point x="226" y="590" type="line"/>
      <point x="226" y="80" type="line"/>
      <point x="236" y="0" type="line"/>
    </contour>
    <contour>
      <point x="180" y="135" type="curve" smooth="yes"/>
      <point x="180" y="590" type="line"/>
      <point x="30" y="590" type="line"/>
      <point x="30" y="130" type="line" smooth="yes"/>
      <point x="30" y="35"/>
      <point x="61" y="-10"/>
      <point x="126" y="-10" type="curve" smooth="yes"/>
      <point x="184" y="-10"/>
      <point x="221" y="24"/>
      <point x="241" y="96" type="curve"/>
      <point x="241" y="145" type="line"/>
      <point x="226" y="145" type="line"/>
      <point x="226" y="121"/>
      <point x="218" y="110"/>
      <point x="201" y="110" type="curve" smooth="yes"/>
      <point x="187" y="110"/>
      <point x="180" y="118"/>
    </contour>
    <contour>
      <point x="205" y="0" type="move" name="bottom"/>
    </contour>
    <contour>
      <point x="376" y="10" type="move" name="ogonek"/>
    </contour>
    <contour>
      <point x="205" y="590" type="move" name="top"/>
    </contour>
    <contour>
      <point x="379" y="590" type="move" name="topright"/>
    </contour>
  </outline>
</glyph>
<glyph name="v" format="2">
	<advance width="425"/>
	<unicode hex="0076"/>
	<outline>
		<contour>
			<point x="13" y="590" type="line"/>
			<point x="137" y="0" type="line"/>
			<point x="291" y="0" type="line"/>
			<point x="415" y="590" type="line"/>
			<point x="260" y="590" type="line"/>
			<point x="226" y="220" type="line"/>
			<point x="222" y="100" type="line"/>
			<point x="216" y="100" type="line"/>
			<point x="212" y="220" type="line"/>
			<point x="178" y="590" type="line"/>
		</contour>
	</outline>
</glyph>
<glyph name="w" format="1">
  <advance width="629"/>
  <unicode hex="0077"/>
  <outline>
    <contour>
      <point x="13" y="590" type="line"/>
      <point x="107" y="0" type="line"/>
      <point x="273" y="0" type="line"/>
      <point x="308" y="258" type="line"/>
      <point x="313" y="470" type="line"/>
      <point x="319" y="470" type="line"/>
      <point x="324" y="258" type="line"/>
      <point x="361" y="0" type="line"/>
      <point x="525" y="0" type="line"/>
      <point x="619" y="590" type="line"/>
      <point x="464" y="590" type="line"/>
      <point x="444" y="284" type="line"/>
      <point x="439" y="100" type="line"/>
      <point x="433" y="100" type="line"/>
      <point x="428" y="284" type="line"/>
      <point x="390" y="590" type="line"/>
      <point x="252" y="590" type="line"/>
      <point x="215" y="284" type="line"/>
      <point x="210" y="100" type="line"/>
      <point x="204" y="100" type="line"/>
      <point x="199" y="284" type="line"/>
      <point x="178" y="590" type="line"/>
    </contour>
    <contour>
      <point x="313" y="0" type="move" name="bottom"/>
    </contour>
    <contour>
      <point x="313" y="590" type="move" name="top"/>
    </contour>
  </outline>
</glyph>
<glyph name="x" format="2">
	<advance width="448"/>
	<unicode hex="0078"/>
	<outline>
		<contour>
			<point x="13" y="0" type="line"/>
			<point x="163" y="0" type="line"/>
			<point x="214" y="164" type="line"/>
			<point x="220" y="254" type="line"/>
			<point x="226" y="254" type="line"/>
			<point x="232" y="164" type="line"/>
			<point x="278" y="0" type="line"/>
			<point x="438" y="0" type="line"/>
			<point x="326" y="315" type="line"/>
			<point x="426" y="590" type="line"/>
			<point x="276" y="590" type="line"/>
			<point x="241" y="436" type="line"/>
			<point x="235" y="356" type="line"/>
			<point x="229" y="356" type="line"/>
			<point x="223" y="436" type="line"/>
			<point x="187" y="590" type="line"/>
			<point x="27" y="590" type="line"/>
			<point x="125" y="295" type="line"/>
		</contour>
	</outline>
</glyph>
<glyph name="y" format="2">
	<advance width="423"/>
	<unicode hex="0079"/>
	<guideline x="-72" y="231" angle="0"/>
	<anchor x="217" y="590" name="top"/>
	<anchor x="213" y="0" name="bottom"/>
	<outline>
		<contour>
			<point x="13" y="590" type="line"/>
			<point x="137" y="0" type="line"/>
			<point x="96" y="-180" type="line"/>
			<point x="255" y="-180" type="line"/>
			<point x="413" y="590" type="line"/>
			<point x="258" y="590" type="line"/>
			<point x="227" y="217" type="line"/>
			<point x="221" y="100" type="line"/>
			<point x="215" y="100" type="line"/>
			<point x="209" y="217" type="line"/>
			<point x="178" y="590" type="line"/>
		</contour>
	</outline>
</glyph>
<glyph name="z" format="1">
  <advance width="382"/>
  <unicode hex="007A"/>
  <outline>
    <contour>
      <point x="22" y="0" type="line"/>
      <point x="360" y="0" type="line"/>
      <point x="360" y="110" type="line"/>
      <point x="180" y="110" type="line"/>
      <point x="180" y="114" type="line"/>
      <point x="201" y="130" type="line"/>
      <point x="360" y="494" type="line"/>
      <point x="360" y="590" type="line"/>
      <point x="36" y="590" type="line"/>
      <point x="36" y="480" type="line"/>
      <point x="203" y="480" type="line"/>
      <point x="203" y="476" type="line"/>
      <point x="182" y="460" type="line"/>
      <point x="22" y="96" type="line"/>
    </contour>
    <contour>
      <point x="190" y="0" type="move" name="bottom"/>
    </contour>
    <contour>
      <point x="190" y="590" type="move" name="top"/>
    </contour>
  </outline>
</glyph>
<glyph name="braceleft" format="1">
  <advance width="319"/>
  <unicode hex="007B"/>
  <outline>
    <contour>
      <point x="22" y="275" type="line"/>
      <point x="42" y="275" type="line" smooth="yes"/>
      <point x="67" y="275"/>
      <point x="82" y="256"/>
      <point x="82" y="225" type="curve" smooth="yes"/>
      <point x="82" y="209"/>
      <point x="81" y="190"/>
      <point x="78" y="175" type="curve" smooth="yes"/>
      <point x="61" y="85" type="line" smooth="yes"/>
      <point x="55" y="53"/>
      <point x="52" y="24"/>
      <point x="52" y="5" type="curve" smooth="yes"/>
      <point x="52" y="-118"/>
      <point x="139" y="-190"/>
      <point x="287" y="-190" type="curve"/>
      <point x="297" y="-110" type="line"/>
      <point x="244" y="-100"/>
      <point x="212" y="-66"/>
      <point x="212" y="-20" type="curve" smooth="yes"/>
      <point x="212" y="-2"/>
      <point x="215" y="24"/>
      <point x="219" y="49" type="curve" smooth="yes"/>
      <point x="236" y="140" type="line" smooth="yes"/>
      <point x="240" y="160"/>
      <point x="242" y="180"/>
      <point x="242" y="195" type="curve" smooth="yes"/>
      <point x="242" y="253"/>
      <point x="216" y="299"/>
      <point x="173" y="318" type="curve"/>
      <point x="173" y="322" type="line"/>
      <point x="216" y="341"/>
      <point x="242" y="387"/>
      <point x="242" y="445" type="curve" smooth="yes"/>
      <point x="242" y="460"/>
      <point x="240" y="480"/>
      <point x="236" y="500" type="curve" smooth="yes"/>
      <point x="219" y="591" type="line" smooth="yes"/>
      <point x="215" y="616"/>
      <point x="212" y="642"/>
      <point x="212" y="660" type="curve" smooth="yes"/>
      <point x="212" y="706"/>
      <point x="244" y="740"/>
      <point x="297" y="750" type="curve"/>
      <point x="287" y="830" type="line"/>
      <point x="139" y="830"/>
      <point x="52" y="758"/>
      <point x="52" y="635" type="curve" smooth="yes"/>
      <point x="52" y="616"/>
      <point x="55" y="587"/>
      <point x="61" y="555" type="curve" smooth="yes"/>
      <point x="78" y="465" type="line" smooth="yes"/>
      <point x="81" y="450"/>
      <point x="82" y="431"/>
      <point x="82" y="415" type="curve" smooth="yes"/>
      <point x="82" y="384"/>
      <point x="67" y="365"/>
      <point x="42" y="365" type="curve" smooth="yes"/>
      <point x="22" y="365" type="line"/>
    </contour>
  </outline>
</glyph>
<glyph name="braceright" format="2">
	<advance width="319"/>
	<unicode hex="007D"/>
	<outline>
		<contour>
			<point x="297" y="275" type="line"/>
			<point x="297" y="365" type="line"/>
			<point x="277" y="365" type="line" smooth="yes"/>
			<point x="252" y="365"/>
			<point x="237" y="384"/>
			<point x="237" y="415" type="curve" smooth="yes"/>
			<point x="237" y="431"/>
			<point x="238" y="450"/>
			<point x="241" y="465" type="curve" smooth="yes"/>
			<point x="258" y="555" type="line" smooth="yes"/>
			<point x="264" y="587"/>
			<point x="267" y="616"/>
			<point x="267" y="635" type="curve" smooth="yes"/>
			<point x="267" y="758"/>
			<point x="180" y="830"/>
			<point x="32" y="830" type="curve"/>
			<point x="22" y="750" type="line"/>
			<point x="75" y="740"/>
			<point x="107" y="706"/>
			<point x="107" y="660" type="curve" smooth="yes"/>
			<point x="107" y="642"/>
			<point x="105" y="616"/>
			<point x="100" y="591" type="curve" smooth="yes"/>
			<point x="83" y="500" type="line" smooth="yes"/>
			<point x="79" y="480"/>
			<point x="77" y="460"/>
			<point x="77" y="445" type="curve" smooth="yes"/>
			<point x="77" y="387"/>
			<point x="103" y="341"/>
			<point x="146" y="322" type="curve"/>
			<point x="146" y="318" type="line"/>
			<point x="103" y="299"/>
			<point x="77" y="253"/>
			<point x="77" y="195" type="curve" smooth="yes"/>
			<point x="77" y="180"/>
			<point x="79" y="160"/>
			<point x="83" y="140" type="curve" smooth="yes"/>
			<point x="100" y="49" type="line" smooth="yes"/>
			<point x="105" y="24"/>
			<point x="107" y="-2"/>
			<point x="107" y="-20" type="curve" smooth="yes"/>
			<point x="107" y="-66"/>
			<point x="75" y="-100"/>
			<point x="22" y="-110" type="curve"/>
			<point x="32" y="-190" type="line"/>
			<point x="180" y="-190"/>
			<point x="267" y="-118"/>
			<point x="267" y="5" type="curve" smooth="yes"/>
			<point x="267" y="24"/>
			<point x="264" y="53"/>
			<point x="258" y="85" type="curve" smooth="yes"/>
			<point x="241" y="175" type="line" smooth="yes"/>
			<point x="238" y="190"/>
			<point x="237" y="209"/>
			<point x="237" y="225" type="curve" smooth="yes"/>
			<point x="237" y="256"/>
			<point x="252" y="275"/>
			<point x="277" y="275" type="curve" smooth="yes"/>
		</contour>
	</outline>
</glyph>
<glyph name="cent" format="2">
	<advance width="400"/>
	<unicode hex="00A2"/>
	<outline>
		<contour>
			<point x="148" y="-80" type="line"/>
			<point x="248" y="-80" type="line"/>
			<point x="248" y="46" type="line"/>
			<point x="148" y="46" type="line"/>
		</contour>
		<contour>
			<point x="148" y="544" type="line"/>
			<point x="248" y="544" type="line"/>
			<point x="248" y="670" type="line"/>
			<point x="148" y="670" type="line"/>
		</contour>
		<component base="c"/>
	</outline>
</glyph>
<glyph name="sterling" format="2">
	<advance width="530"/>
	<unicode hex="00A3"/>
	<outline>
		<contour>
			<point x="455" y="155" type="line"/>
			<point x="445" y="155" type="line"/>
			<point x="418" y="136"/>
			<point x="392" y="126"/>
			<point x="364" y="126" type="curve" smooth="yes"/>
			<point x="341" y="126"/>
			<point x="313" y="133"/>
			<point x="288" y="145" type="curve" smooth="yes"/>
			<point x="270" y="154" type="line" smooth="yes"/>
			<point x="254" y="162"/>
			<point x="234" y="166"/>
			<point x="215" y="166" type="curve" smooth="yes"/>
			<point x="206" y="166"/>
			<point x="194" y="163"/>
			<point x="183" y="158" type="curve"/>
			<point x="180" y="163" type="line"/>
			<point x="237" y="200"/>
			<point x="271" y="264"/>
			<point x="271" y="336" type="curve" smooth="yes"/>
			<point x="271" y="378"/>
			<point x="264" y="426"/>
			<point x="250" y="482" type="curve" smooth="yes"/>
			<point x="245" y="502" type="line" smooth="yes"/>
			<point x="234" y="548"/>
			<point x="228" y="584"/>
			<point x="228" y="614" type="curve" smooth="yes"/>
			<point x="228" y="652"/>
			<point x="242" y="670"/>
			<point x="271" y="670" type="curve" smooth="yes"/>
			<point x="300" y="670"/>
			<point x="314" y="650"/>
			<point x="314" y="610" type="curve" smooth="yes"/>
			<point x="314" y="549" type="line"/>
			<point x="464" y="549" type="line"/>
			<point x="464" y="605" type="line" smooth="yes"/>
			<point x="464" y="729"/>
			<point x="400" y="790"/>
			<point x="270" y="790" type="curve" smooth="yes"/>
			<point x="131" y="790"/>
			<point x="63" y="732"/>
			<point x="63" y="614" type="curve" smooth="yes"/>
			<point x="63" y="568"/>
			<point x="69" y="522"/>
			<point x="82" y="474" type="curve" smooth="yes"/>
			<point x="87" y="454" type="line" smooth="yes"/>
			<point x="100" y="406"/>
			<point x="106" y="367"/>
			<point x="106" y="336" type="curve" smooth="yes"/>
			<point x="106" y="244"/>
			<point x="78" y="172"/>
			<point x="22" y="118" type="curve"/>
			<point x="67" y="6" type="line"/>
			<point x="73" y="6" type="line"/>
			<point x="104" y="21"/>
			<point x="131" y="29"/>
			<point x="156" y="29" type="curve" smooth="yes"/>
			<point x="180" y="29"/>
			<point x="201" y="26"/>
			<point x="218" y="21" type="curve" smooth="yes"/>
			<point x="248" y="11" type="line" smooth="yes"/>
			<point x="291" y="-3"/>
			<point x="328" y="-10"/>
			<point x="361" y="-10" type="curve" smooth="yes"/>
			<point x="409" y="-10"/>
			<point x="456" y="8"/>
			<point x="504" y="44" type="curve" smooth="yes"/>
			<point x="508" y="47" type="line"/>
		</contour>
		<contour>
			<point x="39" y="325" type="line"/>
			<point x="369" y="325" type="line"/>
			<point x="389" y="415" type="line"/>
			<point x="59" y="415" type="line"/>
		</contour>
	</outline>
</glyph>
<glyph name="currency" format="2">
	<advance width="552"/>
	<unicode hex="00A4"/>
	<outline>
		<contour>
			<point x="216" y="139" type="line"/>
			<point x="121" y="234" type="line"/>
			<point x="2" y="115" type="line"/>
			<point x="97" y="20" type="line"/>
		</contour>
		<contour>
			<point x="97" y="568" type="line"/>
			<point x="2" y="473" type="line"/>
			<point x="121" y="354" type="line"/>
			<point x="216" y="449" type="line"/>
		</contour>
		<contour>
			<point x="276" y="84" type="curve" smooth="yes"/>
			<point x="418" y="84"/>
			<point x="486" y="152"/>
			<point x="486" y="295" type="curve" smooth="yes"/>
			<point x="486" y="437"/>
			<point x="418" y="504"/>
			<point x="276" y="504" type="curve" smooth="yes"/>
			<point x="133" y="504"/>
			<point x="66" y="437"/>
			<point x="66" y="295" type="curve" smooth="yes"/>
			<point x="66" y="152"/>
			<point x="133" y="84"/>
		</contour>
		<contour>
			<point x="276" y="204" type="curve" smooth="yes"/>
			<point x="215" y="204"/>
			<point x="186" y="233"/>
			<point x="186" y="294" type="curve" smooth="yes"/>
			<point x="186" y="355"/>
			<point x="215" y="384"/>
			<point x="276" y="384" type="curve" smooth="yes"/>
			<point x="337" y="384"/>
			<point x="366" y="355"/>
			<point x="366" y="294" type="curve" smooth="yes"/>
			<point x="366" y="233"/>
			<point x="337" y="204"/>
		</contour>
		<contour>
			<point x="431" y="234" type="line"/>
			<point x="336" y="139" type="line"/>
			<point x="455" y="20" type="line"/>
			<point x="550" y="115" type="line"/>
		</contour>
		<contour>
			<point x="550" y="473" type="line"/>
			<point x="455" y="568" type="line"/>
			<point x="336" y="449" type="line"/>
			<point x="431" y="354" type="line"/>
		</contour>
	</outline>
</glyph>
<glyph name="yen" format="1">
  <advance width="470"/>
  <unicode hex="00A5"/>
  <outline>
    <contour>
      <point x="27" y="165" type="line"/>
      <point x="417" y="165" type="line"/>
      <point x="437" y="255" type="line"/>
      <point x="47" y="255" type="line"/>
    </contour>
    <contour>
      <point x="282" y="435" type="line"/>
      <point x="282" y="345" type="line"/>
      <point x="417" y="345" type="line"/>
      <point x="437" y="435" type="line"/>
    </contour>
    <contour>
      <point x="182" y="345" type="line"/>
      <point x="182" y="435" type="line"/>
      <point x="47" y="435" type="line"/>
      <point x="27" y="345" type="line"/>
    </contour>
    <component base="Y"/>
  </outline>
</glyph>
<glyph name="brokenbar" format="1">
  <advance width="186"/>
  <unicode hex="00A6"/>
  <outline>
    <contour>
      <point x="143" y="270" type="line"/>
      <point x="43" y="270" type="line"/>
      <point x="43" y="-180" type="line"/>
      <point x="143" y="-180" type="line"/>
    </contour>
    <contour>
      <point x="43" y="370" type="line"/>
      <point x="143" y="370" type="line"/>
      <point x="143" y="820" type="line"/>
      <point x="43" y="820" type="line"/>
    </contour>
  </outline>
</glyph>
<glyph name="section" format="1">
  <advance width="471"/>
  <unicode hex="00A7"/>
  <outline>
    <contour>
      <point x="419" y="596" type="line"/>
      <point x="419" y="609" type="line" smooth="yes"/>
      <point x="419" y="723"/>
      <point x="350" y="790"/>
      <point x="234" y="790" type="curve" smooth="yes"/>
      <point x="107" y="790"/>
      <point x="32" y="721"/>
      <point x="32" y="605" type="curve" smooth="yes"/>
      <point x="32" y="580"/>
      <point x="38" y="552"/>
      <point x="49" y="530" type="curve" smooth="yes"/>
      <point x="59" y="509"/>
      <point x="75" y="489"/>
      <point x="91" y="476" type="curve" smooth="yes"/>
      <point x="115" y="457" type="line"/>
      <point x="86" y="448"/>
      <point x="60" y="430"/>
      <point x="45" y="408" type="curve" smooth="yes"/>
      <point x="32" y="389"/>
      <point x="22" y="362"/>
      <point x="22" y="335" type="curve" smooth="yes"/>
      <point x="22" y="303"/>
      <point x="32" y="271"/>
      <point x="49" y="247" type="curve" smooth="yes"/>
      <point x="68" y="221"/>
      <point x="102" y="195"/>
      <point x="139" y="177" type="curve" smooth="yes"/>
      <point x="212" y="141" type="line" smooth="yes"/>
      <point x="231" y="132"/>
      <point x="246" y="118"/>
      <point x="257" y="103" type="curve" smooth="yes"/>
      <point x="265" y="92"/>
      <point x="269" y="77"/>
      <point x="269" y="64" type="curve" smooth="yes"/>
      <point x="269" y="57" type="line" smooth="yes"/>
      <point x="269" y="34"/>
      <point x="254" y="20"/>
      <point x="228" y="20" type="curve" smooth="yes"/>
      <point x="202" y="20"/>
      <point x="187" y="39"/>
      <point x="187" y="72" type="curve" smooth="yes"/>
      <point x="187" y="97" type="line"/>
      <point x="27" y="97" type="line"/>
      <point x="27" y="75" type="line" smooth="yes"/>
      <point x="27" y="-41"/>
      <point x="102" y="-110"/>
      <point x="230" y="-110" type="curve" smooth="yes"/>
      <point x="361" y="-110"/>
      <point x="439" y="-45"/>
      <point x="439" y="66" type="curve" smooth="yes"/>
      <point x="439" y="94"/>
      <point x="433" y="125"/>
      <point x="422" y="149" type="curve" smooth="yes"/>
      <point x="410" y="174"/>
      <point x="391" y="197"/>
      <point x="371" y="212" type="curve" smooth="yes"/>
      <point x="357" y="222" type="line"/>
      <point x="388" y="237"/>
      <point x="415" y="259"/>
      <point x="429" y="281" type="curve" smooth="yes"/>
      <point x="441" y="300"/>
      <point x="449" y="324"/>
      <point x="449" y="346" type="curve" smooth="yes"/>
      <point x="449" y="379"/>
      <point x="440" y="412"/>
      <point x="425" y="434" type="curve" smooth="yes"/>
      <point x="406" y="462"/>
      <point x="372" y="490"/>
      <point x="332" y="510" type="curve" smooth="yes"/>
      <point x="259" y="546" type="line" smooth="yes"/>
      <point x="241" y="555"/>
      <point x="224" y="569"/>
      <point x="215" y="582" type="curve" smooth="yes"/>
      <point x="206" y="595"/>
      <point x="202" y="611"/>
      <point x="202" y="623" type="curve" smooth="yes"/>
      <point x="202" y="632" type="line" smooth="yes"/>
      <point x="202" y="650"/>
      <point x="214" y="660"/>
      <point x="233" y="660" type="curve" smooth="yes"/>
      <point x="256" y="660"/>
      <point x="269" y="644"/>
      <point x="269" y="617" type="curve" smooth="yes"/>
      <point x="269" y="596" type="line"/>
    </contour>
    <contour>
      <point x="192" y="359" type="curve" smooth="yes"/>
      <point x="192" y="362" type="line" smooth="yes"/>
      <point x="192" y="380"/>
      <point x="196" y="398"/>
      <point x="204" y="411" type="curve"/>
      <point x="209" y="407"/>
      <point x="216" y="403"/>
      <point x="223" y="399" type="curve" smooth="yes"/>
      <point x="236" y="392" type="line" smooth="yes"/>
      <point x="263" y="377"/>
      <point x="279" y="354"/>
      <point x="279" y="328" type="curve" smooth="yes"/>
      <point x="279" y="325" type="line" smooth="yes"/>
      <point x="279" y="309"/>
      <point x="275" y="290"/>
      <point x="267" y="275" type="curve"/>
      <point x="263" y="279"/>
      <point x="257" y="283"/>
      <point x="251" y="286" type="curve" smooth="yes"/>
      <point x="236" y="294" type="line" smooth="yes"/>
      <point x="208" y="310"/>
      <point x="192" y="334"/>
    </contour>
  </outline>
</glyph>
<glyph name="copyright" format="2">
	<advance width="866"/>
	<unicode hex="00A9"/>
	<outline>
		<contour>
			<point x="433" y="800" type="curve" smooth="yes"/>
			<point x="212" y="800"/>
			<point x="33" y="621"/>
			<point x="33" y="400" type="curve" smooth="yes"/>
			<point x="33" y="179"/>
			<point x="212" y="0"/>
			<point x="433" y="0" type="curve" smooth="yes"/>
			<point x="656" y="0"/>
			<point x="833" y="179"/>
			<point x="833" y="400" type="curve" smooth="yes"/>
			<point x="833" y="621"/>
			<point x="654" y="800"/>
		</contour>
		<contour>
			<point x="433" y="730" type="curve" smooth="yes"/>
			<point x="616" y="730"/>
			<point x="763" y="583"/>
			<point x="763" y="400" type="curve" smooth="yes"/>
			<point x="763" y="217"/>
			<point x="616" y="70"/>
			<point x="433" y="70" type="curve" smooth="yes"/>
			<point x="250" y="70"/>
			<point x="103" y="217"/>
			<point x="103" y="400" type="curve" smooth="yes"/>
			<point x="103" y="583"/>
			<point x="250" y="730"/>
		</contour>
		<contour>
			<point x="583" y="355" type="line"/>
			<point x="459" y="355" type="line"/>
			<point x="459" y="295" type="line" smooth="yes"/>
			<point x="459" y="275"/>
			<point x="451" y="265"/>
			<point x="434" y="265" type="curve" smooth="yes"/>
			<point x="418" y="265"/>
			<point x="409" y="273"/>
			<point x="409" y="291" type="curve" smooth="yes"/>
			<point x="409" y="505" type="line" smooth="yes"/>
			<point x="409" y="525"/>
			<point x="418" y="535"/>
			<point x="434" y="535" type="curve" smooth="yes"/>
			<point x="451" y="535"/>
			<point x="459" y="527"/>
			<point x="459" y="509" type="curve" smooth="yes"/>
			<point x="459" y="448" type="line"/>
			<point x="583" y="448" type="line"/>
			<point x="583" y="516" type="line" smooth="yes"/>
			<point x="583" y="600"/>
			<point x="535" y="640"/>
			<point x="435" y="640" type="curve" smooth="yes"/>
			<point x="334" y="640"/>
			<point x="286" y="600"/>
			<point x="286" y="516" type="curve" smooth="yes"/>
			<point x="286" y="285" type="line" smooth="yes"/>
			<point x="286" y="200"/>
			<point x="333" y="160"/>
			<point x="433" y="160" type="curve" smooth="yes"/>
			<point x="535" y="160"/>
			<point x="583" y="200"/>
			<point x="583" y="284" type="curve" smooth="yes"/>
		</contour>
	</outline>
</glyph>
<glyph name="ordfeminine" format="2">
	<advance width="267"/>
	<unicode hex="00AA"/>
	<outline>
		<contour>
			<point x="35" y="685" type="line"/>
			<point x="125" y="685" type="line"/>
			<point x="125" y="721" type="line" smooth="yes"/>
			<point x="125" y="733"/>
			<point x="129" y="739"/>
			<point x="138" y="739" type="curve" smooth="yes"/>
			<point x="148" y="739"/>
			<point x="152" y="734"/>
			<point x="152" y="724" type="curve" smooth="yes"/>
			<point x="152" y="493" type="line" smooth="yes"/>
			<point x="152" y="474"/>
			<point x="156" y="456"/>
			<point x="162" y="445" type="curve"/>
			<point x="252" y="445" type="line"/>
			<point x="253" y="447" type="line"/>
			<point x="246" y="461"/>
			<point x="242" y="480"/>
			<point x="242" y="498" type="curve" smooth="yes"/>
			<point x="242" y="699" type="line" smooth="yes"/>
			<point x="242" y="771"/>
			<point x="205" y="805"/>
			<point x="139" y="805" type="curve" smooth="yes"/>
			<point x="72" y="805"/>
			<point x="35" y="771"/>
			<point x="35" y="700" type="curve" smooth="yes"/>
		</contour>
		<contour>
			<point x="167" y="529" type="line"/>
			<point x="152" y="529" type="line"/>
			<point x="152" y="513"/>
			<point x="146" y="505"/>
			<point x="134" y="505" type="curve" smooth="yes"/>
			<point x="123" y="505"/>
			<point x="119" y="511"/>
			<point x="119" y="523" type="curve" smooth="yes"/>
			<point x="119" y="571" type="line" smooth="yes"/>
			<point x="119" y="589"/>
			<point x="126" y="603"/>
			<point x="144" y="613" type="curve" smooth="yes"/>
			<point x="170" y="628" type="line"/>
			<point x="170" y="684" type="line"/>
			<point x="96" y="648" type="line" smooth="yes"/>
			<point x="48" y="625"/>
			<point x="26" y="597"/>
			<point x="26" y="559" type="curve" smooth="yes"/>
			<point x="26" y="523" type="line" smooth="yes"/>
			<point x="26" y="466"/>
			<point x="47" y="439"/>
			<point x="90" y="439" type="curve" smooth="yes"/>
			<point x="126" y="439"/>
			<point x="155" y="465"/>
			<point x="167" y="509" type="curve"/>
		</contour>
		<contour>
			<point x="46" y="391" type="line"/>
			<point x="46" y="325" type="line"/>
			<point x="232" y="325" type="line"/>
			<point x="232" y="391" type="line"/>
		</contour>
	</outline>
</glyph>
<glyph name="registered" format="2">
	<advance width="504"/>
	<unicode hex="00AE"/>
	<outline>
		<contour>
			<point x="252" y="349" type="curve" smooth="yes"/>
			<point x="379" y="349"/>
			<point x="482" y="452"/>
			<point x="482" y="579" type="curve" smooth="yes"/>
			<point x="482" y="706"/>
			<point x="379" y="809"/>
			<point x="252" y="809" type="curve" smooth="yes"/>
			<point x="125" y="809"/>
			<point x="22" y="706"/>
			<point x="22" y="579" type="curve" smooth="yes"/>
			<point x="22" y="452"/>
			<point x="125" y="349"/>
		</contour>
		<contour>
			<point x="252" y="399" type="curve" smooth="yes"/>
			<point x="153" y="399"/>
			<point x="72" y="480"/>
			<point x="72" y="579" type="curve" smooth="yes"/>
			<point x="72" y="678"/>
			<point x="153" y="759"/>
			<point x="252" y="759" type="curve" smooth="yes"/>
			<point x="351" y="759"/>
			<point x="432" y="678"/>
			<point x="432" y="579" type="curve" smooth="yes"/>
			<point x="432" y="480"/>
			<point x="351" y="399"/>
		</contour>
		<contour>
			<point x="177" y="460" type="line"/>
			<point x="243" y="460" type="line"/>
			<point x="243" y="540" type="line"/>
			<point x="262" y="540" type="line"/>
			<point x="275" y="460" type="line"/>
			<point x="342" y="460" type="line"/>
			<point x="329" y="527" type="line" smooth="yes"/>
			<point x="326" y="544"/>
			<point x="315" y="557"/>
			<point x="298" y="562" type="curve"/>
			<point x="298" y="566" type="line"/>
			<point x="321" y="572"/>
			<point x="334" y="590"/>
			<point x="334" y="614" type="curve" smooth="yes"/>
			<point x="334" y="646" type="line" smooth="yes"/>
			<point x="334" y="688"/>
			<point x="309" y="708"/>
			<point x="255" y="708" type="curve" smooth="yes"/>
			<point x="177" y="708" type="line"/>
		</contour>
		<contour>
			<point x="243" y="592" type="line"/>
			<point x="243" y="652" type="line"/>
			<point x="254" y="652" type="line" smooth="yes"/>
			<point x="263" y="652"/>
			<point x="268" y="649"/>
			<point x="268" y="642" type="curve" smooth="yes"/>
			<point x="268" y="604" type="line" smooth="yes"/>
			<point x="268" y="596"/>
			<point x="263" y="592"/>
			<point x="254" y="592" type="curve" smooth="yes"/>
		</contour>
	</outline>
</glyph>
<glyph name="degree" format="1">
  <advance width="296"/>
  <unicode hex="00B0"/>
  <outline>
    <contour>
      <point x="148" y="472" type="curve" smooth="yes"/>
      <point x="214" y="472"/>
      <point x="268" y="526"/>
      <point x="268" y="592" type="curve" smooth="yes"/>
      <point x="268" y="658"/>
      <point x="214" y="712"/>
      <point x="148" y="712" type="curve" smooth="yes"/>
      <point x="82" y="712"/>
      <point x="28" y="658"/>
      <point x="28" y="592" type="curve" smooth="yes"/>
      <point x="28" y="526"/>
      <point x="82" y="472"/>
    </contour>
    <contour>
      <point x="148" y="547" type="curve" smooth="yes"/>
      <point x="124" y="547"/>
      <point x="103" y="568"/>
      <point x="103" y="592" type="curve" smooth="yes"/>
      <point x="103" y="617"/>
      <point x="124" y="637"/>
      <point x="148" y="637" type="curve" smooth="yes"/>
      <point x="173" y="637"/>
      <point x="193" y="617"/>
      <point x="193" y="592" type="curve" smooth="yes"/>
      <point x="193" y="568"/>
      <point x="173" y="547"/>
    </contour>
  </outline>
</glyph>
<glyph name="paragraph" format="2">
	<advance width="475"/>
	<unicode hex="00B6"/>
	<outline>
		<contour>
			<point x="312" y="0" type="line"/>
			<point x="312" y="800" type="line"/>
			<point x="230" y="800" type="line" smooth="yes"/>
			<point x="96" y="800"/>
			<point x="33" y="744"/>
			<point x="33" y="624" type="curve" smooth="yes"/>
			<point x="33" y="475" type="line" smooth="yes"/>
			<point x="33" y="356"/>
			<point x="97" y="300"/>
			<point x="232" y="300" type="curve"/>
			<point x="232" y="0" type="line"/>
		</contour>
		<contour>
			<point x="352" y="800" type="line"/>
			<point x="352" y="0" type="line"/>
			<point x="432" y="0" type="line"/>
			<point x="432" y="800" type="line"/>
		</contour>
	</outline>
</glyph>
<glyph name="ordmasculine" format="1">
  <advance width="261"/>
  <unicode hex="00BA"/>
  <outline>
    <contour>
      <point x="26" y="545" type="line" smooth="yes"/>
      <point x="26" y="473"/>
      <point x="63" y="439"/>
      <point x="129" y="439" type="curve" smooth="yes"/>
      <point x="196" y="439"/>
      <point x="233" y="473"/>
      <point x="233" y="544" type="curve" smooth="yes"/>
      <point x="233" y="699" type="line" smooth="yes"/>
      <point x="233" y="771"/>
      <point x="196" y="805"/>
      <point x="130" y="805" type="curve" smooth="yes"/>
      <point x="63" y="805"/>
      <point x="26" y="771"/>
      <point x="26" y="700" type="curve" smooth="yes"/>
    </contour>
    <contour>
      <point x="116" y="520" type="curve" smooth="yes"/>
      <point x="116" y="721" type="line" smooth="yes"/>
      <point x="116" y="733"/>
      <point x="120" y="739"/>
      <point x="129" y="739" type="curve" smooth="yes"/>
      <point x="139" y="739"/>
      <point x="143" y="734"/>
      <point x="143" y="724" type="curve" smooth="yes"/>
      <point x="143" y="523" type="line" smooth="yes"/>
      <point x="143" y="511"/>
      <point x="139" y="505"/>
      <point x="129" y="505" type="curve" smooth="yes"/>
      <point x="120" y="505"/>
      <point x="116" y="510"/>
    </contour>
    <contour>
      <point x="36" y="391" type="line"/>
      <point x="36" y="325" type="line"/>
      <point x="222" y="325" type="line"/>
      <point x="222" y="391" type="line"/>
    </contour>
  </outline>
</glyph>
<glyph name="AE" format="2">
	<advance width="619"/>
	<unicode hex="00C6"/>
	<outline>
		<contour>
			<point x="17" y="0" type="line"/>
			<point x="182" y="0" type="line"/>
			<point x="245" y="660" type="line"/>
			<point x="252" y="660" type="line"/>
			<point x="252" y="0" type="line"/>
			<point x="597" y="0" type="line"/>
			<point x="597" y="140" type="line"/>
			<point x="417" y="140" type="line"/>
			<point x="417" y="370" type="line"/>
			<point x="547" y="370" type="line"/>
			<point x="547" y="510" type="line"/>
			<point x="417" y="510" type="line"/>
			<point x="417" y="660" type="line"/>
			<point x="577" y="660" type="line"/>
			<point x="577" y="800" type="line"/>
			<point x="106" y="800" type="line"/>
		</contour>
		<contour>
			<point x="67" y="240" type="line"/>
			<point x="67" y="100" type="line"/>
			<point x="392" y="100" type="line"/>
			<point x="392" y="240" type="line"/>
		</contour>
	</outline>
</glyph>
<glyph name="Eth" format="1">
  <advance width="498"/>
  <unicode hex="00D0"/>
  <outline>
    <contour>
      <point x="25" y="500" type="line"/>
      <point x="5" y="380" type="line"/>
      <point x="250" y="380" type="line"/>
      <point x="270" y="500" type="line"/>
    </contour>
    <component base="D" xOffset="20"/>
  </outline>
</glyph>
<glyph name="Oslash" format="2">
	<advance width="477"/>
	<unicode hex="00D8"/>
	<outline>
		<contour>
			<point x="482" y="473" type="line"/>
			<point x="482" y="584" type="line"/>
			<point x="6" y="349" type="line"/>
			<point x="6" y="238" type="line"/>
		</contour>
		<component base="O" xOffset="6"/>
	</outline>
</glyph>
<glyph name="Thorn" format="1">
  <advance width="468"/>
  <unicode hex="00DE"/>
  <outline>
    <contour>
      <point x="43" y="0" type="line"/>
      <point x="208" y="0" type="line"/>
      <point x="208" y="170" type="line"/>
      <point x="236" y="170" type="line" smooth="yes"/>
      <point x="371" y="170"/>
      <point x="435" y="226"/>
      <point x="435" y="345" type="curve" smooth="yes"/>
      <point x="435" y="464" type="line" smooth="yes"/>
      <point x="435" y="584"/>
      <point x="372" y="640"/>
      <point x="238" y="640" type="curve" smooth="yes"/>
      <point x="208" y="640" type="line"/>
      <point x="208" y="800" type="line"/>
      <point x="43" y="800" type="line"/>
    </contour>
    <contour>
      <point x="208" y="310" type="line"/>
      <point x="208" y="500" type="line"/>
      <point x="237" y="500" type="line" smooth="yes"/>
      <point x="259" y="500"/>
      <point x="270" y="489"/>
      <point x="270" y="465" type="curve" smooth="yes"/>
      <point x="270" y="350" type="line" smooth="yes"/>
      <point x="270" y="323"/>
      <point x="259" y="310"/>
      <point x="237" y="310" type="curve" smooth="yes"/>
    </contour>
  </outline>
</glyph>
<glyph name="germandbls" format="1">
  <advance width="416"/>
  <unicode hex="00DF"/>
  <outline>
    <contour>
      <point x="254" y="-5" type="curve" smooth="yes"/>
      <point x="356" y="-5"/>
      <point x="406" y="48"/>
      <point x="406" y="155" type="curve" smooth="yes"/>
      <point x="406" y="349" type="line" smooth="yes"/>
      <point x="406" y="427"/>
      <point x="368" y="467"/>
      <point x="291" y="469" type="curve"/>
      <point x="291" y="473" type="line"/>
      <point x="368" y="475"/>
      <point x="406" y="514"/>
      <point x="406" y="590" type="curve" smooth="yes"/>
      <point x="406" y="654" type="line" smooth="yes"/>
      <point x="406" y="774"/>
      <point x="346" y="830"/>
      <point x="219" y="830" type="curve" smooth="yes"/>
      <point x="90" y="830"/>
      <point x="30" y="774"/>
      <point x="30" y="655" type="curve" smooth="yes"/>
      <point x="30" y="-60" type="line"/>
      <point x="180" y="-60" type="line"/>
      <point x="180" y="680" type="line" smooth="yes"/>
      <point x="180" y="707"/>
      <point x="192" y="720"/>
      <point x="218" y="720" type="curve" smooth="yes"/>
      <point x="244" y="720"/>
      <point x="256" y="709"/>
      <point x="256" y="685" type="curve" smooth="yes"/>
      <point x="256" y="555" type="line" smooth="yes"/>
      <point x="256" y="535"/>
      <point x="249" y="525"/>
      <point x="233" y="525" type="curve" smooth="yes"/>
      <point x="210" y="525" type="line"/>
      <point x="210" y="415" type="line"/>
      <point x="227" y="415" type="line" smooth="yes"/>
      <point x="247" y="415"/>
      <point x="256" y="407"/>
      <point x="256" y="390" type="curve" smooth="yes"/>
      <point x="256" y="140" type="line" smooth="yes"/>
      <point x="256" y="120"/>
      <point x="247" y="110"/>
      <point x="228" y="110" type="curve" smooth="yes"/>
      <point x="220" y="110"/>
      <point x="212" y="111"/>
      <point x="206" y="112" type="curve"/>
      <point x="206" y="0" type="line"/>
      <point x="220" y="-3"/>
      <point x="238" y="-5"/>
    </contour>
  </outline>
</glyph>
<glyph name="ae" format="2">
	<advance width="611"/>
	<unicode hex="00E6"/>
	<outline>
		<contour>
			<point x="26" y="130" type="line" smooth="yes"/>
			<point x="26" y="35"/>
			<point x="67" y="-10"/>
			<point x="154" y="-10" type="curve" smooth="yes"/>
			<point x="220" y="-10"/>
			<point x="264" y="21"/>
			<point x="292" y="86" type="curve"/>
			<point x="292" y="183" type="line"/>
			<point x="237" y="183" type="line"/>
			<point x="237" y="135" type="line" smooth="yes"/>
			<point x="237" y="111"/>
			<point x="227" y="100"/>
			<point x="207" y="100" type="curve" smooth="yes"/>
			<point x="189" y="100"/>
			<point x="181" y="108"/>
			<point x="181" y="125" type="curve" smooth="yes"/>
			<point x="181" y="210" type="line" smooth="yes"/>
			<point x="181" y="240"/>
			<point x="194" y="263"/>
			<point x="223" y="280" type="curve" smooth="yes"/>
			<point x="267" y="306" type="line"/>
			<point x="267" y="399" type="line"/>
			<point x="143" y="339" type="line" smooth="yes"/>
			<point x="64" y="301"/>
			<point x="26" y="253"/>
			<point x="26" y="190" type="curve" smooth="yes"/>
		</contour>
		<contour>
			<point x="41" y="400" type="line"/>
			<point x="191" y="400" type="line"/>
			<point x="191" y="460" type="line" smooth="yes"/>
			<point x="191" y="480"/>
			<point x="198" y="490"/>
			<point x="214" y="490" type="curve" smooth="yes"/>
			<point x="230" y="490"/>
			<point x="237" y="482"/>
			<point x="237" y="465" type="curve" smooth="yes"/>
			<point x="237" y="166" type="line" smooth="yes"/>
			<point x="237" y="46"/>
			<point x="299" y="-10"/>
			<point x="409" y="-10" type="curve" smooth="yes"/>
			<point x="521" y="-10"/>
			<point x="583" y="46"/>
			<point x="583" y="165" type="curve" smooth="yes"/>
			<point x="583" y="205" type="line"/>
			<point x="443" y="205" type="line"/>
			<point x="443" y="130" type="line" smooth="yes"/>
			<point x="443" y="110"/>
			<point x="431" y="100"/>
			<point x="415" y="100" type="curve" smooth="yes"/>
			<point x="399" y="100"/>
			<point x="387" y="108"/>
			<point x="387" y="125" type="curve" smooth="yes"/>
			<point x="387" y="460" type="line" smooth="yes"/>
			<point x="387" y="480"/>
			<point x="394" y="490"/>
			<point x="410" y="490" type="curve" smooth="yes"/>
			<point x="426" y="490"/>
			<point x="433" y="482"/>
			<point x="433" y="465" type="curve" smooth="yes"/>
			<point x="433" y="300" type="line"/>
			<point x="507" y="374" type="line"/>
			<point x="367" y="374" type="line"/>
			<point x="367" y="274" type="line"/>
			<point x="583" y="274" type="line"/>
			<point x="583" y="424" type="line" smooth="yes"/>
			<point x="583" y="542"/>
			<point x="533" y="600"/>
			<point x="431" y="600" type="curve" smooth="yes"/>
			<point x="368" y="600"/>
			<point x="330" y="579"/>
			<point x="315" y="536" type="curve"/>
			<point x="309" y="536" type="line"/>
			<point x="294" y="579"/>
			<point x="257" y="600"/>
			<point x="195" y="600" type="curve" smooth="yes"/>
			<point x="92" y="600"/>
			<point x="41" y="543"/>
			<point x="41" y="425" type="curve" smooth="yes"/>
		</contour>
	</outline>
</glyph>
<glyph name="eth" format="1">
  <advance width="424"/>
  <unicode hex="00F0"/>
  <outline>
    <contour>
      <point x="26" y="460" type="curve" smooth="yes"/>
      <point x="26" y="166" type="line" smooth="yes"/>
      <point x="26" y="46"/>
      <point x="88" y="-10"/>
      <point x="198" y="-10" type="curve" smooth="yes"/>
      <point x="310" y="-10"/>
      <point x="372" y="46"/>
      <point x="372" y="165" type="curve" smooth="yes"/>
      <point x="372" y="560" type="line" smooth="yes"/>
      <point x="372" y="599"/>
      <point x="367" y="624"/>
      <point x="355" y="656" type="curve" smooth="yes"/>
      <point x="294" y="820" type="line"/>
      <point x="135" y="820" type="line"/>
      <point x="214" y="604" type="line" smooth="yes"/>
      <point x="219" y="591"/>
      <point x="222" y="577"/>
      <point x="222" y="560" type="curve" smooth="yes"/>
      <point x="222" y="130" type="line" smooth="yes"/>
      <point x="222" y="110"/>
      <point x="215" y="100"/>
      <point x="199" y="100" type="curve" smooth="yes"/>
      <point x="183" y="100"/>
      <point x="176" y="108"/>
      <point x="176" y="125" type="curve" smooth="yes"/>
      <point x="176" y="445" type="line" smooth="yes"/>
      <point x="176" y="469"/>
      <point x="184" y="480"/>
      <point x="201" y="480" type="curve" smooth="yes"/>
      <point x="215" y="480"/>
      <point x="222" y="472"/>
      <point x="222" y="455" type="curve"/>
      <point x="237" y="455" type="line"/>
      <point x="237" y="494" type="line"/>
      <point x="217" y="566"/>
      <point x="180" y="600"/>
      <point x="122" y="600" type="curve" smooth="yes"/>
      <point x="57" y="600"/>
      <point x="26" y="555"/>
    </contour>
    <contour>
      <point x="117" y="628" type="line"/>
      <point x="396" y="672" type="line"/>
      <point x="396" y="783" type="line"/>
      <point x="117" y="739" type="line"/>
    </contour>
  </outline>
</glyph>
<glyph name="oslash" format="2">
	<advance width="400"/>
	<unicode hex="00F8"/>
	<outline>
		<contour>
			<point x="-11" y="241" type="line"/>
			<point x="-11" y="150" type="line"/>
			<point x="415" y="354" type="line"/>
			<point x="415" y="445" type="line"/>
		</contour>
		<component base="o"/>
	</outline>
</glyph>
<glyph name="dcroat" format="2">
	<advance width="400"/>
	<unicode hex="0111"/>
	<outline>
		<contour>
			<point x="116" y="630" type="line"/>
			<point x="406" y="630" type="line"/>
			<point x="426" y="740" type="line"/>
			<point x="136" y="740" type="line"/>
		</contour>
		<component base="d"/>
	</outline>
</glyph>
<glyph name="Hbar" format="2">
	<advance width="500"/>
	<unicode hex="0126"/>
	<outline>
		<contour>
			<point x="25" y="700" type="line"/>
			<point x="5" y="580" type="line"/>
			<point x="475" y="580" type="line"/>
			<point x="495" y="700" type="line"/>
		</contour>
		<component base="H" xOffset="9"/>
	</outline>
</glyph>
<glyph name="hbar" format="2">
	<advance width="408"/>
	<unicode hex="0127"/>
	<outline>
		<contour>
			<point x="-26" y="650" type="line"/>
			<point x="224" y="650" type="line"/>
			<point x="244" y="760" type="line"/>
			<point x="-6" y="760" type="line"/>
		</contour>
		<component base="h" xOffset="4"/>
	</outline>
</glyph>
<glyph name="idotless" format="1">
  <advance width="212"/>
  <unicode hex="0131"/>
  <outline>
    <contour>
      <point x="30" y="590" type="line"/>
      <point x="30" y="0" type="line"/>
      <point x="180" y="0" type="line"/>
      <point x="180" y="590" type="line"/>
    </contour>
    <contour>
      <point x="105" y="0" type="move" name="bottom"/>
    </contour>
    <contour>
      <point x="180" y="10" type="move" name="ogonek"/>
    </contour>
    <contour>
      <point x="105" y="590" type="move" name="top"/>
    </contour>
  </outline>
</glyph>
<glyph name="Lslash" format="2">
	<advance width="418"/>
	<unicode hex="0141"/>
	<outline>
		<contour>
			<point x="5" y="378" type="line"/>
			<point x="284" y="422" type="line"/>
			<point x="284" y="533" type="line"/>
			<point x="5" y="489" type="line"/>
		</contour>
		<component base="L" xOffset="25"/>
	</outline>
</glyph>
<glyph name="lslash" format="1">
  <advance width="245"/>
  <unicode hex="0142"/>
  <outline>
    <contour>
      <point x="-7" y="278" type="line"/>
      <point x="242" y="322" type="line"/>
      <point x="242" y="433" type="line"/>
      <point x="-7" y="389" type="line"/>
    </contour>
    <component base="l" xOffset="16"/>
  </outline>
</glyph>
<glyph name="Eng" format="1">
  <advance width="506"/>
  <unicode hex="014A"/>
  <outline>
    <contour>
      <point x="453" y="20" type="line"/>
      <point x="293" y="20" type="line"/>
      <point x="293" y="-12" type="line" smooth="yes"/>
      <point x="293" y="-31"/>
      <point x="284" y="-40"/>
      <point x="265" y="-40" type="curve" smooth="yes"/>
      <point x="258" y="-40"/>
      <point x="250" y="-39"/>
      <point x="243" y="-38" type="curve"/>
      <point x="243" y="-180" type="line"/>
      <point x="272" y="-187"/>
      <point x="301" y="-190"/>
      <point x="331" y="-190" type="curve" smooth="yes"/>
      <point x="413" y="-190"/>
      <point x="453" y="-146"/>
      <point x="453" y="-57" type="curve" smooth="yes"/>
    </contour>
    <component base="N"/>
  </outline>
</glyph>
<glyph name="eng" format="1">
  <advance width="408"/>
  <unicode hex="014B"/>
  <outline>
    <contour>
      <point x="376" y="100" type="line"/>
      <point x="226" y="100" type="line"/>
      <point x="226" y="-42" type="line" smooth="yes"/>
      <point x="226" y="-61"/>
      <point x="217" y="-70"/>
      <point x="198" y="-70" type="curve" smooth="yes"/>
      <point x="190" y="-70"/>
      <point x="182" y="-69"/>
      <point x="176" y="-68" type="curve"/>
      <point x="176" y="-180" type="line"/>
      <point x="207" y="-183"/>
      <point x="232" y="-185"/>
      <point x="254" y="-185" type="curve" smooth="yes"/>
      <point x="337" y="-185"/>
      <point x="376" y="-144"/>
      <point x="376" y="-57" type="curve" smooth="yes"/>
    </contour>
    <component base="n"/>
  </outline>
</glyph>
<glyph name="OE" format="2">
	<advance width="631"/>
	<unicode hex="0152"/>
	<outline>
		<contour>
			<point x="33" y="166" type="line" smooth="yes"/>
			<point x="33" y="55"/>
			<point x="91" y="-10"/>
			<point x="189" y="-10" type="curve" smooth="yes"/>
			<point x="245" y="-10"/>
			<point x="286" y="7"/>
			<point x="300" y="35" type="curve"/>
			<point x="304" y="35" type="line"/>
			<point x="304" y="0" type="line"/>
			<point x="609" y="0" type="line"/>
			<point x="609" y="140" type="line"/>
			<point x="429" y="140" type="line"/>
			<point x="429" y="370" type="line"/>
			<point x="559" y="370" type="line"/>
			<point x="559" y="510" type="line"/>
			<point x="429" y="510" type="line"/>
			<point x="429" y="660" type="line"/>
			<point x="589" y="660" type="line"/>
			<point x="589" y="800" type="line"/>
			<point x="304" y="800" type="line"/>
			<point x="304" y="765" type="line"/>
			<point x="300" y="765" type="line"/>
			<point x="286" y="793"/>
			<point x="246" y="810"/>
			<point x="192" y="810" type="curve" smooth="yes"/>
			<point x="92" y="810"/>
			<point x="33" y="745"/>
			<point x="33" y="635" type="curve" smooth="yes"/>
		</contour>
		<contour>
			<point x="198" y="165" type="curve" smooth="yes"/>
			<point x="198" y="630" type="line" smooth="yes"/>
			<point x="198" y="655"/>
			<point x="210" y="670"/>
			<point x="231" y="670" type="curve" smooth="yes"/>
			<point x="252" y="670"/>
			<point x="264" y="657"/>
			<point x="264" y="635" type="curve" smooth="yes"/>
			<point x="264" y="170" type="line" smooth="yes"/>
			<point x="264" y="145"/>
			<point x="252" y="130"/>
			<point x="231" y="130" type="curve" smooth="yes"/>
			<point x="210" y="130"/>
			<point x="198" y="143"/>
		</contour>
	</outline>
</glyph>
<glyph name="oe" format="1">
  <advance width="596"/>
  <unicode hex="0153"/>
  <outline>
    <contour>
      <point x="26" y="166" type="line" smooth="yes"/>
      <point x="26" y="48"/>
      <point x="74" y="-10"/>
      <point x="173" y="-10" type="curve" smooth="yes"/>
      <point x="245" y="-10"/>
      <point x="285" y="16"/>
      <point x="295" y="68" type="curve"/>
      <point x="301" y="68" type="line"/>
      <point x="310" y="16"/>
      <point x="348" y="-10"/>
      <point x="419" y="-10" type="curve" smooth="yes"/>
      <point x="519" y="-10"/>
      <point x="568" y="47"/>
      <point x="568" y="165" type="curve" smooth="yes"/>
      <point x="568" y="205" type="line"/>
      <point x="428" y="205" type="line"/>
      <point x="428" y="130" type="line" smooth="yes"/>
      <point x="428" y="110"/>
      <point x="419" y="100"/>
      <point x="400" y="100" type="curve" smooth="yes"/>
      <point x="381" y="100"/>
      <point x="372" y="108"/>
      <point x="372" y="125" type="curve" smooth="yes"/>
      <point x="372" y="460" type="line" smooth="yes"/>
      <point x="372" y="480"/>
      <point x="380" y="490"/>
      <point x="395" y="490" type="curve" smooth="yes"/>
      <point x="410" y="490"/>
      <point x="418" y="482"/>
      <point x="418" y="465" type="curve" smooth="yes"/>
      <point x="418" y="300" type="line"/>
      <point x="492" y="374" type="line"/>
      <point x="362" y="374" type="line"/>
      <point x="362" y="274" type="line"/>
      <point x="568" y="274" type="line"/>
      <point x="568" y="424" type="line" smooth="yes"/>
      <point x="568" y="542"/>
      <point x="520" y="600"/>
      <point x="421" y="600" type="curve" smooth="yes"/>
      <point x="347" y="600"/>
      <point x="307" y="574"/>
      <point x="300" y="522" type="curve"/>
      <point x="294" y="522" type="line"/>
      <point x="287" y="574"/>
      <point x="247" y="600"/>
      <point x="175" y="600" type="curve" smooth="yes"/>
      <point x="75" y="600"/>
      <point x="26" y="543"/>
      <point x="26" y="425" type="curve" smooth="yes"/>
    </contour>
    <contour>
      <point x="176" y="125" type="curve" smooth="yes"/>
      <point x="176" y="460" type="line" smooth="yes"/>
      <point x="176" y="480"/>
      <point x="184" y="490"/>
      <point x="199" y="490" type="curve" smooth="yes"/>
      <point x="214" y="490"/>
      <point x="222" y="482"/>
      <point x="222" y="465" type="curve" smooth="yes"/>
      <point x="222" y="130" type="line" smooth="yes"/>
      <point x="222" y="110"/>
      <point x="214" y="100"/>
      <point x="199" y="100" type="curve" smooth="yes"/>
      <point x="184" y="100"/>
      <point x="176" y="108"/>
    </contour>
  </outline>
</glyph>
<glyph name="Tbar" format="1">
  <advance width="409"/>
  <unicode hex="0166"/>
  <outline>
    <contour>
      <point x="52" y="500" type="line"/>
      <point x="32" y="380" type="line"/>
      <point x="357" y="380" type="line"/>
      <point x="377" y="500" type="line"/>
    </contour>
    <component base="T"/>
  </outline>
</glyph>
<glyph name="tbar" format="1">
  <advance width="304"/>
  <unicode hex="0167"/>
  <outline>
    <contour>
      <point x="12" y="260" type="line"/>
      <point x="262" y="260" type="line"/>
      <point x="282" y="370" type="line"/>
      <point x="32" y="370" type="line"/>
    </contour>
    <component base="t" xOffset="10"/>
  </outline>
</glyph>
<glyph name="jdotless" format="2">
	<advance width="216"/>
	<unicode hex="0237"/>
	<anchor x="109" y="590" name="top"/>
	<anchor x="109" y="-180" name="bottom"/>
	<outline>
		<contour>
			<point x="184" y="-57" type="curve" smooth="yes"/>
			<point x="184" y="590" type="line"/>
			<point x="34" y="590" type="line"/>
			<point x="34" y="-42" type="line" smooth="yes"/>
			<point x="34" y="-61"/>
			<point x="25" y="-70"/>
			<point x="6" y="-70" type="curve" smooth="yes"/>
			<point x="-2" y="-70"/>
			<point x="-10" y="-69"/>
			<point x="-16" y="-68" type="curve"/>
			<point x="-16" y="-180" type="line"/>
			<point x="15" y="-183"/>
			<point x="40" y="-185"/>
			<point x="62" y="-185" type="curve" smooth="yes"/>
			<point x="145" y="-185"/>
			<point x="184" y="-144"/>
		</contour>
	</outline>
</glyph>
<glyph name="gravecomb" format="1">
  <advance width="183"/>
  <unicode hex="0300"/>
  <outline>
    <contour>
      <point x="139" y="780" type="line"/>
      <point x="-7" y="780" type="line"/>
      <point x="75" y="640" type="line"/>
      <point x="158" y="640" type="line"/>
    </contour>
    <contour>
      <point x="85" y="590" type="move" name="_top"/>
    </contour>
    <contour>
      <point x="85" y="780" type="move" name="top"/>
    </contour>
  </outline>
</glyph>
<glyph name="acutecomb" format="1">
  <advance width="183"/>
  <unicode hex="0301"/>
  <outline>
    <contour>
      <point x="44" y="780" type="line"/>
      <point x="25" y="640" type="line"/>
      <point x="108" y="640" type="line"/>
      <point x="190" y="780" type="line"/>
    </contour>
    <contour>
      <point x="98" y="590" type="move" name="_top"/>
    </contour>
    <contour>
      <point x="98" y="780" type="move" name="top"/>
    </contour>
  </outline>
</glyph>
<glyph name="circumflexcomb" format="1">
  <advance width="286"/>
  <unicode hex="0302"/>
  <outline>
    <contour>
      <point x="0" y="640" type="line"/>
      <point x="100" y="640" type="line"/>
      <point x="138" y="711" type="line"/>
      <point x="140" y="732" type="line"/>
      <point x="146" y="732" type="line"/>
      <point x="148" y="711" type="line"/>
      <point x="186" y="640" type="line"/>
      <point x="286" y="640" type="line"/>
      <point x="217" y="780" type="line"/>
      <point x="69" y="780" type="line"/>
    </contour>
    <contour>
      <point x="143" y="590" type="move" name="_top"/>
    </contour>
    <contour>
      <point x="143" y="780" type="move" name="top"/>
    </contour>
  </outline>
</glyph>
<glyph name="tildecomb" format="2">
	<advance width="331"/>
	<unicode hex="0303"/>
	<anchor x="166" y="780" name="top"/>
	<anchor x="166" y="590" name="_top"/>
	<outline>
		<contour>
			<point x="18" y="675" type="curve"/>
			<point x="66" y="659" type="line"/>
			<point x="72" y="677"/>
			<point x="87" y="688"/>
			<point x="106" y="688" type="curve" smooth="yes"/>
			<point x="113" y="688"/>
			<point x="123" y="687"/>
			<point x="133" y="684" type="curve" smooth="yes"/>
			<point x="190" y="668" type="line" smooth="yes"/>
			<point x="203" y="664"/>
			<point x="218" y="662"/>
			<point x="229" y="662" type="curve" smooth="yes"/>
			<point x="277" y="662"/>
			<point x="308" y="698"/>
			<point x="313" y="758" type="curve"/>
			<point x="265" y="774" type="line"/>
			<point x="259" y="756"/>
			<point x="244" y="745"/>
			<point x="225" y="745" type="curve" smooth="yes"/>
			<point x="215" y="745"/>
			<point x="205" y="747"/>
			<point x="198" y="749" type="curve" smooth="yes"/>
			<point x="139" y="766" type="line" smooth="yes"/>
			<point x="126" y="770"/>
			<point x="113" y="771"/>
			<point x="102" y="771" type="curve" smooth="yes"/>
			<point x="54" y="771"/>
			<point x="23" y="735"/>
		</contour>
	</outline>
</glyph>
<glyph name="macroncomb" format="1">
  <advance width="338"/>
  <unicode hex="0304"/>
  <outline>
    <contour>
      <point x="34" y="760" type="line"/>
      <point x="34" y="680" type="line"/>
      <point x="304" y="680" type="line"/>
      <point x="304" y="760" type="line"/>
    </contour>
    <contour>
      <point x="169" y="590" type="move" name="_top"/>
    </contour>
    <contour>
      <point x="169" y="760" type="move" name="top"/>
    </contour>
  </outline>
</glyph>
<glyph name="brevecomb" format="2">
	<advance width="312"/>
	<unicode hex="0306"/>
	<anchor x="156" y="780" name="top"/>
	<anchor x="156" y="590" name="_top"/>
	<outline>
		<contour>
			<point x="296" y="770" type="curve"/>
			<point x="216" y="780" type="line"/>
			<point x="216" y="739"/>
			<point x="197" y="720"/>
			<point x="156" y="720" type="curve" smooth="yes"/>
			<point x="115" y="720"/>
			<point x="96" y="739"/>
			<point x="96" y="780" type="curve"/>
			<point x="16" y="770" type="line"/>
			<point x="16" y="682"/>
			<point x="61" y="640"/>
			<point x="156" y="640" type="curve" smooth="yes"/>
			<point x="251" y="640"/>
			<point x="296" y="682"/>
		</contour>
	</outline>
</glyph>
<glyph name="dotaccentcomb" format="2">
	<advance width="218"/>
	<unicode hex="0307"/>
	<anchor x="109" y="780" name="top"/>
	<anchor x="109" y="590" name="_top"/>
	<outline>
		<contour>
			<point x="34" y="780" type="line"/>
			<point x="34" y="640" type="line"/>
			<point x="184" y="640" type="line"/>
			<point x="184" y="780" type="line"/>
		</contour>
	</outline>
</glyph>
<glyph name="dieresiscomb" format="1">
  <advance width="348"/>
  <unicode hex="0308"/>
  <outline>
    <contour>
      <point x="34" y="780" type="line"/>
      <point x="34" y="640" type="line"/>
      <point x="154" y="640" type="line"/>
      <point x="154" y="780" type="line"/>
    </contour>
    <contour>
      <point x="194" y="780" type="line"/>
      <point x="194" y="640" type="line"/>
      <point x="314" y="640" type="line"/>
      <point x="314" y="780" type="line"/>
    </contour>
    <contour>
      <point x="174" y="590" type="move" name="_top"/>
    </contour>
    <contour>
      <point x="174" y="780" type="move" name="top"/>
    </contour>
  </outline>
</glyph>
<glyph name="ringcomb" format="1">
  <advance width="228"/>
  <unicode hex="030A"/>
  <outline>
    <contour>
      <point x="114" y="616" type="curve" smooth="yes"/>
      <point x="173" y="616"/>
      <point x="209" y="652"/>
      <point x="209" y="711" type="curve" smooth="yes"/>
      <point x="209" y="770"/>
      <point x="173" y="806"/>
      <point x="114" y="806" type="curve" smooth="yes"/>
      <point x="55" y="806"/>
      <point x="19" y="770"/>
      <point x="19" y="711" type="curve" smooth="yes"/>
      <point x="19" y="652"/>
      <point x="55" y="616"/>
    </contour>
    <contour>
      <point x="114" y="671" type="curve" smooth="yes"/>
      <point x="92" y="671"/>
      <point x="79" y="686"/>
      <point x="79" y="711" type="curve" smooth="yes"/>
      <point x="79" y="736"/>
      <point x="92" y="751"/>
      <point x="114" y="751" type="curve" smooth="yes"/>
      <point x="136" y="751"/>
      <point x="149" y="736"/>
      <point x="149" y="711" type="curve" smooth="yes"/>
      <point x="149" y="686"/>
      <point x="136" y="671"/>
    </contour>
    <contour>
      <point x="114" y="590" type="move" name="_top"/>
    </contour>
    <contour>
      <point x="114" y="806" type="move" name="top"/>
    </contour>
  </outline>
</glyph>
<glyph name="hungarumlautcomb" format="1">
  <advance width="368"/>
  <unicode hex="030B"/>
  <outline>
    <contour>
      <point x="44" y="780" type="line"/>
      <point x="25" y="640" type="line"/>
      <point x="108" y="640" type="line"/>
      <point x="190" y="780" type="line"/>
    </contour>
    <contour>
      <point x="229" y="780" type="line"/>
      <point x="210" y="640" type="line"/>
      <point x="293" y="640" type="line"/>
      <point x="375" y="780" type="line"/>
    </contour>
    <contour>
      <point x="200" y="590" type="move" name="_top"/>
    </contour>
    <contour>
      <point x="200" y="780" type="move" name="top"/>
    </contour>
  </outline>
</glyph>
<glyph name="commaturnedabovecomb" format="1">
  <advance width="168"/>
  <unicode hex="0312"/>
  <outline>
    <component base="commaaccentcomb" xScale="-1" yScale="-1" xOffset="168" yOffset="610"/>
    <contour>
      <point x="83" y="590" type="move" name="_top"/>
    </contour>
    <contour>
      <point x="83" y="790" type="move" name="top"/>
    </contour>
  </outline>
</glyph>
<glyph name="commaaccentcomb" format="2">
	<advance width="168"/>
	<unicode hex="0326"/>
	<anchor x="84" y="0" name="_bottom"/>
	<anchor x="84" y="-180" name="bottom"/>
	<outline>
		<contour>
			<point x="38" y="-240" type="line"/>
			<point x="96" y="-240" type="line"/>
			<point x="144" y="-146" type="line"/>
			<point x="144" y="-30" type="line"/>
			<point x="24" y="-30" type="line"/>
			<point x="24" y="-146" type="line"/>
			<point x="74" y="-146" type="line"/>
		</contour>
	</outline>
</glyph>
<glyph name="cedillacomb" format="2">
	<advance width="174"/>
	<unicode hex="0327"/>
	<anchor x="81" y="0" name="_bottom"/>
	<anchor x="81" y="-172" name="bottom"/>
	<outline>
		<contour>
			<point x="48" y="20" type="line"/>
			<point x="48" y="-13"/>
			<point x="42" y="-44"/>
			<point x="31" y="-63" type="curve"/>
			<point x="46" y="-83" type="line"/>
			<point x="72" y="-83" type="line" smooth="yes"/>
			<point x="89" y="-83"/>
			<point x="99" y="-90"/>
			<point x="99" y="-101" type="curve" smooth="yes"/>
			<point x="99" y="-112"/>
			<point x="89" y="-119"/>
			<point x="72" y="-119" type="curve" smooth="yes"/>
			<point x="59" y="-119"/>
			<point x="42" y="-117"/>
			<point x="25" y="-114" type="curve"/>
			<point x="13" y="-160" type="line"/>
			<point x="33" y="-168"/>
			<point x="57" y="-172"/>
			<point x="77" y="-172" type="curve" smooth="yes"/>
			<point x="131" y="-172"/>
			<point x="163" y="-147"/>
			<point x="163" y="-105" type="curve" smooth="yes"/>
			<point x="163" y="-71"/>
			<point x="141" y="-46"/>
			<point x="104" y="-38" type="curve"/>
			<point x="109" y="-18"/>
			<point x="112" y="4"/>
			<point x="112" y="20" type="curve"/>
		</contour>
	</outline>
</glyph>
<glyph name="ogonekcomb" format="1">
  <advance width="168"/>
  <unicode hex="0328"/>
  <outline>
    <contour>
      <point x="139" y="0" type="curve"/>
      <point x="129" y="20" type="line"/>
      <point x="70" y="20" type="line"/>
      <point x="38" y="-13"/>
      <point x="19" y="-51"/>
      <point x="19" y="-89" type="curve" smooth="yes"/>
      <point x="19" y="-140"/>
      <point x="49" y="-172"/>
      <point x="112" y="-172" type="curve" smooth="yes"/>
      <point x="126" y="-172"/>
      <point x="140" y="-169"/>
      <point x="154" y="-164" type="curve"/>
      <point x="154" y="-106" type="line"/>
      <point x="147" y="-109"/>
      <point x="139" y="-111"/>
      <point x="129" y="-111" type="curve" smooth="yes"/>
      <point x="109" y="-111"/>
      <point x="97" y="-100"/>
      <point x="97" y="-76" type="curve" smooth="yes"/>
      <point x="97" y="-48"/>
      <point x="110" y="-21"/>
    </contour>
    <contour>
      <point x="139" y="10" type="move" name="_ogonek"/>
    </contour>
  </outline>
</glyph>
<glyph name="endash" format="2">
	<advance width="618"/>
	<unicode hex="2013"/>
	<outline>
		<contour>
			<point x="34" y="243" type="line"/>
			<point x="584" y="243" type="line"/>
			<point x="584" y="353" type="line"/>
			<point x="34" y="353" type="line"/>
		</contour>
	</outline>
</glyph>
<glyph name="emdash" format="1">
  <advance width="762"/>
  <unicode hex="2014"/>
  <outline>
    <contour>
      <point x="34" y="243" type="line"/>
      <point x="728" y="243" type="line"/>
      <point x="728" y="353" type="line"/>
      <point x="34" y="353" type="line"/>
    </contour>
  </outline>
</glyph>
<glyph name="dagger" format="1">
  <advance width="420"/>
  <unicode hex="2020"/>
  <outline>
    <contour>
      <point x="230" y="517" type="curve"/>
      <point x="265" y="514"/>
      <point x="299" y="494"/>
      <point x="336" y="453" type="curve"/>
      <point x="340" y="453" type="line"/>
      <point x="358" y="488"/>
      <point x="380" y="513"/>
      <point x="410" y="533" type="curve"/>
      <point x="410" y="537" type="line"/>
      <point x="380" y="557"/>
      <point x="358" y="582"/>
      <point x="340" y="617" type="curve"/>
      <point x="336" y="617" type="line"/>
      <point x="299" y="576"/>
      <point x="265" y="556"/>
      <point x="230" y="553" type="curve"/>
      <point x="230" y="602"/>
      <point x="252" y="649"/>
      <point x="300" y="701" type="curve"/>
      <point x="300" y="705" type="line"/>
      <point x="260" y="724"/>
      <point x="231" y="748"/>
      <point x="212" y="780" type="curve"/>
      <point x="208" y="780" type="line"/>
      <point x="189" y="748"/>
      <point x="161" y="724"/>
      <point x="120" y="705" type="curve"/>
      <point x="120" y="701" type="line"/>
      <point x="168" y="649"/>
      <point x="190" y="602"/>
      <point x="190" y="553" type="curve"/>
      <point x="155" y="556"/>
      <point x="121" y="576"/>
      <point x="84" y="617" type="curve"/>
      <point x="80" y="617" type="line"/>
      <point x="62" y="582"/>
      <point x="40" y="557"/>
      <point x="10" y="537" type="curve"/>
      <point x="10" y="533" type="line"/>
      <point x="40" y="513"/>
      <point x="62" y="488"/>
      <point x="80" y="453" type="curve"/>
      <point x="84" y="453" type="line"/>
      <point x="121" y="494"/>
      <point x="155" y="514"/>
      <point x="190" y="517" type="curve"/>
      <point x="183" y="472"/>
      <point x="159" y="445"/>
      <point x="115" y="429" type="curve"/>
      <point x="115" y="425" type="line"/>
      <point x="170" y="308"/>
      <point x="180" y="210"/>
      <point x="180" y="33" type="curve" smooth="yes"/>
      <point x="180" y="-85" type="line"/>
      <point x="185" y="-90" type="line"/>
      <point x="235" y="-90" type="line"/>
      <point x="240" y="-85" type="line"/>
      <point x="240" y="33" type="line" smooth="yes"/>
      <point x="240" y="210"/>
      <point x="250" y="308"/>
      <point x="305" y="425" type="curve"/>
      <point x="305" y="429" type="line"/>
      <point x="261" y="445"/>
      <point x="237" y="472"/>
    </contour>
  </outline>
</glyph>
<glyph name="daggerdbl" format="1">
  <advance width="420"/>
  <unicode hex="2021"/>
  <outline>
    <contour>
      <point x="10" y="153" type="line"/>
      <point x="39" y="134"/>
      <point x="61" y="108"/>
      <point x="80" y="73" type="curve"/>
      <point x="84" y="73" type="line"/>
      <point x="122" y="114"/>
      <point x="156" y="134"/>
      <point x="190" y="137" type="curve"/>
      <point x="190" y="88"/>
      <point x="168" y="41"/>
      <point x="120" y="-11" type="curve"/>
      <point x="120" y="-15" type="line"/>
      <point x="161" y="-34"/>
      <point x="189" y="-58"/>
      <point x="208" y="-90" type="curve"/>
      <point x="212" y="-90" type="line"/>
      <point x="231" y="-59"/>
      <point x="259" y="-35"/>
      <point x="300" y="-15" type="curve"/>
      <point x="300" y="-11" type="line"/>
      <point x="252" y="41"/>
      <point x="230" y="88"/>
      <point x="230" y="137" type="curve"/>
      <point x="264" y="134"/>
      <point x="298" y="114"/>
      <point x="336" y="73" type="curve"/>
      <point x="340" y="73" type="line"/>
      <point x="359" y="108"/>
      <point x="381" y="134"/>
      <point x="410" y="153" type="curve"/>
      <point x="410" y="157" type="line"/>
      <point x="381" y="176"/>
      <point x="359" y="202"/>
      <point x="340" y="237" type="curve"/>
      <point x="336" y="237" type="line"/>
      <point x="298" y="196"/>
      <point x="264" y="176"/>
      <point x="230" y="173" type="curve"/>
      <point x="238" y="222"/>
      <point x="255" y="250"/>
      <point x="285" y="261" type="curve"/>
      <point x="285" y="265" type="line"/>
      <point x="258" y="287"/>
      <point x="246" y="312"/>
      <point x="246" y="345" type="curve" smooth="yes"/>
      <point x="246" y="378"/>
      <point x="258" y="403"/>
      <point x="285" y="425" type="curve"/>
      <point x="285" y="429" type="line"/>
      <point x="255" y="440"/>
      <point x="238" y="468"/>
      <point x="230" y="517" type="curve"/>
      <point x="264" y="514"/>
      <point x="298" y="494"/>
      <point x="336" y="453" type="curve"/>
      <point x="340" y="453" type="line"/>
      <point x="359" y="488"/>
      <point x="381" y="514"/>
      <point x="410" y="533" type="curve"/>
      <point x="410" y="537" type="line"/>
      <point x="381" y="556"/>
      <point x="359" y="582"/>
      <point x="340" y="617" type="curve"/>
      <point x="336" y="617" type="line"/>
      <point x="298" y="576"/>
      <point x="264" y="556"/>
      <point x="230" y="553" type="curve"/>
      <point x="230" y="602"/>
      <point x="252" y="649"/>
      <point x="300" y="701" type="curve"/>
      <point x="300" y="705" type="line"/>
      <point x="259" y="725"/>
      <point x="231" y="749"/>
      <point x="212" y="780" type="curve"/>
      <point x="208" y="780" type="line"/>
      <point x="189" y="748"/>
      <point x="161" y="724"/>
      <point x="120" y="705" type="curve"/>
      <point x="120" y="701" type="line"/>
      <point x="168" y="649"/>
      <point x="190" y="602"/>
      <point x="190" y="553" type="curve"/>
      <point x="156" y="556"/>
      <point x="122" y="576"/>
      <point x="84" y="617" type="curve"/>
      <point x="80" y="617" type="line"/>
      <point x="61" y="582"/>
      <point x="39" y="556"/>
      <point x="10" y="537" type="curve"/>
      <point x="10" y="533" type="line"/>
      <point x="39" y="514"/>
      <point x="61" y="488"/>
      <point x="80" y="453" type="curve"/>
      <point x="84" y="453" type="line"/>
      <point x="122" y="494"/>
      <point x="156" y="514"/>
      <point x="190" y="517" type="curve"/>
      <point x="182" y="468"/>
      <point x="165" y="440"/>
      <point x="135" y="429" type="curve"/>
      <point x="135" y="425" type="line"/>
      <point x="162" y="407"/>
      <point x="174" y="382"/>
      <point x="174" y="345" type="curve" smooth="yes"/>
      <point x="174" y="308"/>
      <point x="162" y="283"/>
      <point x="135" y="265" type="curve"/>
      <point x="135" y="261" type="line"/>
      <point x="165" y="250"/>
      <point x="182" y="222"/>
      <point x="190" y="173" type="curve"/>
      <point x="156" y="176"/>
      <point x="122" y="196"/>
      <point x="84" y="237" type="curve"/>
      <point x="80" y="237" type="line"/>
      <point x="61" y="202"/>
      <point x="39" y="176"/>
      <point x="10" y="157" type="curve"/>
    </contour>
  </outline>
</glyph>
<glyph name="guilsinglright" format="1">
  <advance width="336"/>
  <unicode hex="203A"/>
  <outline>
    <contour>
      <point x="178" y="493" type="line"/>
      <point x="48" y="493" type="line"/>
      <point x="148" y="290" type="line"/>
      <point x="48" y="87" type="line"/>
      <point x="178" y="87" type="line"/>
      <point x="288" y="290" type="line"/>
    </contour>
  </outline>
</glyph>
<glyph name="euro" format="2">
	<advance width="474"/>
	<unicode hex="20AC"/>
	<outline>
		<contour>
			<point x="452" y="235" type="line"/>
			<point x="287" y="235" type="line"/>
			<point x="287" y="170" type="line" smooth="yes"/>
			<point x="287" y="143"/>
			<point x="276" y="130"/>
			<point x="254" y="130" type="curve" smooth="yes"/>
			<point x="232" y="130"/>
			<point x="221" y="141"/>
			<point x="221" y="165" type="curve" smooth="yes"/>
			<point x="221" y="630" type="line" smooth="yes"/>
			<point x="221" y="657"/>
			<point x="232" y="670"/>
			<point x="254" y="670" type="curve" smooth="yes"/>
			<point x="276" y="670"/>
			<point x="287" y="659"/>
			<point x="287" y="635" type="curve" smooth="yes"/>
			<point x="287" y="565" type="line"/>
			<point x="452" y="565" type="line"/>
			<point x="452" y="634" type="line" smooth="yes"/>
			<point x="452" y="754"/>
			<point x="389" y="810"/>
			<point x="255" y="810" type="curve" smooth="yes"/>
			<point x="120" y="810"/>
			<point x="56" y="754"/>
			<point x="56" y="635" type="curve" smooth="yes"/>
			<point x="56" y="166" type="line" smooth="yes"/>
			<point x="56" y="46"/>
			<point x="119" y="-10"/>
			<point x="253" y="-10" type="curve" smooth="yes"/>
			<point x="388" y="-10"/>
			<point x="452" y="46"/>
			<point x="452" y="165" type="curve" smooth="yes"/>
		</contour>
		<contour>
			<point x="6" y="285" type="line"/>
			<point x="336" y="285" type="line"/>
			<point x="356" y="375" type="line"/>
			<point x="26" y="375" type="line"/>
		</contour>
		<contour>
			<point x="6" y="425" type="line"/>
			<point x="336" y="425" type="line"/>
			<point x="356" y="515" type="line"/>
			<point x="26" y="515" type="line"/>
		</contour>
	</outline>
</glyph>
<glyph name="trademark" format="1">
  <advance width="424"/>
  <unicode hex="2122"/>
  <outline>
    <contour>
      <point x="17" y="820" type="line"/>
      <point x="17" y="768" type="line"/>
      <point x="58" y="768" type="line"/>
      <point x="58" y="590" type="line"/>
      <point x="119" y="590" type="line"/>
      <point x="119" y="768" type="line"/>
      <point x="160" y="768" type="line"/>
      <point x="160" y="820" type="line"/>
    </contour>
    <contour>
      <point x="414" y="590" type="line"/>
      <point x="414" y="820" type="line"/>
      <point x="322" y="820" type="line"/>
      <point x="297" y="696" type="line"/>
      <point x="295" y="665" type="line"/>
      <point x="291" y="665" type="line"/>
      <point x="289" y="696" type="line"/>
      <point x="264" y="820" type="line"/>
      <point x="178" y="820" type="line"/>
      <point x="178" y="590" type="line"/>
      <point x="231" y="590" type="line"/>
      <point x="231" y="711" type="line"/>
      <point x="228" y="768" type="line"/>
      <point x="232" y="768" type="line"/>
      <point x="239" y="711" type="line"/>
      <point x="266" y="590" type="line"/>
      <point x="319" y="590" type="line"/>
      <point x="345" y="711" type="line"/>
      <point x="352" y="768" type="line"/>
      <point x="357" y="768" type="line"/>
      <point x="353" y="711" type="line"/>
      <point x="353" y="590" type="line"/>
    </contour>
  </outline>
</glyph>
<glyph name="lozenge" format="1">
  <advance width="601"/>
  <unicode hex="25CA"/>
  <outline>
    <contour>
      <point x="33" y="400" type="line"/>
      <point x="203" y="0" type="line"/>
      <point x="398" y="0" type="line"/>
      <point x="568" y="400" type="line"/>
      <point x="398" y="800" type="line"/>
      <point x="203" y="800" type="line"/>
    </contour>
    <contour>
      <point x="398" y="400" type="line"/>
      <point x="309" y="146" type="line"/>
      <point x="303" y="94" type="line"/>
      <point x="297" y="94" type="line"/>
      <point x="292" y="146" type="line"/>
      <point x="203" y="400" type="line"/>
      <point x="292" y="654" type="line"/>
      <point x="298" y="706" type="line"/>
      <point x="304" y="706" type="line"/>
      <point x="309" y="654" type="line"/>
    </contour>
  </outline>
</glyph>
<glyph name="G.ss02" format="2">
	<advance width="451"/>
	<anchor x="231" y="800" name="top"/>
	<anchor x="231" y="0" name="bottom"/>
	<outline>
		<contour>
			<point x="429" y="420" type="line"/>
			<point x="229" y="420" type="line"/>
			<point x="229" y="280" type="line"/>
			<point x="264" y="280" type="line"/>
			<point x="264" y="170" type="line" smooth="yes"/>
			<point x="264" y="143"/>
			<point x="253" y="130"/>
			<point x="231" y="130" type="curve" smooth="yes"/>
			<point x="209" y="130"/>
			<point x="198" y="141"/>
			<point x="198" y="165" type="curve" smooth="yes"/>
			<point x="198" y="630" type="line" smooth="yes"/>
			<point x="198" y="657"/>
			<point x="209" y="670"/>
			<point x="231" y="670" type="curve" smooth="yes"/>
			<point x="253" y="670"/>
			<point x="264" y="659"/>
			<point x="264" y="635" type="curve" smooth="yes"/>
			<point x="264" y="524" type="line"/>
			<point x="429" y="524" type="line"/>
			<point x="429" y="634" type="line" smooth="yes"/>
			<point x="429" y="754"/>
			<point x="366" y="810"/>
			<point x="232" y="810" type="curve" smooth="yes"/>
			<point x="97" y="810"/>
			<point x="33" y="754"/>
			<point x="33" y="635" type="curve" smooth="yes"/>
			<point x="33" y="166" type="line" smooth="yes"/>
			<point x="33" y="55"/>
			<point x="91" y="-10"/>
			<point x="190" y="-10" type="curve" smooth="yes"/>
			<point x="258" y="-10"/>
			<point x="307" y="23"/>
			<point x="323" y="80" type="curve"/>
			<point x="329" y="80" type="line"/>
			<point x="339" y="0" type="line"/>
			<point x="429" y="0" type="line"/>
		</contour>
	</outline>
</glyph>
<glyph name="J.ss03" format="1">
  <advance width="275"/>
  <outline>
    <contour>
      <point x="232" y="123" type="curve" smooth="yes"/>
      <point x="232" y="800" type="line"/>
      <point x="67" y="800" type="line"/>
      <point x="67" y="168" type="line" smooth="yes"/>
      <point x="67" y="149"/>
      <point x="58" y="140"/>
      <point x="39" y="140" type="curve" smooth="yes"/>
      <point x="31" y="140"/>
      <point x="23" y="141"/>
      <point x="17" y="142" type="curve"/>
      <point x="17" y="0" type="line"/>
      <point x="47" y="-7"/>
      <point x="77" y="-10"/>
      <point x="110" y="-10" type="curve" smooth="yes"/>
      <point x="193" y="-10"/>
      <point x="232" y="33"/>
    </contour>
  </outline>
</glyph>
<glyph name="K.ss04" format="2">
	<advance width="477"/>
	<anchor x="240" y="800" name="top"/>
	<anchor x="240" y="0" name="bottom"/>
	<outline>
		<contour>
			<point x="43" y="0" type="line"/>
			<point x="208" y="0" type="line"/>
			<point x="208" y="339" type="line"/>
			<point x="204" y="394" type="line"/>
			<point x="210" y="394" type="line"/>
			<point x="219" y="339" type="line"/>
			<point x="297" y="0" type="line"/>
			<point x="462" y="0" type="line"/>
			<point x="363" y="432" type="line"/>
			<point x="457" y="800" type="line"/>
			<point x="292" y="800" type="line"/>
			<point x="219" y="493" type="line"/>
			<point x="210" y="438" type="line"/>
			<point x="204" y="438" type="line"/>
			<point x="208" y="493" type="line"/>
			<point x="208" y="800" type="line"/>
			<point x="43" y="800" type="line"/>
		</contour>
	</outline>
</glyph>
<glyph name="R.ss05" format="2">
	<advance width="498"/>
	<anchor x="248" y="800" name="top"/>
	<anchor x="248" y="0" name="bottom"/>
	<outline>
		<contour>
			<point x="43" y="0" type="line"/>
			<point x="208" y="0" type="line"/>
			<point x="208" y="330" type="line"/>
			<point x="242" y="330" type="line" smooth="yes"/>
			<point x="275" y="330"/>
			<point x="280" y="311"/>
			<point x="280" y="270" type="curve" smooth="yes"/>
			<point x="280" y="80" type="line" smooth="yes"/>
			<point x="280" y="50"/>
			<point x="286" y="20"/>
			<point x="297" y="0" type="curve"/>
			<point x="456" y="0" type="line"/>
			<point x="458" y="4" type="line"/>
			<point x="447" y="26"/>
			<point x="440" y="59"/>
			<point x="440" y="89" type="curve" smooth="yes"/>
			<point x="440" y="264" type="line" smooth="yes"/>
			<point x="440" y="344"/>
			<point x="410" y="392"/>
			<point x="358" y="394" type="curve"/>
			<point x="358" y="400" type="line"/>
			<point x="406" y="406"/>
			<point x="435" y="445"/>
			<point x="435" y="505" type="curve" smooth="yes"/>
			<point x="435" y="624" type="line" smooth="yes"/>
			<point x="435" y="744"/>
			<point x="372" y="800"/>
			<point x="238" y="800" type="curve" smooth="yes"/>
			<point x="43" y="800" type="line"/>
		</contour>
		<contour>
			<point x="208" y="460" type="line"/>
			<point x="208" y="660" type="line"/>
			<point x="237" y="660" type="line" smooth="yes"/>
			<point x="259" y="660"/>
			<point x="270" y="649"/>
			<point x="270" y="625" type="curve" smooth="yes"/>
			<point x="270" y="500" type="line" smooth="yes"/>
			<point x="270" y="473"/>
			<point x="259" y="460"/>
			<point x="237" y="460" type="curve" smooth="yes"/>
		</contour>
	</outline>
</glyph>
<glyph name="a.sc" format="2">
	<advance width="460"/>
	<anchor x="445" y="10" name="ogonek"/>
	<anchor x="231" y="0" name="bottom"/>
	<anchor x="226" y="620" name="top"/>
	<outline>
		<contour>
			<point x="445" y="0" type="line"/>
			<point x="356" y="620" type="line"/>
			<point x="96" y="620" type="line"/>
			<point x="17" y="0" type="line"/>
			<point x="182" y="0" type="line"/>
			<point x="220" y="445" type="line"/>
			<point x="223" y="510" type="line"/>
			<point x="229" y="510" type="line"/>
			<point x="232" y="445" type="line"/>
			<point x="270" y="0" type="line"/>
		</contour>
		<contour>
			<point x="67" y="240" type="line"/>
			<point x="67" y="100" type="line"/>
			<point x="392" y="100" type="line"/>
			<point x="392" y="240" type="line"/>
		</contour>
	</outline>
</glyph>
<glyph name="a.ss01" format="1">
  <advance width="404"/>
  <outline>
    <contour>
      <point x="222" y="80" type="line" smooth="yes"/>
      <point x="222" y="48"/>
      <point x="228" y="18"/>
      <point x="239" y="0" type="curve"/>
      <point x="388" y="0" type="line"/>
      <point x="390" y="4" type="line"/>
      <point x="379" y="26"/>
      <point x="372" y="59"/>
      <point x="372" y="89" type="curve" smooth="yes"/>
      <point x="372" y="590" type="line"/>
      <point x="232" y="590" type="line"/>
      <point x="222" y="510" type="line"/>
    </contour>
    <contour>
      <point x="237" y="474" type="line"/>
      <point x="228" y="553"/>
      <point x="189" y="600"/>
      <point x="132" y="600" type="curve" smooth="yes"/>
      <point x="65" y="600"/>
      <point x="26" y="548"/>
      <point x="26" y="460" type="curve" smooth="yes"/>
      <point x="26" y="130" type="line" smooth="yes"/>
      <point x="26" y="35"/>
      <point x="57" y="-10"/>
      <point x="122" y="-10" type="curve" smooth="yes"/>
      <point x="180" y="-10"/>
      <point x="217" y="24"/>
      <point x="237" y="96" type="curve"/>
      <point x="237" y="145" type="line"/>
      <point x="222" y="145" type="line"/>
      <point x="222" y="121"/>
      <point x="214" y="110"/>
      <point x="197" y="110" type="curve" smooth="yes"/>
      <point x="183" y="110"/>
      <point x="176" y="118"/>
      <point x="176" y="135" type="curve" smooth="yes"/>
      <point x="176" y="445" type="line" smooth="yes"/>
      <point x="176" y="469"/>
      <point x="184" y="480"/>
      <point x="201" y="480" type="curve" smooth="yes"/>
      <point x="215" y="480"/>
      <point x="222" y="472"/>
      <point x="222" y="455" type="curve"/>
      <point x="237" y="455" type="line"/>
    </contour>
    <contour>
      <point x="181" y="0" type="move" name="bottom"/>
    </contour>
    <contour>
      <point x="379" y="10" type="move" name="ogonek"/>
    </contour>
    <contour>
      <point x="201" y="590" type="move" name="top"/>
    </contour>
  </outline>
</glyph>
<glyph name="ae.sc" format="1">
  <advance width="619"/>
  <outline>
    <contour>
      <point x="17" y="0" type="line"/>
      <point x="182" y="0" type="line"/>
      <point x="245" y="480" type="line"/>
      <point x="252" y="480" type="line"/>
      <point x="252" y="0" type="line"/>
      <point x="597" y="0" type="line"/>
      <point x="597" y="140" type="line"/>
      <point x="417" y="140" type="line"/>
      <point x="417" y="250" type="line"/>
      <point x="547" y="250" type="line"/>
      <point x="547" y="390" type="line"/>
      <point x="417" y="390" type="line"/>
      <point x="417" y="480" type="line"/>
      <point x="577" y="480" type="line"/>
      <point x="577" y="620" type="line"/>
      <point x="106" y="620" type="line"/>
    </contour>
    <contour>
      <point x="67" y="240" type="line"/>
      <point x="67" y="100" type="line"/>
      <point x="392" y="100" type="line"/>
      <point x="392" y="240" type="line"/>
    </contour>
  </outline>
</glyph>
<glyph name="b.sc" format="2">
	<advance width="477"/>
	<outline>
		<contour>
			<point x="30" y="0" type="line"/>
			<point x="225" y="0" type="line" smooth="yes"/>
			<point x="369" y="0"/>
			<point x="437" y="50"/>
			<point x="437" y="156" type="curve" smooth="yes"/>
			<point x="437" y="205" type="line" smooth="yes"/>
			<point x="437" y="261"/>
			<point x="409" y="307"/>
			<point x="361" y="328" type="curve"/>
			<point x="361" y="332" type="line"/>
			<point x="399" y="346"/>
			<point x="422" y="381"/>
			<point x="422" y="425" type="curve" smooth="yes"/>
			<point x="422" y="464" type="line" smooth="yes"/>
			<point x="422" y="570"/>
			<point x="359" y="620"/>
			<point x="225" y="620" type="curve" smooth="yes"/>
			<point x="30" y="620" type="line"/>
		</contour>
		<contour>
			<point x="195" y="140" type="line"/>
			<point x="195" y="255" type="line"/>
			<point x="234" y="255" type="line" smooth="yes"/>
			<point x="260" y="255"/>
			<point x="272" y="245"/>
			<point x="272" y="225" type="curve" smooth="yes"/>
			<point x="272" y="165" type="line" smooth="yes"/>
			<point x="272" y="148"/>
			<point x="260" y="140"/>
			<point x="234" y="140" type="curve" smooth="yes"/>
		</contour>
		<contour>
			<point x="195" y="375" type="line"/>
			<point x="195" y="480" type="line"/>
			<point x="224" y="480" type="line" smooth="yes"/>
			<point x="246" y="480"/>
			<point x="257" y="472"/>
			<point x="257" y="455" type="curve" smooth="yes"/>
			<point x="257" y="405" type="line" smooth="yes"/>
			<point x="257" y="385"/>
			<point x="246" y="375"/>
			<point x="224" y="375" type="curve" smooth="yes"/>
		</contour>
	</outline>
</glyph>
<glyph name="caroncomb.alt" format="2">
	<advance width="146"/>
	<anchor x="9" y="820" name="_topright"/>
	<outline>
		<contour>
			<point x="34" y="620" type="line"/>
			<point x="82" y="620" type="line"/>
			<point x="124" y="734" type="line"/>
			<point x="124" y="820" type="line"/>
			<point x="34" y="820" type="line"/>
		</contour>
	</outline>
</glyph>
<glyph name="circumflexcomb.alt" format="2">
	<advance width="246"/>
	<anchor x="123" y="780" name="top"/>
	<anchor x="123" y="590" name="_top"/>
	<outline>
		<contour>
			<point x="0" y="640" type="line"/>
			<point x="100" y="640" type="line"/>
			<point x="119" y="712" type="line"/>
			<point x="120" y="732" type="line"/>
			<point x="126" y="732" type="line"/>
			<point x="127" y="712" type="line"/>
			<point x="146" y="640" type="line"/>
			<point x="246" y="640" type="line"/>
			<point x="197" y="780" type="line"/>
			<point x="49" y="780" type="line"/>
		</contour>
	</outline>
</glyph>
<glyph name="d.sc" format="1">
  <advance width="460"/>
  <outline>
    <contour>
      <point x="30" y="0" type="line"/>
      <point x="233" y="0" type="line" smooth="yes"/>
      <point x="368" y="0"/>
      <point x="432" y="50"/>
      <point x="432" y="155" type="curve" smooth="yes"/>
      <point x="432" y="464" type="line" smooth="yes"/>
      <point x="432" y="570"/>
      <point x="369" y="620"/>
      <point x="235" y="620" type="curve" smooth="yes"/>
      <point x="30" y="620" type="line"/>
    </contour>
    <contour>
      <point x="195" y="140" type="line"/>
      <point x="195" y="480" type="line"/>
      <point x="234" y="480" type="line" smooth="yes"/>
      <point x="256" y="480"/>
      <point x="267" y="479"/>
      <point x="267" y="455" type="curve" smooth="yes"/>
      <point x="267" y="170" type="line" smooth="yes"/>
      <point x="267" y="143"/>
      <point x="256" y="140"/>
      <point x="234" y="140" type="curve" smooth="yes"/>
    </contour>
    <contour>
      <point x="231" y="0" type="move" name="bottom"/>
    </contour>
    <contour>
      <point x="231" y="340" type="move" name="center"/>
    </contour>
    <contour>
      <point x="230" y="620" type="move" name="top"/>
    </contour>
  </outline>
</glyph>
<glyph name="dieresiscomb.alt" format="1">
  <advance width="348"/>
  <outline>
    <contour>
      <point x="86" y="780" type="line"/>
      <point x="86" y="640" type="line"/>
      <point x="181" y="640" type="line"/>
      <point x="181" y="780" type="line"/>
    </contour>
    <contour>
      <point x="221" y="780" type="line"/>
      <point x="221" y="640" type="line"/>
      <point x="316" y="640" type="line"/>
      <point x="316" y="780" type="line"/>
    </contour>
    <contour>
      <point x="174" y="590" type="move" name="_top"/>
    </contour>
    <contour>
      <point x="174" y="780" type="move" name="top"/>
    </contour>
  </outline>
</glyph>
<glyph name="e.sc" format="1">
  <advance width="417"/>
  <outline>
    <contour>
      <point x="30" y="0" type="line"/>
      <point x="395" y="0" type="line"/>
      <point x="395" y="140" type="line"/>
      <point x="195" y="140" type="line"/>
      <point x="195" y="250" type="line"/>
      <point x="345" y="250" type="line"/>
      <point x="345" y="390" type="line"/>
      <point x="195" y="390" type="line"/>
      <point x="195" y="480" type="line"/>
      <point x="375" y="480" type="line"/>
      <point x="375" y="620" type="line"/>
      <point x="30" y="620" type="line"/>
    </contour>
    <contour>
      <point x="213" y="0" type="move" name="bottom"/>
    </contour>
    <contour>
      <point x="395" y="10" type="move" name="ogonek"/>
    </contour>
    <contour>
      <point x="213" y="620" type="move" name="top"/>
    </contour>
    <contour>
      <point x="15" y="620" type="move" name="topleft"/>
    </contour>
  </outline>
</glyph>
<glyph name="eng.sc" format="2">
	<advance width="510"/>
	<outline>
		<contour>
			<point x="467" y="124" type="line"/>
			<point x="307" y="124" type="line"/>
			<point x="307" y="-12" type="line" smooth="yes"/>
			<point x="307" y="-31"/>
			<point x="298" y="-40"/>
			<point x="279" y="-40" type="curve" smooth="yes"/>
			<point x="270" y="-40"/>
			<point x="262" y="-39"/>
			<point x="257" y="-38" type="curve"/>
			<point x="257" y="-180" type="line"/>
			<point x="286" y="-187"/>
			<point x="314" y="-190"/>
			<point x="345" y="-190" type="curve" smooth="yes"/>
			<point x="428" y="-190"/>
			<point x="467" y="-147"/>
			<point x="467" y="-57" type="curve" smooth="yes"/>
		</contour>
		<component base="n.sc" xOffset="13"/>
	</outline>
</glyph>
<glyph name="eth.sc" format="2">
	<advance width="480"/>
	<outline>
		<contour>
			<point x="25" y="370" type="line"/>
			<point x="5" y="270" type="line"/>
			<point x="250" y="270" type="line"/>
			<point x="270" y="370" type="line"/>
		</contour>
		<component base="d.sc" xOffset="20"/>
	</outline>
</glyph>
<glyph name="f.sc" format="1">
  <advance width="397"/>
  <outline>
    <contour>
      <point x="30" y="0" type="line"/>
      <point x="195" y="0" type="line"/>
      <point x="195" y="250" type="line"/>
      <point x="345" y="250" type="line"/>
      <point x="345" y="390" type="line"/>
      <point x="195" y="390" type="line"/>
      <point x="195" y="480" type="line"/>
      <point x="375" y="480" type="line"/>
      <point x="375" y="620" type="line"/>
      <point x="30" y="620" type="line"/>
    </contour>
  </outline>
</glyph>
<glyph name="f_f" format="1">
  <advance width="534"/>
  <outline>
    <contour>
      <point x="62" y="0" type="line"/>
      <point x="212" y="0" type="line"/>
      <point x="212" y="682" type="line" smooth="yes"/>
      <point x="212" y="701"/>
      <point x="221" y="710"/>
      <point x="240" y="710" type="curve" smooth="yes"/>
      <point x="248" y="710"/>
      <point x="256" y="709"/>
      <point x="262" y="708" type="curve"/>
      <point x="262" y="820" type="line"/>
      <point x="233" y="823"/>
      <point x="208" y="825"/>
      <point x="184" y="825" type="curve" smooth="yes"/>
      <point x="101" y="825"/>
      <point x="62" y="786"/>
      <point x="62" y="702" type="curve" smooth="yes"/>
    </contour>
    <contour>
      <point x="312" y="0" type="line"/>
      <point x="462" y="0" type="line"/>
      <point x="462" y="682" type="line" smooth="yes"/>
      <point x="462" y="701"/>
      <point x="471" y="710"/>
      <point x="490" y="710" type="curve" smooth="yes"/>
      <point x="498" y="710"/>
      <point x="506" y="709"/>
      <point x="512" y="708" type="curve"/>
      <point x="512" y="820" type="line"/>
      <point x="483" y="823"/>
      <point x="458" y="825"/>
      <point x="434" y="825" type="curve" smooth="yes"/>
      <point x="351" y="825"/>
      <point x="312" y="786"/>
      <point x="312" y="702" type="curve" smooth="yes"/>
    </contour>
    <contour>
      <point x="12" y="590" type="line"/>
      <point x="12" y="480" type="line"/>
      <point x="512" y="480" type="line"/>
      <point x="512" y="590" type="line"/>
    </contour>
  </outline>
</glyph>
<glyph name="f_f_jdotless" format="1">
  <advance width="746"/>
  <outline>
    <contour>
      <point x="62" y="0" type="line"/>
      <point x="212" y="0" type="line"/>
      <point x="212" y="682" type="line" smooth="yes"/>
      <point x="212" y="701"/>
      <point x="221" y="710"/>
      <point x="240" y="710" type="curve" smooth="yes"/>
      <point x="248" y="710"/>
      <point x="256" y="709"/>
      <point x="262" y="708" type="curve"/>
      <point x="262" y="820" type="line"/>
      <point x="233" y="823"/>
      <point x="208" y="825"/>
      <point x="184" y="825" type="curve" smooth="yes"/>
      <point x="101" y="825"/>
      <point x="62" y="786"/>
      <point x="62" y="702" type="curve" smooth="yes"/>
    </contour>
    <contour>
      <point x="312" y="0" type="line"/>
      <point x="462" y="0" type="line"/>
      <point x="462" y="682" type="line" smooth="yes"/>
      <point x="462" y="701"/>
      <point x="471" y="710"/>
      <point x="490" y="710" type="curve" smooth="yes"/>
      <point x="498" y="710"/>
      <point x="506" y="709"/>
      <point x="512" y="708" type="curve"/>
      <point x="512" y="820" type="line"/>
      <point x="483" y="823"/>
      <point x="458" y="825"/>
      <point x="434" y="825" type="curve" smooth="yes"/>
      <point x="351" y="825"/>
      <point x="312" y="786"/>
      <point x="312" y="702" type="curve" smooth="yes"/>
    </contour>
    <contour>
      <point x="12" y="480" type="line"/>
      <point x="564" y="480" type="line"/>
      <point x="564" y="-42" type="line" smooth="yes"/>
      <point x="564" y="-61"/>
      <point x="555" y="-70"/>
      <point x="536" y="-70" type="curve" smooth="yes"/>
      <point x="528" y="-70"/>
      <point x="520" y="-69"/>
      <point x="514" y="-68" type="curve"/>
      <point x="514" y="-180" type="line"/>
      <point x="545" y="-183"/>
      <point x="570" y="-185"/>
      <point x="592" y="-185" type="curve" smooth="yes"/>
      <point x="675" y="-185"/>
      <point x="714" y="-144"/>
      <point x="714" y="-57" type="curve" smooth="yes"/>
      <point x="714" y="590" type="line"/>
      <point x="12" y="590" type="line"/>
    </contour>
    <contour>
      <point x="639" y="-180" type="move" name="bottom"/>
    </contour>
    <contour>
      <point x="639" y="590" type="move" name="top"/>
    </contour>
  </outline>
</glyph>
<glyph name="f_f_t" format="1">
  <advance width="774"/>
  <outline>
    <contour>
      <point x="62" y="0" type="line"/>
      <point x="212" y="0" type="line"/>
      <point x="212" y="682" type="line" smooth="yes"/>
      <point x="212" y="701"/>
      <point x="221" y="710"/>
      <point x="240" y="710" type="curve" smooth="yes"/>
      <point x="248" y="710"/>
      <point x="256" y="709"/>
      <point x="262" y="708" type="curve"/>
      <point x="262" y="820" type="line"/>
      <point x="233" y="823"/>
      <point x="208" y="825"/>
      <point x="184" y="825" type="curve" smooth="yes"/>
      <point x="101" y="825"/>
      <point x="62" y="786"/>
      <point x="62" y="702" type="curve" smooth="yes"/>
    </contour>
    <contour>
      <point x="312" y="0" type="line"/>
      <point x="462" y="0" type="line"/>
      <point x="462" y="682" type="line" smooth="yes"/>
      <point x="462" y="701"/>
      <point x="471" y="710"/>
      <point x="490" y="710" type="curve" smooth="yes"/>
      <point x="498" y="710"/>
      <point x="506" y="709"/>
      <point x="512" y="708" type="curve"/>
      <point x="512" y="820" type="line"/>
      <point x="483" y="823"/>
      <point x="458" y="825"/>
      <point x="434" y="825" type="curve" smooth="yes"/>
      <point x="351" y="825"/>
      <point x="312" y="786"/>
      <point x="312" y="702" type="curve" smooth="yes"/>
    </contour>
    <contour>
      <point x="552" y="123" type="line" smooth="yes"/>
      <point x="552" y="39"/>
      <point x="591" y="-5"/>
      <point x="674" y="-5" type="curve" smooth="yes"/>
      <point x="698" y="-5"/>
      <point x="723" y="-3"/>
      <point x="752" y="0" type="curve"/>
      <point x="752" y="112" type="line"/>
      <point x="746" y="111"/>
      <point x="738" y="110"/>
      <point x="730" y="110" type="curve" smooth="yes"/>
      <point x="711" y="110"/>
      <point x="702" y="119"/>
      <point x="702" y="138" type="curve" smooth="yes"/>
      <point x="702" y="740" type="line"/>
      <point x="632" y="740" type="line"/>
      <point x="552" y="670" type="line"/>
    </contour>
    <contour>
      <point x="12" y="590" type="line"/>
      <point x="12" y="480" type="line"/>
      <point x="752" y="480" type="line"/>
      <point x="752" y="590" type="line"/>
    </contour>
    <contour>
      <point x="674" y="0" type="move" name="bottom"/>
    </contour>
    <contour>
      <point x="626" y="295" type="move" name="center"/>
    </contour>
    <contour>
      <point x="626" y="590" type="move" name="top"/>
    </contour>
    <contour>
      <point x="755" y="820" type="move" name="topright"/>
    </contour>
  </outline>
</glyph>
<glyph name="f_f_tbar" format="1">
  <advance width="784"/>
  <outline>
    <contour>
      <point x="492" y="260" type="line"/>
      <point x="742" y="260" type="line"/>
      <point x="762" y="370" type="line"/>
      <point x="512" y="370" type="line"/>
    </contour>
    <component base="f_f_t"/>
  </outline>
</glyph>
<glyph name="f_jdotless" format="1">
  <advance width="496"/>
  <outline>
    <contour>
      <point x="62" y="0" type="line"/>
      <point x="212" y="0" type="line"/>
      <point x="212" y="682" type="line" smooth="yes"/>
      <point x="212" y="701"/>
      <point x="221" y="710"/>
      <point x="240" y="710" type="curve" smooth="yes"/>
      <point x="248" y="710"/>
      <point x="256" y="709"/>
      <point x="262" y="708" type="curve"/>
      <point x="262" y="820" type="line"/>
      <point x="233" y="823"/>
      <point x="208" y="825"/>
      <point x="184" y="825" type="curve" smooth="yes"/>
      <point x="101" y="825"/>
      <point x="62" y="786"/>
      <point x="62" y="702" type="curve" smooth="yes"/>
    </contour>
    <contour>
      <point x="12" y="480" type="line"/>
      <point x="314" y="480" type="line"/>
      <point x="314" y="-42" type="line" smooth="yes"/>
      <point x="314" y="-61"/>
      <point x="305" y="-70"/>
      <point x="286" y="-70" type="curve" smooth="yes"/>
      <point x="278" y="-70"/>
      <point x="270" y="-69"/>
      <point x="264" y="-68" type="curve"/>
      <point x="264" y="-180" type="line"/>
      <point x="295" y="-183"/>
      <point x="320" y="-185"/>
      <point x="342" y="-185" type="curve" smooth="yes"/>
      <point x="425" y="-185"/>
      <point x="464" y="-144"/>
      <point x="464" y="-57" type="curve" smooth="yes"/>
      <point x="464" y="590" type="line"/>
      <point x="12" y="590" type="line"/>
    </contour>
    <contour>
      <point x="389" y="-180" type="move" name="bottom"/>
    </contour>
    <contour>
      <point x="389" y="590" type="move" name="top"/>
    </contour>
  </outline>
</glyph>
<glyph name="f_t" format="2">
	<advance width="524"/>
	<anchor x="376" y="295" name="center"/>
	<anchor x="376" y="590" name="top"/>
	<anchor x="505" y="820" name="topright"/>
	<anchor x="424" y="0" name="bottom"/>
	<outline>
		<contour>
			<point x="62" y="0" type="line"/>
			<point x="212" y="0" type="line"/>
			<point x="212" y="682" type="line" smooth="yes"/>
			<point x="212" y="701"/>
			<point x="221" y="710"/>
			<point x="240" y="710" type="curve" smooth="yes"/>
			<point x="248" y="710"/>
			<point x="256" y="709"/>
			<point x="262" y="708" type="curve"/>
			<point x="262" y="820" type="line"/>
			<point x="233" y="823"/>
			<point x="208" y="825"/>
			<point x="184" y="825" type="curve" smooth="yes"/>
			<point x="101" y="825"/>
			<point x="62" y="786"/>
			<point x="62" y="702" type="curve" smooth="yes"/>
		</contour>
		<contour>
			<point x="302" y="123" type="line" smooth="yes"/>
			<point x="302" y="39"/>
			<point x="341" y="-5"/>
			<point x="424" y="-5" type="curve" smooth="yes"/>
			<point x="448" y="-5"/>
			<point x="473" y="-3"/>
			<point x="502" y="0" type="curve"/>
			<point x="502" y="112" type="line"/>
			<point x="496" y="111"/>
			<point x="488" y="110"/>
			<point x="480" y="110" type="curve" smooth="yes"/>
			<point x="461" y="110"/>
			<point x="452" y="119"/>
			<point x="452" y="138" type="curve" smooth="yes"/>
			<point x="452" y="740" type="line"/>
			<point x="382" y="740" type="line"/>
			<point x="302" y="670" type="line"/>
		</contour>
		<contour>
			<point x="12" y="590" type="line"/>
			<point x="12" y="480" type="line"/>
			<point x="502" y="480" type="line"/>
			<point x="502" y="590" type="line"/>
		</contour>
	</outline>
</glyph>
<glyph name="f_tbar" format="1">
  <advance width="534"/>
  <outline>
    <contour>
      <point x="242" y="260" type="line"/>
      <point x="492" y="260" type="line"/>
      <point x="512" y="370" type="line"/>
      <point x="262" y="370" type="line"/>
    </contour>
    <component base="f_t"/>
  </outline>
</glyph>
<glyph name="g.sc" format="2">
	<advance width="450"/>
	<anchor x="224" y="620" name="top"/>
	<anchor x="224" y="0" name="bottom"/>
	<outline>
		<contour>
			<point x="422" y="360" type="line"/>
			<point x="222" y="360" type="line"/>
			<point x="222" y="220" type="line"/>
			<point x="257" y="220" type="line"/>
			<point x="257" y="170" type="line" smooth="yes"/>
			<point x="257" y="145"/>
			<point x="245" y="130"/>
			<point x="224" y="130" type="curve" smooth="yes"/>
			<point x="203" y="130"/>
			<point x="191" y="143"/>
			<point x="191" y="165" type="curve" smooth="yes"/>
			<point x="191" y="450" type="line" smooth="yes"/>
			<point x="191" y="475"/>
			<point x="203" y="490"/>
			<point x="224" y="490" type="curve" smooth="yes"/>
			<point x="245" y="490"/>
			<point x="257" y="477"/>
			<point x="257" y="455" type="curve" smooth="yes"/>
			<point x="257" y="404" type="line"/>
			<point x="422" y="404" type="line"/>
			<point x="422" y="454" type="line" smooth="yes"/>
			<point x="422" y="565"/>
			<point x="349" y="630"/>
			<point x="225" y="630" type="curve" smooth="yes"/>
			<point x="100" y="630"/>
			<point x="26" y="565"/>
			<point x="26" y="455" type="curve" smooth="yes"/>
			<point x="26" y="166" type="line" smooth="yes"/>
			<point x="26" y="55"/>
			<point x="99" y="-10"/>
			<point x="223" y="-10" type="curve" smooth="yes"/>
			<point x="348" y="-10"/>
			<point x="422" y="55"/>
			<point x="422" y="165" type="curve" smooth="yes"/>
		</contour>
	</outline>
</glyph>
<glyph name="g.sc.ss02" format="1">
  <advance width="450"/>
  <outline>
    <contour>
      <point x="193" y="-10" type="curve" smooth="yes"/>
      <point x="257" y="-10"/>
      <point x="298" y="10"/>
      <point x="316" y="50" type="curve"/>
      <point x="322" y="50" type="line"/>
      <point x="332" y="0" type="line"/>
      <point x="422" y="0" type="line"/>
      <point x="422" y="360" type="line"/>
      <point x="222" y="360" type="line"/>
      <point x="222" y="220" type="line"/>
      <point x="257" y="220" type="line"/>
      <point x="257" y="170" type="line" smooth="yes"/>
      <point x="257" y="143"/>
      <point x="246" y="130"/>
      <point x="224" y="130" type="curve" smooth="yes"/>
      <point x="202" y="130"/>
      <point x="191" y="141"/>
      <point x="191" y="165" type="curve" smooth="yes"/>
      <point x="191" y="450" type="line" smooth="yes"/>
      <point x="191" y="477"/>
      <point x="202" y="490"/>
      <point x="224" y="490" type="curve" smooth="yes"/>
      <point x="246" y="490"/>
      <point x="257" y="479"/>
      <point x="257" y="455" type="curve" smooth="yes"/>
      <point x="257" y="404" type="line"/>
      <point x="422" y="404" type="line"/>
      <point x="422" y="464" type="line" smooth="yes"/>
      <point x="422" y="575"/>
      <point x="357" y="630"/>
      <point x="225" y="630" type="curve" smooth="yes"/>
      <point x="91" y="630"/>
      <point x="26" y="576"/>
      <point x="26" y="465" type="curve" smooth="yes"/>
      <point x="26" y="156" type="line" smooth="yes"/>
      <point x="26" y="45"/>
      <point x="81" y="-10"/>
    </contour>
    <contour>
      <point x="224" y="0" type="move" name="bottom"/>
    </contour>
    <contour>
      <point x="224" y="620" type="move" name="top"/>
    </contour>
  </outline>
</glyph>
<glyph name="g.ss02" format="1">
  <advance width="439"/>
  <outline>
    <contour>
      <point x="36" y="346" type="line" smooth="yes"/>
      <point x="36" y="226"/>
      <point x="98" y="170"/>
      <point x="208" y="170" type="curve" smooth="yes"/>
      <point x="320" y="170"/>
      <point x="382" y="226"/>
      <point x="382" y="345" type="curve" smooth="yes"/>
      <point x="382" y="424" type="line" smooth="yes"/>
      <point x="382" y="544"/>
      <point x="320" y="600"/>
      <point x="210" y="600" type="curve" smooth="yes"/>
      <point x="98" y="600"/>
      <point x="36" y="544"/>
      <point x="36" y="425" type="curve" smooth="yes"/>
    </contour>
    <contour>
      <point x="186" y="305" type="curve" smooth="yes"/>
      <point x="186" y="460" type="line" smooth="yes"/>
      <point x="186" y="480"/>
      <point x="193" y="490"/>
      <point x="209" y="490" type="curve" smooth="yes"/>
      <point x="225" y="490"/>
      <point x="232" y="482"/>
      <point x="232" y="465" type="curve" smooth="yes"/>
      <point x="232" y="310" type="line" smooth="yes"/>
      <point x="232" y="290"/>
      <point x="225" y="280"/>
      <point x="209" y="280" type="curve" smooth="yes"/>
      <point x="193" y="280"/>
      <point x="186" y="288"/>
    </contour>
    <contour>
      <point x="127" y="219" type="line"/>
      <point x="73" y="189"/>
      <point x="46" y="153"/>
      <point x="46" y="108" type="curve" smooth="yes"/>
      <point x="46" y="59"/>
      <point x="71" y="27"/>
      <point x="123" y="11" type="curve" smooth="yes"/>
      <point x="238" y="-25" type="line" smooth="yes"/>
      <point x="261" y="-32"/>
      <point x="272" y="-44"/>
      <point x="272" y="-59" type="curve" smooth="yes"/>
      <point x="272" y="-79"/>
      <point x="249" y="-91"/>
      <point x="210" y="-91" type="curve" smooth="yes"/>
      <point x="173" y="-91"/>
      <point x="151" y="-74"/>
      <point x="151" y="-46" type="curve" smooth="yes"/>
      <point x="151" y="-22"/>
      <point x="166" y="-2"/>
      <point x="191" y="9" type="curve"/>
      <point x="111" y="50" type="line"/>
      <point x="58" y="27"/>
      <point x="26" y="-17"/>
      <point x="26" y="-67" type="curve" smooth="yes"/>
      <point x="26" y="-144"/>
      <point x="94" y="-190"/>
      <point x="210" y="-190" type="curve" smooth="yes"/>
      <point x="343" y="-190"/>
      <point x="422" y="-138"/>
      <point x="422" y="-49" type="curve" smooth="yes"/>
      <point x="422" y="19"/>
      <point x="383" y="72"/>
      <point x="302" y="97" type="curve" smooth="yes"/>
      <point x="187" y="133" type="line" smooth="yes"/>
      <point x="169" y="139"/>
      <point x="160" y="148"/>
      <point x="160" y="161" type="curve" smooth="yes"/>
      <point x="160" y="170"/>
      <point x="164" y="178"/>
      <point x="172" y="185" type="curve"/>
    </contour>
    <contour>
      <point x="287" y="525" type="curve"/>
      <point x="345" y="490" type="line"/>
      <point x="362" y="517"/>
      <point x="389" y="530"/>
      <point x="429" y="530" type="curve"/>
      <point x="429" y="620" type="line"/>
      <point x="360" y="620"/>
      <point x="307" y="585"/>
    </contour>
    <contour>
      <point x="225" y="-180" type="move" name="bottom"/>
    </contour>
    <contour>
      <point x="210" y="600" type="move" name="top"/>
    </contour>
  </outline>
</glyph>
<glyph name="h.sc" format="2">
	<advance width="462"/>
	<outline>
		<contour>
			<point x="30" y="0" type="line"/>
			<point x="195" y="0" type="line"/>
			<point x="195" y="250" type="line"/>
			<point x="265" y="250" type="line"/>
			<point x="265" y="0" type="line"/>
			<point x="430" y="0" type="line"/>
			<point x="430" y="620" type="line"/>
			<point x="265" y="620" type="line"/>
			<point x="265" y="390" type="line"/>
			<point x="195" y="390" type="line"/>
			<point x="195" y="620" type="line"/>
			<point x="30" y="620" type="line"/>
		</contour>
	</outline>
</glyph>
<glyph name="hbar.sc" format="2">
	<advance width="500"/>
	<outline>
		<contour>
			<point x="25" y="560" type="line"/>
			<point x="5" y="460" type="line"/>
			<point x="475" y="460" type="line"/>
			<point x="495" y="560" type="line"/>
		</contour>
		<component base="h.sc" xOffset="15"/>
	</outline>
</glyph>
<glyph name="i.sc" format="2">
	<advance width="227"/>
	<anchor x="195" y="10" name="ogonek"/>
	<anchor x="113" y="620" name="top"/>
	<anchor x="15" y="620" name="topleft"/>
	<anchor x="113" y="0" name="bottom"/>
	<outline>
		<contour>
			<point x="195" y="620" type="line"/>
			<point x="30" y="620" type="line"/>
			<point x="30" y="0" type="line"/>
			<point x="195" y="0" type="line"/>
		</contour>
	</outline>
</glyph>
<glyph name="j.sc" format="2">
	<advance width="435"/>
	<outline>
		<contour>
			<point x="172" y="266" type="line"/>
			<point x="17" y="266" type="line"/>
			<point x="17" y="151" type="line" smooth="yes"/>
			<point x="17" y="50"/>
			<point x="88" y="-10"/>
			<point x="209" y="-10" type="curve" smooth="yes"/>
			<point x="331" y="-10"/>
			<point x="403" y="49"/>
			<point x="403" y="150" type="curve" smooth="yes"/>
			<point x="403" y="620" type="line"/>
			<point x="238" y="620" type="line"/>
			<point x="238" y="165" type="line" smooth="yes"/>
			<point x="238" y="143"/>
			<point x="226" y="130"/>
			<point x="205" y="130" type="curve" smooth="yes"/>
			<point x="184" y="130"/>
			<point x="172" y="141"/>
			<point x="172" y="160" type="curve" smooth="yes"/>
		</contour>
	</outline>
</glyph>
<glyph name="j.sc.ss03" format="1">
  <advance width="264"/>
  <outline>
    <contour>
      <point x="232" y="123" type="curve" smooth="yes"/>
      <point x="232" y="620" type="line"/>
      <point x="67" y="620" type="line"/>
      <point x="67" y="168" type="line" smooth="yes"/>
      <point x="67" y="149"/>
      <point x="58" y="140"/>
      <point x="39" y="140" type="curve" smooth="yes"/>
      <point x="30" y="140"/>
      <point x="22" y="141"/>
      <point x="17" y="142" type="curve"/>
      <point x="17" y="0" type="line"/>
      <point x="47" y="-7"/>
      <point x="77" y="-10"/>
      <point x="110" y="-10" type="curve" smooth="yes"/>
      <point x="193" y="-10"/>
      <point x="232" y="33"/>
    </contour>
  </outline>
</glyph>
<glyph name="k.sc" format="1">
  <advance width="463"/>
  <outline>
    <contour>
      <point x="30" y="0" type="line"/>
      <point x="195" y="0" type="line"/>
      <point x="195" y="224" type="line"/>
      <point x="214" y="300" type="line"/>
      <point x="220" y="300" type="line"/>
      <point x="285" y="0" type="line"/>
      <point x="453" y="0" type="line"/>
      <point x="348" y="402" type="line"/>
      <point x="446" y="620" type="line"/>
      <point x="267" y="620" type="line"/>
      <point x="204" y="425" type="line"/>
      <point x="195" y="362" type="line"/>
      <point x="189" y="362" type="line"/>
      <point x="195" y="427" type="line"/>
      <point x="195" y="620" type="line"/>
      <point x="30" y="620" type="line"/>
    </contour>
    <contour>
      <point x="227" y="0" type="move" name="bottom"/>
    </contour>
    <contour>
      <point x="227" y="620" type="move" name="top"/>
    </contour>
  </outline>
</glyph>
<glyph name="k.sc.ss04" format="1">
  <advance width="459"/>
  <outline>
    <contour>
      <point x="30" y="0" type="line"/>
      <point x="195" y="0" type="line"/>
      <point x="195" y="247" type="line"/>
      <point x="192" y="295" type="line"/>
      <point x="197" y="295" type="line"/>
      <point x="209" y="247" type="line"/>
      <point x="284" y="0" type="line"/>
      <point x="449" y="0" type="line"/>
      <point x="340" y="332" type="line"/>
      <point x="444" y="620" type="line"/>
      <point x="279" y="620" type="line"/>
      <point x="209" y="386" type="line"/>
      <point x="198" y="337" type="line"/>
      <point x="192" y="337" type="line"/>
      <point x="195" y="386" type="line"/>
      <point x="195" y="620" type="line"/>
      <point x="30" y="620" type="line"/>
    </contour>
    <contour>
      <point x="230" y="0" type="move" name="bottom"/>
    </contour>
    <contour>
      <point x="230" y="620" type="move" name="top"/>
    </contour>
  </outline>
</glyph>
<glyph name="k.ss04" format="2">
	<advance width="427"/>
	<anchor x="215" y="820" name="top"/>
	<anchor x="215" y="0" name="bottom"/>
	<outline>
		<contour>
			<point x="30" y="0" type="line"/>
			<point x="180" y="0" type="line"/>
			<point x="180" y="288" type="line"/>
			<point x="178" y="321" type="line"/>
			<point x="184" y="321" type="line"/>
			<point x="189" y="288" type="line"/>
			<point x="267" y="0" type="line"/>
			<point x="417" y="0" type="line"/>
			<point x="307" y="335" type="line"/>
			<point x="392" y="590" type="line"/>
			<point x="252" y="590" type="line"/>
			<point x="190" y="382" type="line"/>
			<point x="184" y="349" type="line"/>
			<point x="178" y="349" type="line"/>
			<point x="180" y="382" type="line"/>
			<point x="180" y="820" type="line"/>
			<point x="30" y="820" type="line"/>
		</contour>
	</outline>
</glyph>
<glyph name="l.sc" format="2">
	<advance width="380"/>
	<anchor x="185" y="350" name="center"/>
	<anchor x="125" y="620" name="top"/>
	<anchor x="225" y="620" name="topright"/>
	<anchor x="185" y="0" name="bottom"/>
	<outline>
		<contour>
			<point x="365" y="0" type="line"/>
			<point x="365" y="140" type="line"/>
			<point x="195" y="140" type="line"/>
			<point x="195" y="620" type="line"/>
			<point x="30" y="620" type="line"/>
			<point x="30" y="0" type="line"/>
		</contour>
	</outline>
</glyph>
<glyph name="lslash.sc" format="1">
  <advance width="405"/>
  <outline>
    <contour>
      <point x="5" y="268" type="line"/>
      <point x="284" y="312" type="line"/>
      <point x="284" y="423" type="line"/>
      <point x="5" y="379" type="line"/>
    </contour>
    <component base="l.sc" xOffset="25"/>
  </outline>
</glyph>
<glyph name="m.sc" format="1">
  <advance width="680"/>
  <outline>
    <contour>
      <point x="648" y="0" type="line"/>
      <point x="648" y="620" type="line"/>
      <point x="406" y="620" type="line"/>
      <point x="339" y="285" type="line"/>
      <point x="335" y="203" type="line"/>
      <point x="329" y="203" type="line"/>
      <point x="325" y="285" type="line"/>
      <point x="258" y="620" type="line"/>
      <point x="30" y="620" type="line"/>
      <point x="30" y="0" type="line"/>
      <point x="175" y="0" type="line"/>
      <point x="175" y="326" type="line"/>
      <point x="170" y="480" type="line"/>
      <point x="176" y="480" type="line"/>
      <point x="190" y="326" type="line"/>
      <point x="262" y="0" type="line"/>
      <point x="397" y="0" type="line"/>
      <point x="468" y="326" type="line"/>
      <point x="482" y="480" type="line"/>
      <point x="488" y="480" type="line"/>
      <point x="483" y="326" type="line"/>
      <point x="483" y="0" type="line"/>
    </contour>
  </outline>
</glyph>
<glyph name="macroncomb.alt" format="1">
  <advance width="338"/>
  <outline>
    <contour>
      <point x="94" y="760" type="line"/>
      <point x="94" y="680" type="line"/>
      <point x="304" y="680" type="line"/>
      <point x="304" y="760" type="line"/>
    </contour>
    <contour>
      <point x="169" y="590" type="move" name="_top"/>
    </contour>
    <contour>
      <point x="169" y="760" type="move" name="top"/>
    </contour>
  </outline>
</glyph>
<glyph name="n.sc" format="2">
	<advance width="486"/>
	<anchor x="244" y="620" name="top"/>
	<anchor x="244" y="0" name="bottom"/>
	<outline>
		<contour>
			<point x="30" y="620" type="line"/>
			<point x="30" y="0" type="line"/>
			<point x="175" y="0" type="line"/>
			<point x="175" y="303" type="line"/>
			<point x="161" y="426" type="line"/>
			<point x="167" y="426" type="line"/>
			<point x="187" y="303" type="line"/>
			<point x="266" y="0" type="line"/>
			<point x="454" y="0" type="line"/>
			<point x="454" y="620" type="line"/>
			<point x="309" y="620" type="line"/>
			<point x="309" y="307" type="line"/>
			<point x="321" y="186" type="line"/>
			<point x="315" y="186" type="line"/>
			<point x="297" y="307" type="line"/>
			<point x="217" y="620" type="line"/>
		</contour>
	</outline>
</glyph>
